<svg width="111" height="64" viewBox="0 0 111 64" fill="none" xmlns="http://www.w3.org/2000/svg">
<path d="M28.8864 34.4301C29.3449 34.9345 29.8952 35.3013 30.5829 35.5764C31.2707 35.8515 32.0502 35.9891 33.0131 35.9891C33.4716 35.9891 33.9301 35.9432 34.2969 35.8974C34.7096 35.8515 35.0305 35.7598 35.3515 35.6222C35.6724 35.5305 35.9476 35.393 36.2227 35.3013C36.4519 35.1637 36.6812 35.072 36.8646 34.9803L36.5436 34.2926C36.3602 34.3843 36.1768 34.476 35.9934 34.5677C35.81 34.6594 35.6266 34.7052 35.3973 34.7969C35.1681 34.8428 34.9388 34.9345 34.6637 34.9345C34.3886 34.9803 34.0676 34.9803 33.7008 34.9803C33.0131 34.9803 32.417 34.8428 32.0043 34.5677C31.5458 34.2926 31.2249 33.9257 30.9497 33.5131C30.7205 33.0546 30.5371 32.5043 30.4454 31.9083C30.3537 31.2664 30.3078 30.6244 30.3078 29.8908C30.3078 29.3406 30.3537 28.7445 30.3995 28.1485C30.4454 27.5524 30.5829 27.048 30.8122 26.5895C31.0414 26.131 31.3166 25.7642 31.7292 25.4432C32.1419 25.1681 32.6921 24.9847 33.3799 24.9847C34.0218 24.9847 34.572 25.1681 35.0305 25.4891C35.489 25.81 35.7641 26.3602 35.9017 27.048H36.6353V24.8013C36.4061 24.7096 36.1768 24.6179 35.9017 24.5262C35.6266 24.4345 35.3515 24.3886 35.0305 24.3428C34.7096 24.2969 34.4345 24.2969 34.1135 24.2511C33.8384 24.2511 33.5633 24.2052 33.334 24.2052C32.3253 24.2052 31.5 24.3428 30.7663 24.6179C30.0786 24.893 29.4825 25.3057 29.024 25.81C28.5655 26.3144 28.2445 26.9563 28.0152 27.6899C27.786 28.4236 27.6943 29.2947 27.6943 30.2118C27.6943 31.083 27.786 31.9083 28.0152 32.5961C28.1528 33.3755 28.4738 33.9716 28.8864 34.4301Z" fill="#1A9F29"/>
<path d="M73.7292 35.6222C74.2794 35.5764 74.8296 35.393 75.2423 35.1637C75.7008 34.8886 76.0676 34.5218 76.2969 34.0174C76.572 33.5131 76.7095 32.8253 76.7095 31.9541C76.7095 31.3122 76.6178 30.8078 76.4344 30.3493C76.251 29.8908 75.9759 29.5698 75.5633 29.2489C75.1506 28.9738 74.6462 28.7904 74.0043 28.6528C73.3624 28.5153 72.5829 28.4694 71.6659 28.4694H70.703V25.7642C70.703 25.4891 70.7489 25.3057 70.8864 25.214C71.024 25.1222 71.2532 25.1222 71.62 25.1222H72.9956C73.4082 25.1222 73.7751 25.1222 74.0502 25.1681C74.3253 25.214 74.5545 25.2598 74.6921 25.3974C74.8755 25.5349 75.013 25.7183 75.1048 25.9476C75.1964 26.1768 75.334 26.4978 75.4257 26.9105H76.0218V24.3886H67.5851V24.7554C67.631 24.7554 67.6768 24.8013 67.8144 24.8013C67.9519 24.8471 68.0436 24.893 68.0895 24.9388C68.1353 24.9847 68.1812 25.0764 68.227 25.214C68.227 25.3515 68.2729 25.4891 68.2729 25.6725V34.4301C68.2729 34.6135 68.2729 34.7969 68.227 34.8886C68.227 35.0262 68.1812 35.1179 68.0895 35.1637C68.0436 35.2096 67.9519 35.3013 67.8144 35.3013C67.6768 35.3471 67.631 35.3471 67.5851 35.3471V35.7139H71.8493C72.5371 35.7139 73.1331 35.7139 73.7292 35.6222ZM70.9323 34.7969C70.8406 34.7052 70.7947 34.6135 70.7947 34.476C70.7947 34.3384 70.7489 34.155 70.7489 33.9257V29.1572H71.7117C72.5829 29.1572 73.2248 29.3864 73.5917 29.8449C73.9585 30.3035 74.1419 31.0371 74.1419 32.0458C74.1419 32.7336 74.096 33.238 73.9585 33.6506C73.8209 34.0633 73.6833 34.3384 73.4541 34.5677C73.2248 34.7511 72.9956 34.8886 72.7663 34.9803C72.4912 35.0262 72.2161 35.072 71.941 35.072C71.6659 35.0262 71.4366 35.0262 71.2991 34.9803C71.1615 34.9345 71.024 34.8886 70.9323 34.7969Z" fill="#1A9F29"/>
<path d="M61.6703 35.3471C61.6244 35.3471 61.5786 35.3013 61.441 35.3013C61.3035 35.2554 61.2118 35.2096 61.1659 35.1637C61.12 35.1179 61.0742 35.0262 61.0283 34.8886C61.0283 34.7511 60.9825 34.6135 60.9825 34.4301V31.2663H62.1288C62.7249 31.2663 63.2751 31.2205 63.8253 31.1288C64.3755 31.0371 64.834 30.8537 65.2467 30.6244C65.6593 30.3493 65.9803 30.0284 66.2096 29.524C66.4388 29.0655 66.5764 28.4236 66.5764 27.6441C66.5764 26.9105 66.4388 26.3144 66.2554 25.9017C66.0262 25.4891 65.7052 25.1222 65.3384 24.893C64.9716 24.6637 64.5131 24.5262 64.0087 24.4803C63.5043 24.4345 63 24.3886 62.4497 24.3886H57.9563V24.7554C58.0021 24.7554 58.048 24.8013 58.1856 24.8013C58.3231 24.8471 58.4148 24.893 58.4607 24.9388C58.5065 24.9847 58.5524 25.0764 58.5982 25.214C58.5982 25.3515 58.6441 25.4891 58.6441 25.6725V34.3842C58.6441 34.5677 58.6441 34.7511 58.5982 34.8428C58.5982 34.9803 58.5524 35.072 58.4607 35.1179C58.4148 35.1637 58.3231 35.2554 58.1856 35.2554C58.048 35.3013 58.0021 35.3013 57.9563 35.3013V35.6681H61.6703V35.3471ZM61.0283 25.6725C61.0283 25.5808 61.0284 25.4891 61.0742 25.3974C61.0742 25.3057 61.12 25.2598 61.1659 25.214C61.2118 25.1681 61.3035 25.1222 61.441 25.1222C61.5786 25.1222 61.7161 25.0764 61.9454 25.0764C62.2205 25.0764 62.4956 25.1222 62.7707 25.1681C63.0458 25.2598 63.2292 25.3974 63.4585 25.5808C63.6419 25.7642 63.7794 26.0393 63.917 26.3602C64.0087 26.6812 64.0546 27.0939 64.0546 27.5524C64.0546 28.5153 63.917 29.2489 63.6419 29.7532C63.3668 30.2576 62.8624 30.5327 62.1746 30.5327H61.0283V25.6725Z" fill="#1A9F29"/>
<path d="M56.4432 33.1004H55.7096C55.6179 33.5589 55.5262 33.8799 55.4344 34.155C55.3427 34.4301 55.251 34.6135 55.0676 34.7511C54.9301 34.8886 54.7008 34.9803 54.4257 34.9803C54.1506 35.0262 53.7838 35.0262 53.2794 35.0262C52.8209 35.0262 52.4541 35.0262 52.2248 34.9803C51.9497 34.9345 51.7663 34.8886 51.6288 34.7969C51.4912 34.7052 51.3995 34.5677 51.3995 34.4301C51.3537 34.2467 51.3537 34.0633 51.3537 33.7882V30.2118H52.8668C53.0043 30.2118 53.1419 30.2118 53.3253 30.2118C53.5087 30.2118 53.6921 30.2576 53.8755 30.2576C54.0589 30.2576 54.2423 30.3035 54.4257 30.3493C54.6091 30.3952 54.7467 30.441 54.8842 30.5327V29.0655C54.7467 29.1572 54.6091 29.203 54.4257 29.2489C54.2423 29.2947 54.0589 29.3406 53.8755 29.3406C53.6921 29.3864 53.5087 29.3864 53.3253 29.3864C53.1419 29.3864 53.0043 29.3864 52.8668 29.3864H51.3537V25.6266C51.3537 25.3974 51.3995 25.2139 51.4454 25.1222C51.5371 25.0305 51.6746 25.0305 51.9039 25.0305H53.1419C53.5545 25.0305 53.9213 25.0305 54.1965 25.0764C54.4716 25.1222 54.7008 25.1681 54.8384 25.3057C55.0218 25.4432 55.1593 25.6266 55.251 25.8559C55.3427 26.0851 55.4803 26.4061 55.572 26.8188H56.1681V24.3886H48.2816V24.7554C48.3275 24.7554 48.3733 24.8013 48.5109 24.8013C48.6484 24.8471 48.7401 24.893 48.786 24.9388C48.8318 24.9847 48.8777 25.0764 48.9235 25.214C48.9235 25.3515 48.9694 25.4891 48.9694 25.6725V34.3842C48.9694 34.5677 48.9694 34.7511 48.9235 34.8428C48.9235 34.9803 48.8777 35.072 48.786 35.1179C48.7401 35.1637 48.6484 35.2554 48.5109 35.2554C48.3733 35.3013 48.3275 35.3013 48.2816 35.3013V35.6681H56.4432V33.1004Z" fill="#1A9F29"/>
<path d="M43.9716 35.6222C44.5218 35.5764 45.072 35.393 45.4847 35.1637C45.9432 34.8886 46.31 34.5218 46.5851 34.0174C46.8602 33.5131 46.9978 32.8253 46.9978 31.9541C46.9978 31.3122 46.9061 30.8078 46.7226 30.3493C46.5392 29.8908 46.2641 29.5698 45.8515 29.2489C45.4388 28.9738 44.9344 28.7904 44.2925 28.6528C43.6506 28.5153 42.8711 28.4694 41.9541 28.4694H40.9912V25.7642C40.9912 25.4891 41.0371 25.3057 41.1746 25.214C41.3122 25.1222 41.5414 25.1222 41.9082 25.1222H43.2838C43.6964 25.1222 44.0633 25.1222 44.3384 25.1681C44.6135 25.214 44.8427 25.2598 44.9803 25.3974C45.1637 25.5349 45.3013 25.7183 45.393 25.9476C45.4847 26.1768 45.6222 26.4978 45.7139 26.9105H46.31V24.3886H37.8733V24.7554C37.9192 24.7554 37.965 24.8013 38.1026 24.8013C38.2401 24.8471 38.3318 24.893 38.3777 24.9388C38.4235 24.9847 38.4694 25.0764 38.5152 25.214C38.5152 25.3515 38.5611 25.4891 38.5611 25.6725V33.7423C38.5611 33.7423 38.5611 33.7423 38.5611 33.7882V34.3842C38.5611 34.5677 38.5611 34.7052 38.5152 34.8428C38.5152 34.9803 38.4694 35.072 38.3777 35.1179C38.3318 35.1637 38.2401 35.2554 38.1026 35.2554C37.965 35.3013 37.9192 35.3013 37.8733 35.3013V35.7139H42.1375C42.8253 35.7139 43.3755 35.7139 43.9716 35.6222ZM41.1746 34.7969C41.0829 34.7052 41.0371 34.6135 41.0371 34.476C41.0371 34.3384 40.9912 34.155 40.9912 33.9257V29.1572H41.9541C42.8253 29.1572 43.4672 29.3864 43.834 29.8449C44.2008 30.3035 44.3842 31.0371 44.3842 32.0458C44.3842 32.7336 44.3384 33.238 44.2008 33.6506C44.0633 34.0633 43.9257 34.3384 43.6964 34.5677C43.4672 34.7511 43.2379 34.8886 43.0087 34.9803C42.7336 35.0262 42.4585 35.072 42.1834 35.072C41.9082 35.0262 41.7248 35.0262 41.5414 34.9803C41.4039 34.9345 41.2663 34.8886 41.1746 34.7969Z" fill="#1A9F29"/>
<path d="M110.731 38.9236H27.6026V40.024H110.731V38.9236Z" fill="#1A9F29"/>
<path d="M104.083 31.4498C104.312 31.7707 104.496 32.0458 104.725 32.3209C104.908 32.5961 105.137 32.8712 105.321 33.1463C105.504 33.4214 105.688 33.6965 105.917 33.9716C106.146 34.2926 106.33 34.5677 106.513 34.8886C106.696 35.1637 106.834 35.4847 106.971 35.7598L110.823 35.8057C110.41 35.393 110.044 34.9803 109.631 34.5677C109.264 34.155 108.943 33.7882 108.714 33.5589C108.347 33.1463 108.026 32.7795 107.751 32.4585C107.43 32.0917 107.155 31.7707 106.88 31.4498C106.605 31.1288 106.33 30.762 106.1 30.441C105.871 30.1201 105.596 29.7074 105.367 29.3406L105.55 29.1113C105.825 28.7445 106.146 28.3777 106.513 27.9192C106.88 27.4607 107.247 27.0022 107.659 26.5895C108.072 26.131 108.439 25.7183 108.851 25.3515C109.264 24.9847 109.585 24.7096 109.906 24.4803H107.247C107.155 24.7096 107.017 24.9847 106.834 25.3057C106.651 25.6266 106.467 25.9934 106.192 26.3603C105.963 26.7271 105.688 27.1397 105.458 27.5524C105.183 27.9651 104.954 28.3319 104.679 28.6987C104.404 29.0655 104.175 29.4323 103.945 29.7074C103.716 30.0284 103.533 30.2576 103.395 30.4869C103.624 30.8079 103.854 31.1288 104.083 31.4498Z" fill="#1A9F29"/>
<path d="M103.762 35.3471C103.716 35.3471 103.67 35.3013 103.533 35.3013C103.395 35.2554 103.303 35.2096 103.258 35.1637C103.212 35.1179 103.166 35.0262 103.12 34.8886C103.12 34.7511 103.074 34.6135 103.074 34.4301V25.7183C103.074 25.5349 103.074 25.3515 103.12 25.2598C103.12 25.1222 103.166 25.0305 103.258 24.9847C103.303 24.9388 103.395 24.893 103.533 24.8471C103.67 24.8013 103.716 24.8013 103.762 24.8013V24.3886H100.048V24.7554C100.094 24.7554 100.14 24.8013 100.277 24.8013C100.415 24.8471 100.506 24.893 100.552 24.9388C100.598 24.9847 100.644 25.0764 100.69 25.214C100.69 25.3515 100.736 25.4891 100.736 25.6725V34.3842C100.736 34.5677 100.736 34.7511 100.69 34.8428C100.69 34.9803 100.644 35.072 100.552 35.1179C100.506 35.1637 100.415 35.2554 100.277 35.2554C100.14 35.3013 100.094 35.3013 100.048 35.3013V35.6681H103.762V35.3471Z" fill="#1A9F29"/>
<path d="M79.0938 34.3384C79.2314 33.6965 79.5065 32.7795 79.8733 31.6332H83.4956L83.9999 33.1004C84.2292 33.7423 84.4126 34.2926 84.5043 34.7511C84.6419 35.2096 84.7336 35.5305 84.7336 35.7598H87.6222C87.4846 35.5305 87.3471 35.2096 87.1637 34.8428C86.9803 34.476 86.751 33.9257 86.5218 33.238L83.9082 25.81C83.7707 25.4891 83.7248 25.214 83.679 24.9847C83.6331 24.7554 83.6331 24.572 83.5873 24.4345H80.3318V24.8013C80.3777 24.8013 80.4235 24.8471 80.5611 24.8471C80.6986 24.893 80.7903 24.9389 80.8362 24.9847C80.882 25.0306 80.9279 25.1223 80.9737 25.2598C80.9737 25.3515 80.9737 25.3974 80.9737 25.4891C80.9737 25.7642 80.9279 26.0393 80.8362 26.2227L79.0021 30.7161C78.6812 31.5415 78.3602 32.2751 78.1309 32.8253C77.9017 33.3755 77.6724 33.8799 77.5349 34.2467C77.3515 34.6135 77.2139 34.9345 77.0764 35.1637C76.9388 35.393 76.8471 35.5764 76.7554 35.7598H78.8187C78.8646 35.4388 78.9563 34.9803 79.0938 34.3384ZM81.7074 26.2685L83.2205 30.8537H80.1026L81.7074 26.2685Z" fill="#1A9F29"/>
<path d="M91.9781 35.3471H91.8864C91.8405 35.3471 91.7946 35.3013 91.6571 35.3013C91.5195 35.2554 91.4278 35.2096 91.382 35.1637C91.3361 35.1179 91.2903 35.0262 91.2444 34.8886C91.2444 34.7511 91.1986 34.6135 91.1986 34.4301V30.0742H95.6003V34.3842C95.6003 34.5677 95.6003 34.7511 95.5545 34.8428C95.5545 34.9803 95.5086 35.072 95.4169 35.1179C95.3711 35.1637 95.2794 35.2554 95.1418 35.2554C95.0043 35.3013 94.9584 35.3013 94.9126 35.3013V35.6681H98.6265V35.3013C98.5807 35.3013 98.5348 35.2554 98.3973 35.2554C98.2597 35.2096 98.168 35.1637 98.1222 35.1179C98.0763 35.072 98.0305 34.9803 97.9846 34.8428C97.9846 34.7052 97.9388 34.5677 97.9388 34.3842V25.6266C97.9388 25.4432 97.9388 25.2598 97.9846 25.1681C97.9846 25.0305 98.0305 24.9388 98.1222 24.893C98.168 24.8471 98.2597 24.8013 98.3973 24.7554C98.5348 24.7096 98.5807 24.7096 98.6265 24.7096V24.3886H95.0043V24.7554C95.0501 24.7554 95.096 24.8013 95.2335 24.8013C95.3711 24.8471 95.4628 24.893 95.5086 24.9388C95.5545 24.9847 95.6003 25.0764 95.6462 25.214C95.6462 25.3515 95.692 25.4891 95.692 25.6725V29.2947H91.2903V25.6725C91.2903 25.4891 91.2903 25.3057 91.3361 25.214C91.3361 25.0764 91.382 24.9847 91.4737 24.9388C91.5195 24.893 91.6112 24.8471 91.7488 24.8013C91.8863 24.7554 91.9322 24.7554 91.9781 24.7554V24.3886H88.2641V24.7554C88.3099 24.7554 88.3558 24.8013 88.4933 24.8013C88.6309 24.8471 88.7226 24.893 88.7684 24.9388C88.8143 24.9847 88.8602 25.0764 88.906 25.214C88.906 25.3515 88.9519 25.4891 88.9519 25.6725V34.4301C88.9519 34.6135 88.9519 34.7511 88.906 34.8886C88.906 35.0262 88.8602 35.1179 88.7684 35.1637C88.7226 35.2096 88.6309 35.3013 88.4933 35.3013C88.3558 35.3471 88.3099 35.3471 88.2641 35.3471V35.7139H91.9781V35.3471Z" fill="#1A9F29"/>
<path d="M20.0371 25.5808C19.8078 25.2598 19.5786 24.9388 19.3493 24.6179L6.64847 31.9083L0.504366 28.3777C0.366812 28.7904 0.275109 29.1572 0.229257 29.5698L6.69432 33.2838L20.0371 25.5808Z" fill="#1A9F29"/>
<path d="M6.64847 34.6594L0.0458515 30.8537C-3.25607e-09 31.083 0 31.3581 0 31.5873C0 37.5939 4.86026 42.5 10.9127 42.5C16.9192 42.5 21.8253 37.6397 21.8253 31.5873C21.8253 29.7991 21.4126 28.1026 20.6332 26.6354L6.64847 34.6594Z" fill="#1A9F29"/>
<path d="M18.4781 23.7009C18.1572 23.3799 17.8362 23.1507 17.5153 22.8755L6.64846 29.1572L1.42139 26.1769C1.23798 26.4978 1.05457 26.8646 0.871168 27.2314L6.6026 30.5327L18.4781 23.7009Z" fill="#1A9F29"/>
<path d="M16.4148 22.1419C16.0022 21.9127 15.5895 21.6834 15.131 21.5L6.64847 26.4061L2.84279 24.2511C2.56768 24.5262 2.33843 24.8472 2.06332 25.1681L6.60261 27.7817L16.4148 22.1419Z" fill="#1A9F29"/>
</svg>
