<svg width="83" height="64" viewBox="0 0 83 64" fill="none" xmlns="http://www.w3.org/2000/svg">
<path fill-rule="evenodd" clip-rule="evenodd" d="M21.7989 21.376H0.174805V43.0001H21.7989V21.376ZM21.1734 22.0009H0.800201V42.3746H21.1734V22.0009Z" fill="black"/>
<path fill-rule="evenodd" clip-rule="evenodd" d="M0.805908 22.001H21.1791V42.3746H0.805908V22.001Z" fill="#FFF200"/>
<path fill-rule="evenodd" clip-rule="evenodd" d="M1.88121 38.2582L4.53887 40.9674L10.7657 34.6498L17.2008 41.0975L19.8973 38.4272L13.5268 32.0576L14.7514 30.8723V28.3453L15.5201 27.6941V29.6739L16.5103 30.4814L19.4671 27.5246L20.4179 28.254C20.9782 26.1829 17.7345 21.4804 15.0511 24.0856L11.9243 27.1857L12.5629 27.9544L10.9735 29.5044L9.4366 27.9932L10.2442 27.2634L6.81827 23.955C4.23926 21.8315 1.59471 25.0626 1.50342 28.2146L2.44111 27.4333L5.31973 30.5338L6.34872 29.6743V27.7722L6.9868 28.254V30.7422L8.23721 31.9926L1.88121 38.2582Z" fill="black"/>
<path fill-rule="evenodd" clip-rule="evenodd" d="M27.3221 23.968V25.8439H28.1296C29.2368 25.6356 28.9372 24.0462 28.1296 23.968H27.3221ZM25.0296 22.1053V30.5988H27.3221V27.8373L29.2761 30.5988H31.9857L29.5762 27.1992C32.364 25.8444 31.3219 22.1446 28.3909 22.1058H25.0296V22.1053ZM35.6331 26.3518C36.3886 26.3518 37.0005 26.9248 37.0005 27.6285C37.0005 28.3316 36.3882 28.9051 35.6331 28.9051C34.8906 28.9051 34.2782 28.3316 34.2782 27.6285C34.2782 26.9248 34.8906 26.3518 35.6331 26.3518ZM35.1509 24.476C35.7763 24.476 36.3624 24.6843 36.8441 25.0228V24.6974H39.0847L39.0978 30.5984H36.831L36.8441 30.2337C36.3624 30.5722 35.7763 30.7678 35.1509 30.7678C33.4833 30.7678 32.1159 29.3611 32.1159 27.6285C32.1159 25.8959 33.4838 24.476 35.1509 24.476ZM40.2836 24.6974H42.6674V30.5984H40.2836V24.6974ZM41.4816 21.3235C42.1726 21.3235 42.7325 21.8965 42.7325 22.587C42.7325 23.2775 42.1726 23.8505 41.4816 23.8505C40.7784 23.8505 40.2181 23.2771 40.2181 22.587C40.2185 21.897 40.7784 21.3235 41.4816 21.3235ZM59.5759 24.6974H61.9596V30.5984H59.5759V24.6974ZM60.7612 21.3235C61.4648 21.3235 62.0247 21.8965 62.0247 22.587C62.0247 23.2775 61.4648 23.8505 60.7612 23.8505C60.0707 23.8505 59.5108 23.2771 59.5108 22.587C59.5108 21.897 60.0707 21.3235 60.7612 21.3235ZM43.1103 24.6974V26.5733H43.9309V30.5984H46.237V26.5733H48.3994V30.5984H50.7832V26.5475H52.2681V24.7236H50.7176V23.4081C50.6788 22.9264 51.8121 22.7307 52.203 23.1216V21.1933C50.0145 20.5028 48.243 21.7406 48.2556 23.6553V24.6974H46.2234V23.4081C46.1972 22.9264 47.1878 22.7307 47.7603 23.1216V21.1933C45.8583 20.6334 43.8265 21.558 43.8396 23.6422V24.6843L43.1103 24.6974ZM55.6678 30.7678C57.7131 30.7547 58.4682 29.9083 58.9116 28.6706H56.8405C55.9023 29.869 54.5344 28.9964 54.5999 28.0194H58.9771C58.9771 25.6225 57.7 24.4891 55.6683 24.4891C53.6365 24.4891 52.3599 25.9221 52.3599 27.6678C52.3599 29.4135 53.8444 30.781 55.6678 30.7678ZM54.8991 26.6257C54.9253 25.909 56.4884 25.909 56.5924 26.6257H54.8991ZM71.8988 30.7678C73.9568 30.7547 74.7128 29.9083 75.1552 28.6706H73.0711C72.1334 29.869 70.7655 28.9964 70.831 28.0194H75.2081C75.2081 25.6225 73.9446 24.4891 71.8993 24.4891C69.8671 24.4891 68.5909 25.9221 68.5909 27.6678C68.5909 29.4135 70.0749 30.781 71.8988 30.7678ZM71.1301 26.6257C71.1564 25.909 72.7195 25.909 72.8234 26.6257H71.1301ZM67.965 24.8149L67.2614 26.2479C66.3757 25.974 65.5157 26.0265 65.5419 26.2737C65.5681 26.43 65.4249 26.7034 66.8054 26.8991C68.8634 27.2245 68.6944 31.0543 65.2423 30.7678C64.2915 30.7028 63.5228 30.4551 62.8847 30.0773L63.6534 28.5399C64.7348 29.0741 65.7764 29.3868 65.8546 28.8527C65.9459 28.1884 64.7212 28.4229 63.9788 27.8625C62.6502 27.0419 63.4053 24.5017 65.5812 24.4755C66.3494 24.424 67.1444 24.5542 67.965 24.8149ZM76.1196 24.6974V30.5984H78.3475V26.9899C78.4126 26.0911 80.1841 25.9347 80.1972 26.9899V30.5984H82.4504V26.8991C82.3984 24.828 80.2229 23.8248 78.2558 25.1403V24.6974H76.1196ZM26.3451 34.2068L24.8601 42.9607H29.0678C31.9207 42.9607 33.0929 39.4178 31.0607 38.2062C32.7933 36.6037 31.9076 34.1942 30.0448 34.168L26.3451 34.2068ZM28.0515 39.4304L27.7518 40.8765H28.7289C29.836 40.9285 29.7059 39.4304 29.0678 39.4304H28.0515ZM28.5463 36.291L28.2991 37.4637L28.5987 37.4764C29.4976 37.5283 30.0186 36.291 28.9372 36.291H28.5463ZM32.0115 42.9738H34.5647L35.3334 41.4364H38.2252L38.6549 43H41.0125L38.9677 34.2588H36.5576L32.0115 42.9738ZM36.1672 39.5999H37.7566L37.2486 37.2938L36.1672 39.5999ZM41.8205 43H44.1786L44.7773 37.5157L48.1513 42.9738H50.6783L51.7335 34.2064H49.3759L48.7116 39.6907L45.3372 34.1802H42.9015L41.8205 43ZM53.4272 34.1806L51.7728 42.9738H54.261L54.9253 39.6907L57.1527 42.9738H60.4223L57.2309 38.3621L61.3085 34.1675H58.1429L55.3551 37.2676L55.7979 34.1675L53.4272 34.1806Z" fill="black"/>
</svg>
