<svg width="32" height="32" viewBox="0 0 32 32" fill="none" xmlns="http://www.w3.org/2000/svg">
<path d="M0 12H32V20.3818H0V12Z" fill="#D40000"/>
<path d="M1.36835 13.2773H5.99555V13.8785L2.27128 18.441H6.08656V19.1045H1.27734V18.5033L5.00162 13.9408H1.36835V13.2773ZM9.21607 14.0541L8.13511 16.9545H10.301L9.21607 14.0541ZM8.7658 13.2773H9.66953L11.9145 19.1045H11.0858L10.5501 17.61H7.89401L7.35753 19.1045H6.51687L8.7658 13.2773ZM13.567 16.3214V18.4562H14.8452C15.2739 18.4562 15.5916 18.3684 15.7984 18.1927C16.0052 18.0171 16.1082 17.7481 16.1082 17.3872C16.1082 17.0232 16.0052 16.7541 15.7984 16.5809C15.5916 16.4084 15.2739 16.3214 14.8452 16.3214H13.567ZM13.567 13.9248V15.6812H14.747C15.1366 15.6812 15.4264 15.6085 15.6172 15.4648C15.808 15.3203 15.903 15.1 15.903 14.8038C15.903 14.51 15.8072 14.2896 15.6172 14.1443C15.4264 13.999 15.1366 13.9256 14.747 13.9256H13.567V13.9248ZM12.7703 13.2773H14.8061C15.4136 13.2773 15.8822 13.4019 16.2104 13.6518C16.5393 13.9016 16.7029 14.2569 16.7029 14.7176C16.7029 15.0736 16.6191 15.3578 16.4507 15.5686C16.2822 15.7794 16.0347 15.9111 15.709 15.963C16.101 16.046 16.4052 16.2192 16.6223 16.4835C16.8394 16.7477 16.948 17.0775 16.948 17.4726C16.948 17.9932 16.7692 18.3947 16.4115 18.6789C16.0539 18.9623 15.5445 19.1045 14.8851 19.1045H12.7703V13.2773ZM19.0229 16.3214V18.4562H20.3019C20.7306 18.4562 21.0483 18.3684 21.2543 18.1927C21.4611 18.0171 21.564 17.7481 21.564 17.3872C21.564 17.0232 21.4611 16.7541 21.2543 16.5809C21.0475 16.4084 20.7298 16.3214 20.3019 16.3214H19.0229ZM19.0229 13.9248V15.6812H20.2029C20.5925 15.6812 20.8823 15.6085 21.0731 15.4648C21.2639 15.3203 21.3589 15.1 21.3589 14.8038C21.3589 14.51 21.2639 14.2896 21.0731 14.1443C20.8823 13.999 20.5925 13.9256 20.2029 13.9256H19.0229V13.9248ZM18.2262 13.2773H20.2619C20.8695 13.2773 21.3381 13.4019 21.6662 13.6518C21.9952 13.9016 22.1596 14.2569 22.1596 14.7176C22.1596 15.0736 22.0758 15.3578 21.9073 15.5686C21.7389 15.7794 21.4914 15.9111 21.1657 15.963C21.5577 16.046 21.8618 16.2192 22.079 16.4835C22.2961 16.7477 22.4047 17.0775 22.4047 17.4726C22.4047 17.9932 22.2259 18.3947 21.8682 18.6789C21.5106 18.9623 21.0012 19.1045 20.3418 19.1045H18.2262V13.2773ZM25.9893 13.2773H26.8658L28.251 15.3698L29.6497 13.2773H30.4967L28.6733 16.0069L30.7234 19.1045H29.8469L28.2334 16.6663L26.604 19.1045H25.7569L27.8119 16.0292L25.9893 13.2773ZM23.6813 13.2773H24.478V19.1045H23.6813V13.2773Z" fill="white"/>
</svg>
