<svg width="32" height="32" viewBox="0 0 32 32" fill="none" xmlns="http://www.w3.org/2000/svg">
<g clip-path="url(#clip0)">
<path d="M15.8155 0.000244141C7.08121 0.000244141 0 7.1634 0 16.0001C0 24.8365 7.08121 32.0002 15.8155 32.0002C24.5498 32.0002 31.6307 24.8365 31.6307 16.0001C31.6307 7.1634 24.5495 0.000244141 15.8155 0.000244141ZM15.8155 29.9458C13.3304 29.9458 11.3156 28.2663 11.3156 26.1952H20.3153C20.3153 28.2661 18.3006 29.9458 15.8155 29.9458ZM23.2478 24.9531H8.38235V22.2261H23.2481V24.9531H23.2478ZM23.1945 20.8225H8.42477C8.37565 20.7652 8.32541 20.7087 8.27797 20.6506C6.75634 18.7813 6.39798 17.8055 6.04995 16.811C6.04409 16.7783 7.89505 17.1936 9.20763 17.4924C9.20763 17.4924 9.88304 17.6505 10.8705 17.8326C9.9224 16.7083 9.35946 15.279 9.35946 13.818C9.35946 10.6107 11.7909 7.80803 10.9137 5.54266C11.7675 5.61297 12.6807 7.36557 12.7424 10.1059C13.65 8.83694 14.0298 6.51963 14.0298 5.0988C14.0298 3.62771 14.988 1.91887 15.9464 1.86042C15.0921 3.28492 16.1677 4.50613 17.1239 7.53555C17.4825 8.67346 17.4368 10.5884 17.7136 11.8028C17.8054 9.28053 18.2341 5.60027 19.8158 4.32965C19.118 5.92978 19.919 7.93198 20.4669 8.89455C21.3508 10.4475 21.8867 11.6241 21.8867 13.8494C21.8867 15.3414 21.3421 16.7461 20.4236 17.8442C21.468 17.646 22.1892 17.4672 22.1892 17.4672L25.5808 16.7978C25.581 16.7975 25.0882 18.848 23.1945 20.8225Z" fill="#E6522C"/>
</g>
<defs>
<clipPath id="clip0">
<rect width="32" height="32" fill="white"/>
</clipPath>
</defs>
</svg>
