<svg width="117" height="64" viewBox="0 0 117 64" fill="none" xmlns="http://www.w3.org/2000/svg">
<path fill-rule="evenodd" clip-rule="evenodd" d="M13.0949 19C20.3424 19 26.1898 24.8262 26.1898 31.9864C26.1898 39.1466 20.3424 45 13.0949 45C5.8474 45 0 39.1738 0 31.9864C0 24.799 5.87486 19 13.0949 19ZM13.0949 21.4775C18.9697 21.4775 23.719 26.1874 23.719 32.0136C23.719 35.8796 21.6052 39.2827 18.4481 41.1068C19.107 38.8199 19.3815 36.4785 19.2717 33.7832C19.958 33.9738 20.3424 34.0827 21.0287 34.3005C20.2326 32.3131 19.3815 30.5162 18.256 28.6921C17.2677 30.5707 15.9225 32.3403 14.5773 33.7288L16.7735 33.5927C14.8793 36.9414 12.2164 38.5749 8.83974 39.0377C8.07107 35.2534 8.64757 29.0733 12.9576 26.1874L13.3969 28.2565C14.2479 26.9225 15.8951 25.1529 17.1304 23.9277C15.1813 23.1654 12.9302 22.9204 10.734 23.3288C11.0909 23.6283 11.5301 24.0094 11.887 24.3089C7.02787 26.3508 4.36496 29.6995 2.608 33.5927C2.52564 33.0754 2.49819 32.5309 2.49819 32.0136C2.49819 26.1874 7.24749 21.4775 13.0949 21.4775Z" fill="black"/>
<path d="M37.8846 38.3026C37.8846 38.4932 37.8846 38.6838 37.8846 38.8744C37.363 38.8744 36.8688 38.8744 36.3472 38.8744C36.3472 39.2283 36.3472 39.6094 36.3472 39.9634H38.0493C38.0493 40.1539 38.0493 40.3445 38.0493 40.5351H35.6884V36.7508H38.0218C38.0218 36.9414 38.0218 37.1319 38.0218 37.3225C37.4453 37.3225 36.8963 37.3225 36.3198 37.3225V38.2754C36.8414 38.3026 37.363 38.3026 37.8846 38.3026ZM33.0255 40.5079H30.692V36.7508C30.9116 36.7508 31.1312 36.7508 31.3508 36.7508V39.9361H33.0529C33.0255 40.1267 33.0255 40.3173 33.0255 40.5079ZM45.5164 36.778L44.6379 37.7853C44.5281 37.7309 44.4183 37.7037 44.3085 37.6492L44.6379 36.778C44.9124 36.778 45.2144 36.778 45.5164 36.778ZM47.0812 37.4586C46.9988 37.5131 46.9439 37.622 46.9439 37.8126C46.9439 38.1393 47.0537 38.2482 47.3557 38.3026L47.9597 38.3571C48.5636 38.4115 48.9205 38.7382 48.9205 39.3916V39.6094C48.9205 39.7728 48.8931 39.9361 48.8382 40.0723C48.7832 40.2084 48.7009 40.3173 48.5911 40.399C48.4538 40.5079 48.2891 40.5351 48.1244 40.5623C47.9597 40.5895 47.7675 40.5895 47.6028 40.5895H46.3674C46.3674 40.3717 46.3674 40.1539 46.3674 39.9361H47.7126C47.7675 39.9361 47.8224 39.9361 47.8773 39.9361C48.1518 39.9361 48.3166 39.8817 48.2891 39.4733C48.2891 39.2827 48.2342 39.1738 48.1793 39.1194C48.0969 39.0649 47.9871 39.0377 47.8499 39.0105L47.2184 38.956C46.9988 38.9288 46.7518 38.8744 46.587 38.711C46.4223 38.5477 46.3125 38.3026 46.3125 37.8942C46.3125 37.8398 46.3125 37.7853 46.3125 37.7037C46.34 37.2953 46.4772 37.0503 46.7243 36.9141C46.9714 36.778 47.3008 36.7508 47.6302 36.7508H48.7558C48.7558 36.9686 48.7558 37.1864 48.7558 37.4042H47.5479C47.3283 37.4042 47.1635 37.4042 47.0812 37.4586ZM54.7405 40.5079V36.7508H56.3876C56.5249 36.7508 56.7171 36.8052 56.8818 36.9141C57.0465 37.023 57.1563 37.2136 57.1563 37.5131V37.9759C57.1563 38.3026 56.9916 38.466 56.8818 38.5749C56.9916 38.6566 57.1563 38.8471 57.1563 39.1466V39.7456C57.1563 40.1539 56.7994 40.5079 56.3876 40.5079H54.7405ZM56.4425 38.9288C56.4151 38.9016 56.3327 38.8471 56.2778 38.8471H55.3719V39.9089H56.2778C56.3327 39.9089 56.3876 39.8817 56.4425 39.8272C56.47 39.8 56.4974 39.7456 56.4974 39.6639V39.0922C56.5249 39.0649 56.4974 38.9833 56.4425 38.9288ZM56.47 37.4042C56.4151 37.3497 56.3602 37.3225 56.2778 37.3225H55.3719V38.2754H56.3053C56.3602 38.2754 56.4151 38.2482 56.47 38.1937C56.5249 38.1393 56.5523 38.0576 56.5523 38.0032V37.5675C56.5249 37.5403 56.4974 37.4586 56.47 37.4042ZM80.2165 38.3026H81.7538C81.7538 38.4932 81.7538 38.6838 81.7538 38.8744H80.2165V39.9634H81.9185C81.9185 40.1539 81.9185 40.3445 81.9185 40.5351H79.5851V36.7508C80.3537 36.7508 81.1499 36.7508 81.9185 36.7508C81.9185 36.9414 81.9185 37.1319 81.9185 37.3225H80.2165V38.3026ZM76.6202 40.5079H74.5063V36.7508C74.726 36.7508 74.9456 36.7508 75.1652 36.7508V39.9361H76.6202C76.6202 40.1267 76.6202 40.3173 76.6202 40.5079ZM71.9807 37.3497H71.0199V40.5079C70.8002 40.5079 70.5806 40.5079 70.361 40.5079V37.3497H69.4002C69.4002 37.1592 69.4002 36.9686 69.4002 36.778H71.9807C71.9807 36.9686 71.9807 37.1592 71.9807 37.3497ZM66.8471 37.3497H65.8862V40.5079C65.6666 40.5079 65.447 40.5079 65.2274 40.5079V37.3497H64.2665C64.2665 37.1592 64.2665 36.9686 64.2665 36.778H66.8471C66.8471 36.9686 66.8471 37.1592 66.8471 37.3497ZM60.231 39.7183L60.0388 40.5351H59.3525L60.3957 36.778C60.6702 36.778 60.9448 36.778 61.2467 36.778L62.2899 40.5351C62.0703 40.5351 61.8232 40.5351 61.6036 40.5351L61.384 39.7183H60.231ZM60.3682 39.1466H61.1918L60.78 37.5131L60.3682 39.1466ZM42.9358 37.3497C42.6064 37.3497 42.3044 37.3497 41.975 37.3497V40.5079C41.7554 40.5079 41.5358 40.5079 41.3161 40.5079V37.3497C40.9867 37.3497 40.6847 37.3497 40.3553 37.3497C40.3553 37.1592 40.3553 36.9686 40.3553 36.778H42.9358C42.9358 36.9686 42.9358 37.1592 42.9358 37.3497Z" fill="black"/>
<path d="M33.4098 26.5141L34.3432 31.7958H36.4296L38.7356 23.4922H36.7041L35.4413 28.8827L34.5628 23.4922H32.2568L31.3783 28.8827L30.1155 23.4922H28.084L30.39 31.7958H32.4764L33.4098 26.5141Z" fill="black"/>
<path d="M40.0259 31.7958L40.4102 30.0806H42.5241L42.9084 31.7958H44.8026L42.4966 23.4922H40.4102L38.1317 31.7958H40.0259ZM41.4809 25.534L42.1946 28.6649H40.7671L41.4809 25.534Z" fill="black"/>
<path d="M47.5754 28.6922H48.7284L49.8539 31.7958H51.9403L50.4579 28.3382C51.0893 28.1204 51.5011 27.5759 51.5011 26.9225V25.0712C51.5011 24.3089 50.9795 23.7372 50.2932 23.5738C49.8539 23.4649 49.4147 23.4921 48.948 23.4921H45.7909V31.7958H47.5754V28.6922ZM47.5754 25.0984H49.0853C49.4147 25.0984 49.7167 25.2618 49.7167 25.6429V26.4597C49.7167 26.8681 49.4421 27.0586 49.0853 27.0586H47.5754V25.0984Z" fill="black"/>
<path d="M56.8544 31.8775C57.7328 31.8775 58.2544 31.6325 58.6937 31.3058V26.8953H55.8661V28.4743H56.9093C56.9093 29.0188 56.9093 29.4817 56.9093 30.0534C56.7446 30.0806 56.5524 30.1078 56.3602 30.1078H55.6464C54.6307 30.1078 54.3836 29.4 54.3836 28.6377V26.5686C54.3836 25.779 54.7405 25.2073 55.7014 25.2073H58.5564V23.4377H55.5915C53.9444 23.4377 52.7639 24.4178 52.5992 26.1058C52.5992 26.2419 52.5718 26.378 52.5718 26.5141V28.9099C52.5718 30.6523 53.7797 31.8775 55.4268 31.8775H56.8544Z" fill="black"/>
<path d="M61.1644 31.7958L61.5487 30.0806H63.6626L64.0469 31.7958H65.9411L63.6351 23.4922H61.5487L59.2701 31.7958H61.1644ZM62.5919 25.534L63.3057 28.6649H61.8781L62.5919 25.534Z" fill="black"/>
<path d="M72.8867 26.7047V31.7958H74.6162V23.4922H72.3651L70.6905 29.6723L69.0433 23.4922H66.7922V31.7958H68.4943V26.7047L69.7845 31.7958H71.5964L72.8867 26.7047Z" fill="black"/>
<path d="M77.883 31.7958V23.4922H76.0986V31.7958H77.883Z" fill="black"/>
<path d="M85.5423 31.7958V23.4922H83.8128V28.4471L81.1224 23.4922H79.3655V31.7958H81.0675V26.8408L83.7853 31.7958H85.5423Z" fill="black"/>
<path d="M103.359 31.7958V23.4922H101.63V28.4471L98.9392 23.4922H97.1822V31.7958H98.8843V26.8408L101.602 31.7958H103.359Z" fill="black"/>
<path d="M109.728 26.7047H106.516V25.0984H110.057V23.4922H104.732V31.7958H110.057V30.1895H106.516V28.2838H109.728V26.7047Z" fill="black"/>
<path d="M116.783 25.0984V23.4922H110.963V25.0984H112.995V31.7958H114.779V25.0984H116.783Z" fill="black"/>
<path d="M90.8681 31.8775C91.7466 31.8775 92.2682 31.6325 92.7074 31.3058V26.8953H89.8798V28.4743H90.923C90.923 29.0188 90.923 29.4817 90.923 30.0534C90.7583 30.0806 90.5661 30.1078 90.374 30.1078H89.6602C88.6445 30.1078 88.3974 29.4 88.3974 28.6377V26.5686C88.3974 25.779 88.7543 25.2073 89.7151 25.2073H92.5702V23.4377H89.6053C87.9581 23.4377 86.7777 24.4178 86.613 26.1058C86.613 26.2419 86.5855 26.378 86.5855 26.5141V28.9099C86.5855 30.6523 87.7934 31.8775 89.4406 31.8775H90.8681Z" fill="black"/>
<path fill-rule="evenodd" clip-rule="evenodd" d="M94.135 30.244H95.8645V31.9319H94.135V30.244Z" fill="black"/>
</svg>
