<svg width="32" height="32" viewBox="0 0 32 32" fill="none" xmlns="http://www.w3.org/2000/svg">
<path d="M25.7 9.29984L18.7 2.29984C18.6119 2.20224 18.5037 2.12488 18.3829 2.07309C18.2621 2.0213 18.1314 1.99631 18 1.99984H8C7.46957 1.99984 6.96086 2.21055 6.58579 2.58563C6.21071 2.9607 6 3.46941 6 3.99984V27.9998C6 28.5303 6.21071 29.039 6.58579 29.4141C6.96086 29.7891 7.46957 29.9998 8 29.9998H24C24.5304 29.9998 25.0391 29.7891 25.4142 29.4141C25.7893 29.039 26 28.5303 26 27.9998V9.99984C26.0035 9.86842 25.9785 9.73779 25.9268 9.61695C25.875 9.49611 25.7976 9.38792 25.7 9.29984ZM18 4.39984L23.6 9.99984H18V4.39984ZM24 27.9998H8V3.99984H16V9.99984C16 10.5303 16.2107 11.039 16.5858 11.4141C16.9609 11.7891 17.4696 11.9998 18 11.9998H24V27.9998Z" fill="black"/>
<path d="M14 22.1798L11.41 19.5898L10 20.9998L14 24.9998L22 16.9998L20.59 15.5898L14 22.1798Z" fill="black"/>
</svg>
