<svg width="32" height="32" viewBox="0 0 32 32" fill="none" xmlns="http://www.w3.org/2000/svg">
<path d="M24.1666 26H26.333L21.75 15H19.5832L15 26H17.1664H24.1666ZM17.1664 26L20.6665 17.6L24.1666 26H17.1664Z" fill="black"/>
<rect x="29" y="13" width="2" height="17" fill="black"/>
<rect x="27" y="13" width="2" height="2" fill="black"/>
<rect x="27" y="28" width="2" height="2" fill="black"/>
<rect x="11" y="13" width="2" height="17" fill="black"/>
<rect x="13" y="13" width="2" height="2" fill="black"/>
<rect x="13" y="28" width="2" height="2" fill="black"/>
<path d="M7 10H1V12H7V10Z" fill="black"/>
<path d="M13 6H1V8H13V6Z" fill="black"/>
<path d="M13 2H1V4H13V2Z" fill="black"/>
</svg>
