<svg width="32" height="32" viewBox="0 0 32 32" fill="none" xmlns="http://www.w3.org/2000/svg">
<g clip-path="url(#clip0)">
<path d="M5.9974 13.0139C5.60868 13.0139 5.30325 13.3193 5.30325 13.708V17.3176L1.19393 13.2083C0.999566 13.0139 0.694143 12.9584 0.416486 13.0694C0.166594 13.1805 0 13.4304 0 13.708V19.0113C0 19.4 0.305423 19.7054 0.694143 19.7054C1.08286 19.7054 1.38829 19.4 1.38829 19.0113V15.4017L5.49761 19.5111C5.63644 19.6499 5.80304 19.7054 5.9974 19.7054C6.08069 19.7054 6.16399 19.6777 6.27505 19.6499C6.52495 19.5388 6.69154 19.2889 6.69154 19.0113V13.708C6.69154 13.3193 6.35835 13.0139 5.9974 13.0139Z" fill="#009900"/>
<path d="M10.912 16.0681C10.551 16.0681 10.2178 16.4013 10.2178 16.7623C10.2178 17.1232 10.551 17.4564 10.912 17.4564H12.6057L12.217 18.2894H10.0235L8.94061 16.3736L10.0235 14.4022H12.3558L12.9111 15.5128H14.2994L13.4109 13.4026L13.2165 13.0139H12.7723H9.60699H9.1905L8.99614 13.3749L7.52456 16.0681L7.3302 16.4013L7.52456 16.7345L8.99614 19.3167L9.1905 19.6777H9.60699H12.6335H13.0777L13.2721 19.289L14.3827 17.0677L14.8825 16.0681H13.7718H10.912Z" fill="#009900"/>
<path d="M16.243 13.0139C15.882 13.0139 15.5488 13.3471 15.5488 13.7081V15.5128H16.9371V13.7081C16.9371 13.3471 16.6039 13.0139 16.243 13.0139Z" fill="#009900"/>
<path d="M24.0173 13.0695C23.7674 12.9585 23.462 13.014 23.2676 13.2084L19.1583 17.3455V13.7359C19.1583 13.3472 18.8529 13.0418 18.4642 13.0418C18.0754 13.0418 17.77 13.3472 17.77 13.7359V19.0392C17.77 19.3168 17.9366 19.5667 18.1865 19.6778C18.2698 19.7056 18.3531 19.7333 18.4642 19.7333C18.6585 19.7333 18.8251 19.65 18.9639 19.539L23.0455 15.4019V19.0114C23.0455 19.4001 23.3509 19.7056 23.7397 19.7056C24.1284 19.7056 24.4338 19.4001 24.4338 19.0114V13.7359C24.4338 13.4305 24.2672 13.1806 24.0173 13.0695Z" fill="#009900"/>
<path d="M29.5983 16.3735L31.764 14.2356C32.0417 13.9579 32.0417 13.5137 31.764 13.2638C31.4863 12.9861 31.0421 12.9861 30.7922 13.2638L28.5987 15.374L26.433 13.2082C26.1553 12.9306 25.7111 12.9306 25.4612 13.2082C25.1835 13.4859 25.1835 13.9302 25.4612 14.18L27.6269 16.318L25.4612 18.456C25.1835 18.7336 25.1835 19.1779 25.4612 19.4278C25.6 19.5666 25.7666 19.6221 25.961 19.6221C26.1276 19.6221 26.3219 19.5666 26.4607 19.4278L28.6265 17.2898L30.7922 19.4278C30.931 19.5666 31.0976 19.6221 31.292 19.6221C31.4586 19.6221 31.6529 19.5666 31.7918 19.4278C32.0694 19.1501 32.0694 18.7059 31.7918 18.456L29.5983 16.3735Z" fill="#009900"/>
<path d="M15.5488 18.9837C15.5488 19.3447 15.882 19.6778 16.243 19.6778C16.6039 19.6778 16.9371 19.3447 16.9371 18.9837V16.0961H15.5488V18.9837Z" fill="#009900"/>
</g>
<defs>
<clipPath id="clip0">
<rect width="32" height="32" fill="white"/>
</clipPath>
</defs>
</svg>
