<svg width="76" height="64" viewBox="0 0 76 64" fill="none" xmlns="http://www.w3.org/2000/svg">
<rect width="76" height="64" fill="white"/>
<path d="M19.1022 37.4599H11.6449V26.569H14.427V34.9599H19.0735V37.4599H19.1022Z" fill="#004180"/>
<path d="M23.347 26.569V33.3507C23.347 34.2989 24.1501 35.2185 25.24 35.2185C26.2439 35.2185 27.133 34.2989 27.133 33.3507V26.569H29.9151V33.3507C29.9151 36.138 27.3051 37.6036 25.2113 37.6036C23.1175 37.6036 20.5362 36.1955 20.5362 33.3507V26.569H23.347Z" fill="#004180"/>
<path d="M55.0691 32.0288C55.0691 35.4484 52.5164 37.661 49.4475 37.661C46.3785 37.661 43.7972 35.4771 43.7972 32.0288C43.7972 28.6093 46.3498 26.3679 49.4475 26.3679C52.5164 26.3391 55.0691 28.638 55.0691 32.0288ZM49.4475 35.161C50.8529 35.161 52.287 34.3851 52.287 32.0288C52.287 29.7587 50.8529 28.8966 49.4475 28.8966C47.9847 28.8966 46.608 29.9311 46.608 32.0288C46.608 34.0978 48.0708 35.161 49.4475 35.161Z" fill="#004180"/>
<path d="M64.2187 28.9828H59.7443V31.0231H64.1039V33.4081H59.7443V37.4599H57.0195V26.569H64.2187V28.9828Z" fill="#004180"/>
<path d="M75.2038 26.569V28.9541H72.1348V37.4599H69.3527V28.9541H66.3411V26.569H75.2038Z" fill="#004180"/>
<path d="M14.513 20.9655L19.9913 15.4483L25.4121 20.8793V17.4023L19.9913 12L14.513 17.4598V20.9655Z" fill="#004180"/>
<path d="M8.89137 37.4598L3.44182 32L8.92005 26.5403H5.44955L0 32L5.44955 37.4598H8.89137Z" fill="#004180"/>
<path d="M25.4121 43.1494L19.9913 48.523L14.513 43.0632V46.5115L19.9913 52L25.4121 46.5977V43.1494Z" fill="#004180"/>
<path d="M38.4337 35.2472L40.6135 37.4599H44.084L40.1833 33.5231L38.4337 35.2472Z" fill="#004180"/>
<path d="M40.1833 30.477L44.1414 26.5403H40.6995L38.4337 28.7529L40.1833 30.477Z" fill="#004180"/>
<path d="M31.0624 26.569L36.4832 32.0001L31.0624 37.4599H34.5329L39.9251 32.0001L34.5329 26.569H31.0624Z" fill="#004180"/>
</svg>
