<svg width="101" height="64" viewBox="0 0 101 64" fill="none" xmlns="http://www.w3.org/2000/svg">
<path d="M89.8134 27.3587V29.66H93.9185V36.7505H96.6552V29.66H100.76V27.3587" fill="url(#paint0_linear)"/>
<path d="M75.3836 27.3587H78.1203V33.8894L83.3449 28.727C83.5937 28.4782 84.651 27.3587 85.5218 27.3587H87.4499V36.7505H84.7132V30.9039L80.1728 35.3822C79.613 35.942 78.68 36.7505 77.6227 36.7505H75.3836V27.3587Z" fill="url(#paint1_linear)"/>
<path d="M83.0339 24C83.0339 24.6842 82.8473 25.1196 81.4167 25.1196C79.9862 25.1196 79.7996 24.6842 79.7996 24H77.9337C77.9337 25.8659 78.991 26.3635 81.4167 26.3635C83.8424 26.3635 84.8998 25.8659 84.8998 24H83.0339Z" fill="url(#paint2_linear)"/>
<path d="M71.0297 36.7505H73.7664L69.1638 28.1672C68.8528 27.5453 68.2308 27.1721 67.5467 27.1721H66.3027C65.6185 27.1721 64.9966 27.5453 64.6856 28.1672L60.0829 36.7505H62.8196L63.9392 34.6358H69.9724L71.0297 36.7505ZM64.9966 32.5211L66.9247 28.9136L68.8528 32.5211H64.9966Z" fill="url(#paint3_linear)"/>
<path d="M55.7291 34.2004C55.4181 34.5736 54.6717 34.6358 53.5522 34.6358H51.3753C50.6911 34.6358 50.0069 34.5736 49.6337 34.2626C49.1984 33.8894 49.074 33.2053 49.074 32.0235C49.074 30.8417 49.1984 30.1576 49.6337 29.7844C50.0069 29.4734 50.6911 29.4112 51.3753 29.4112H53.5522C54.6717 29.4112 55.4181 29.5356 55.7291 29.8466C55.9157 30.0332 55.9779 30.4064 55.9779 30.593H58.7768C58.7768 29.7844 58.6524 28.6026 57.8438 27.9185C56.9731 27.1721 55.6669 27.0477 52.4326 27.0477C50.5667 27.0477 47.8922 26.9855 47.0214 28.0428C46.2751 28.9758 46.2751 30.282 46.2751 31.9613C46.2751 33.6406 46.3373 34.9468 47.0214 35.8798C47.8922 36.9371 50.5667 36.8749 52.4326 36.8749C55.6669 36.8749 56.9731 36.8127 57.8438 36.0041C58.5902 35.32 58.7768 34.1382 58.7768 33.3296H55.9779C56.0401 33.7028 55.9157 34.0138 55.7291 34.2004Z" fill="url(#paint4_linear)"/>
<path d="M43.1652 27.7941C42.481 27.2965 40.7395 27.1721 38.4382 27.1721C35.9502 27.1721 33.1514 27.2965 33.1514 27.2965V36.7505H35.8881V34.698H38.4382C40.6151 34.698 42.481 34.5736 43.1652 34.076C43.8494 33.5162 44.0981 32.3967 44.0981 30.9661C44.0359 29.5978 43.7872 28.3538 43.1652 27.7941ZM40.9883 32.2101C40.7395 32.3967 39.9309 32.4589 38.376 32.4589H35.8259V29.349H38.376C39.3711 29.349 40.8017 29.4734 40.9883 29.66C41.237 29.8466 41.3614 30.4064 41.3614 30.9039C41.2992 31.4637 41.237 32.0235 40.9883 32.2101Z" fill="url(#paint5_linear)"/>
<path d="M29.6683 28.105C28.7975 27.0477 26.1852 27.1099 24.1949 27.1099C22.2668 27.1099 19.5923 27.0477 18.7215 28.105C18.0373 29.038 17.9751 30.4686 17.9751 32.0235C17.9751 34.2004 18.1617 35.32 18.8459 36.0041C19.9033 37.0615 22.329 36.9993 24.1949 36.9993C26.0608 36.9993 28.5487 37.0615 29.6061 36.0041C30.2281 35.32 30.4769 34.2004 30.4769 32.0235C30.4769 30.4686 30.4147 29.038 29.6683 28.105ZM27.056 34.3248C26.6206 34.5736 26.123 34.6358 25.3144 34.6358H23.0131C22.2668 34.6358 21.707 34.5736 21.3338 34.3248C20.8984 33.9516 20.7118 33.3296 20.7118 32.0235C20.7118 30.8417 20.8362 30.1576 21.2716 29.7222C21.6448 29.4734 22.329 29.349 23.0131 29.349H25.3144C25.9986 29.349 26.6828 29.4112 27.1182 29.7222C27.5536 30.0954 27.678 30.8417 27.678 32.0235C27.678 33.3296 27.5536 34.0138 27.056 34.3248Z" fill="url(#paint6_linear)"/>
<path d="M14.9896 27.8563C14.3677 27.3587 12.4395 27.1099 8.0235 27.1099C3.54527 27.1099 1.49274 27.3587 0.870767 27.8563C0.186593 28.416 0 29.5356 0 30.8417C0 32.3345 0.248791 33.5162 0.932965 34.076C1.61714 34.5736 2.48791 34.698 4.66482 34.698H6.59295V36.7505H9.32965V34.698H11.1956C13.3725 34.698 14.3055 34.5736 14.9274 34.076C15.6116 33.5162 15.8604 32.3345 15.8604 30.8417C15.9226 29.5356 15.6738 28.416 14.9896 27.8563ZM6.59295 32.5211H4.66482C3.10988 32.5211 3.23428 32.4589 2.98549 32.2723C2.7367 32.0857 2.6745 31.4637 2.6745 30.9661C2.6745 30.5308 2.7367 29.7844 3.04769 29.66C3.23428 29.4734 3.66966 29.349 4.66482 29.349H6.59295V32.5211ZM12.8749 32.2723C12.6261 32.4589 12.7505 32.5211 11.1956 32.5211H9.32965V29.2868H11.1956C12.1907 29.2868 12.6261 29.4112 12.8127 29.5978C13.0615 29.7844 13.1859 30.4686 13.1859 30.9039C13.1859 31.4637 13.1237 32.0857 12.8749 32.2723Z" fill="url(#paint7_linear)"/>
<defs>
<linearGradient id="paint0_linear" x1="-0.026123" y1="30.4941" x2="100.785" y2="30.4941" gradientUnits="userSpaceOnUse">
<stop stop-color="#0093D0"/>
<stop offset="1" stop-color="#C227B9"/>
</linearGradient>
<linearGradient id="paint1_linear" x1="-0.026123" y1="30.4941" x2="100.785" y2="30.4941" gradientUnits="userSpaceOnUse">
<stop stop-color="#0093D0"/>
<stop offset="1" stop-color="#C227B9"/>
</linearGradient>
<linearGradient id="paint2_linear" x1="-0.026123" y1="30.4941" x2="100.785" y2="30.4941" gradientUnits="userSpaceOnUse">
<stop stop-color="#0093D0"/>
<stop offset="1" stop-color="#C227B9"/>
</linearGradient>
<linearGradient id="paint3_linear" x1="-0.026123" y1="30.4941" x2="100.785" y2="30.4941" gradientUnits="userSpaceOnUse">
<stop stop-color="#0093D0"/>
<stop offset="1" stop-color="#C227B9"/>
</linearGradient>
<linearGradient id="paint4_linear" x1="-0.026123" y1="30.4941" x2="100.785" y2="30.4941" gradientUnits="userSpaceOnUse">
<stop stop-color="#0093D0"/>
<stop offset="1" stop-color="#C227B9"/>
</linearGradient>
<linearGradient id="paint5_linear" x1="-0.026123" y1="30.4941" x2="100.785" y2="30.4941" gradientUnits="userSpaceOnUse">
<stop stop-color="#0093D0"/>
<stop offset="1" stop-color="#C227B9"/>
</linearGradient>
<linearGradient id="paint6_linear" x1="-0.026123" y1="30.4941" x2="100.785" y2="30.4941" gradientUnits="userSpaceOnUse">
<stop stop-color="#0093D0"/>
<stop offset="1" stop-color="#C227B9"/>
</linearGradient>
<linearGradient id="paint7_linear" x1="-0.026123" y1="30.4941" x2="100.785" y2="30.4941" gradientUnits="userSpaceOnUse">
<stop stop-color="#0093D0"/>
<stop offset="1" stop-color="#C227B9"/>
</linearGradient>
</defs>
</svg>
