<svg width="56" height="56" viewBox="0 0 56 56" fill="none" xmlns="http://www.w3.org/2000/svg">
<path d="M42 29.75L45.346 36.2302L52.5 37.2698L47.25 42L48.5993 49L42 45.0625L35.4008 49L36.75 42L31.5 37.2698L38.85 36.2302L42 29.75Z" fill="black"/>
<path d="M21 28H10.5V31.5H21V28Z" fill="black"/>
<path d="M28 21H10.5V24.5H28V21Z" fill="black"/>
<path d="M28 14H10.5V17.5H28V14Z" fill="black"/>
<path d="M28 45.5H7V10.5H49V28H52.5V10.5C52.5 9.57174 52.1312 8.6815 51.4749 8.02513C50.8185 7.36875 49.9283 7 49 7H7C6.07174 7 5.1815 7.36875 4.52513 8.02513C3.86875 8.6815 3.5 9.57174 3.5 10.5V45.5C3.5 46.4283 3.86875 47.3185 4.52513 47.9749C5.1815 48.6312 6.07174 49 7 49H28V45.5Z" fill="black"/>
</svg>
