<svg width="63" height="64" viewBox="0 0 63 64" fill="none" xmlns="http://www.w3.org/2000/svg">
<path fill-rule="evenodd" clip-rule="evenodd" d="M0 23.1992C0 21.9854 0.999485 21 2.23444 21H20.1162C21.3496 21 22.3507 21.9854 22.3507 23.1992V40.7997C22.3507 42.0145 21.3496 43 20.1162 43H2.23444C0.999485 43 0 42.0145 0 40.7997V23.1992ZM59.2127 34.9065C60.7385 34.9065 62.0723 34.7367 62.0723 34.7367L62.2879 37.4347C62.2879 37.4347 60.3739 37.666 58.9333 37.666C55.363 37.666 53.6421 36.7176 53.6421 33.3256V30.6497C53.6421 27.5736 55.0622 26.3097 58.9549 26.3097C60.4165 26.3097 62.1149 26.5417 62.1149 26.5417L61.9233 29.2382C61.9233 29.2382 60.5887 29.0493 59.2127 29.0493C57.2991 29.0493 56.9766 29.6173 56.9766 31.1129V32.8616C56.9766 34.3156 57.342 34.9065 59.2127 34.9065ZM45.8179 29.2864H42.5921L42.3982 26.5002H52.5923L52.3984 29.2864H49.1726V37.5002H45.8179V29.2864ZM35.7546 36.3972L37.5386 32.18H37.7348L38.1052 37.5002H41.3481L40.6085 26.5006H37.474L34.7752 32.75H34.5786L31.7684 26.5006H28.6784L27.9381 37.5002H31.0958L31.4232 32.18H31.6163L33.6212 36.3972H35.7546ZM5.57614 33.6326C5.57614 36.6592 7.30652 39.7132 11.1741 39.7132C15.0448 39.7132 16.777 36.6592 16.777 33.6326C16.777 31.5623 16.0672 29.1787 14.8775 27.2547C13.7288 25.3984 12.3444 24.2898 11.1741 24.2898C10.0053 24.2898 8.62247 25.3984 7.47534 27.2547C6.28639 29.1787 5.57614 31.5623 5.57614 33.6326Z" fill="#ED1C24"/>
<path fill-rule="evenodd" clip-rule="evenodd" d="M11.1742 39.7134C7.30655 39.7134 5.57617 36.6593 5.57617 33.6327C5.57617 31.5625 6.28642 29.1789 7.47537 27.2549C8.6225 25.3985 10.0054 24.2899 11.1742 24.2899C12.3445 24.2899 13.7289 25.3985 14.8775 27.2549C16.0672 29.1789 16.7771 31.5625 16.7771 33.6327C16.7771 36.6593 15.0448 39.7134 11.1742 39.7134Z" fill="white"/>
</svg>
