<svg width="74" height="64" viewBox="0 0 74 64" fill="none" xmlns="http://www.w3.org/2000/svg">
<g clip-path="url(#clip0)">
<path d="M49.8104 35.6017C49.3282 36.4857 48.6853 36.4215 47.9941 36.4215V39.395C47.9941 39.395 48.5728 39.5075 49.4407 39.5075C50.823 39.5075 51.9963 38.9128 52.7035 37.3537C53.4107 35.7946 53.5232 32.9015 53.8769 29.7512H57.2843V39.2182H60.5793V26.9062H50.9034C50.5176 31.0049 50.3086 34.6534 49.8104 35.6017Z" fill="black"/>
<path d="M41.388 26.6172C38.286 26.6172 36.0197 28.5942 35.4893 31.648H33.8177V26.9065H30.5227V39.2023H33.8177V34.4769H35.4893C36.0197 37.5307 38.302 39.5077 41.388 39.5077C44.9402 39.5077 47.4154 36.9039 47.4154 33.0625C47.4154 29.221 44.9402 26.6172 41.388 26.6172ZM41.388 36.5503C39.7004 36.5503 38.5592 35.2002 38.5592 33.0625C38.5592 30.9247 39.7004 29.5746 41.388 29.5746C43.0757 29.5746 44.2169 30.9247 44.2169 33.0625C44.2169 35.2002 43.0757 36.5503 41.388 36.5503Z" fill="black"/>
<path d="M68.1816 26.6172C66.51 26.6172 64.9349 26.8422 63.5526 27.2923V30.2175C63.5526 30.2175 65.3206 29.5425 67.7476 29.5425C70.4479 29.5425 70.7372 30.9087 70.7372 31.5516V31.7766C70.7372 31.7766 69.4032 31.5516 67.9887 31.5516C63.4562 31.5516 62.5239 33.9143 62.5239 35.5216C62.5239 37.1289 63.5205 39.4916 67.1047 39.4916C68.9531 39.4916 70.255 38.6237 70.8819 37.9165H71.0105V39.2023H74V32.307C74 30.1532 73.5178 26.6172 68.1816 26.6172ZM70.7372 35.4413C70.7372 35.4413 69.8853 36.7592 67.8923 36.7592C66.6708 36.7592 66.0761 36.2128 66.0761 35.4252C66.0761 34.6376 66.7029 33.9143 68.9049 33.9143C69.9496 33.9143 70.7372 33.9304 70.7372 33.9304V35.4413Z" fill="black"/>
<path d="M13.4052 38.9935C15.2053 33.5127 19.5129 29.2051 24.9938 27.421C25.3635 27.2924 25.5724 26.8906 25.4438 26.5209C25.3795 26.312 25.2027 26.1512 24.9938 26.0709C19.5129 24.2707 15.2053 19.9792 13.4052 14.4822C13.2766 14.1126 12.8748 13.9036 12.5051 14.0322C12.2961 14.1126 12.1354 14.2733 12.055 14.4822C10.2549 19.9631 5.96338 24.2707 0.48249 26.0548C0.112812 26.1834 -0.0961372 26.5852 0.0324466 26.9549C0.112812 27.1799 0.273541 27.3406 0.48249 27.421C5.96338 29.2212 10.2709 33.5127 12.055 38.9935C12.1836 39.3632 12.5854 39.5561 12.9551 39.4275C13.1801 39.3632 13.3409 39.2025 13.4052 38.9935Z" fill="#BC81FF"/>
</g>
<defs>
<clipPath id="clip0">
<rect width="74" height="25.5078" fill="white" transform="translate(0 14)"/>
</clipPath>
</defs>
</svg>
