<svg width="132" height="64" viewBox="0 0 132 64" fill="none" xmlns="http://www.w3.org/2000/svg">
<path d="M61.0098 27.8574C59.5112 27.8574 58.2724 28.357 57.2933 29.356C56.3342 30.3351 55.8147 31.6139 55.8147 33.1125C55.8147 34.671 56.3542 35.9298 57.4132 36.9089C58.4722 37.888 59.8509 38.3675 61.5493 38.3675C62.8681 38.3675 64.1669 38.0279 65.3258 37.5083V35.4902C64.2068 36.1296 62.8881 36.4693 61.5493 36.4693C59.8909 36.4693 58.3124 35.75 57.9727 33.8318H65.7454C65.8053 33.652 65.8453 33.1325 65.8453 32.6529C65.8453 31.6938 65.6055 30.4949 64.6065 29.396C63.7273 28.3969 62.4285 27.8574 61.0098 27.8574ZM60.9499 29.8356C62.2287 29.8356 63.5874 30.6148 63.7872 32.1734H57.9927C58.2924 30.5749 59.5912 29.8356 60.9499 29.8356Z" fill="black"/>
<path d="M95.0498 27.9531C94.0107 27.9531 92.7719 28.3927 92.0126 29.172V28.1529H89.9346V38.1435H92.0126V33.1282C92.0126 30.7905 93.4712 29.9912 95.1696 29.9912C95.2696 29.9912 95.4094 30.0112 95.5493 30.0312V27.9931C95.3695 27.9731 95.1497 27.9531 95.0498 27.9531Z" fill="black"/>
<path d="M72.1523 33.0087L75.8688 28.1333H73.3512L69.6946 33.0487L73.5709 38.1239H76.0286L72.1123 33.0287L72.1523 33.0087Z" fill="black"/>
<path d="M69.6171 24.0771H67.5391V38.1239H69.6171V24.0771Z" fill="black"/>
<path d="M42.6281 31.2238V30.6843H36.1142V32.6624H40.4502V35.5797C39.4911 35.9593 38.452 36.1591 37.3731 36.1591C35.8745 36.1591 34.6356 35.6596 33.6566 34.7005C32.7374 33.7614 32.2579 32.6025 32.2579 31.1239C32.2579 29.6653 32.7174 28.5064 33.6566 27.5473C34.5957 26.6081 36.0543 26.0886 37.9125 26.0886C39.3712 26.0886 40.7699 26.4283 41.9687 27.0677V24.7899C40.7099 24.2304 39.3512 23.9307 37.9125 23.9307C35.5548 23.9506 33.3968 24.6899 32.098 26.0087C30.7393 27.3674 30 29.1058 30 31.1239C30 33.142 30.7393 34.8803 32.098 36.259C33.4567 37.6178 35.275 38.3171 37.3531 38.3171C39.2513 38.3171 41.0496 37.7776 42.6081 36.8385V35.9393V31.2238H42.6281Z" fill="black"/>
<path d="M53.0535 29.316C52.1544 28.3769 50.8956 27.8574 49.5169 27.8574C48.0183 27.8574 46.7795 28.357 45.8004 29.356C44.8413 30.3351 44.3218 31.6139 44.3218 33.1125C44.3218 34.671 44.8613 35.9298 45.9203 36.9089C46.24 37.1886 46.5796 37.4484 46.9593 37.6482C47.8385 38.1278 48.8775 38.3675 50.0764 38.3675C51.3951 38.3675 52.6939 38.0279 53.8528 37.5083V35.4902C53.593 35.6301 53.3333 35.77 53.0735 35.8699C52.1544 36.2695 51.1154 36.4493 50.0764 36.4493C48.4179 36.4493 46.8394 35.73 46.4997 33.8118H53.0535H54.2524C54.3124 33.632 54.3523 33.1125 54.3523 32.6329C54.3523 31.6738 54.1125 30.475 53.1135 29.376C53.0935 29.376 53.0735 29.356 53.0535 29.316ZM52.2743 32.1734H46.4797C46.7994 30.5948 48.0982 29.8356 49.437 29.8356C50.7158 29.8356 52.0745 30.6148 52.2743 32.1734Z" fill="black"/>
<path d="M111.054 28.1333H108.976V38.1239H111.054V28.1333Z" fill="black"/>
<path d="M110.015 23.7773C109.635 23.7773 109.316 23.8972 109.076 24.1569C108.816 24.4166 108.697 24.7363 108.697 25.1159C108.697 25.4954 108.816 25.8151 109.076 26.0748C109.336 26.3345 109.635 26.4544 110.015 26.4544C110.395 26.4544 110.714 26.3345 110.954 26.0748C111.214 25.8151 111.334 25.4954 111.334 25.1159C111.334 24.7363 111.214 24.4166 110.954 24.1569C110.714 23.8972 110.395 23.7773 110.015 23.7773Z" fill="black"/>
<path d="M131.576 35.3465C131.576 34.7271 131.416 34.2476 131.117 33.8479C130.497 32.9688 129.299 32.5292 127.98 32.1895C127.44 32.0496 126.841 31.9098 126.401 31.67C126.042 31.4502 125.862 31.2304 125.862 30.8308H125.822H125.862C125.862 30.1514 126.701 29.8317 127.72 29.8317C128.939 29.8317 130.098 30.1115 131.117 30.6709V28.5929C130.058 28.1333 128.899 27.8936 127.72 27.8936C126.661 27.8936 125.562 28.1333 124.843 28.6928C124.123 29.2523 123.824 29.9916 123.824 30.9307C123.824 32.8689 125.502 33.6082 127.42 34.0877C127.96 34.2276 128.559 34.3675 128.999 34.6072C129.358 34.827 129.538 35.0468 129.538 35.4464C129.538 36.1458 128.799 36.4855 127.58 36.4855C126.281 36.4855 125.063 36.2657 123.964 35.866V37.8042C125.103 38.1839 126.321 38.4037 127.58 38.4037C128.719 38.4037 129.738 38.1239 130.517 37.5844C130.777 37.4046 130.977 37.1848 131.137 36.965C131.436 36.5054 131.576 35.966 131.576 35.3465Z" fill="black"/>
<path d="M86.3031 30.7709C87.2222 30.0715 87.6618 29.2124 87.6618 28.0335C87.6618 26.9345 87.2222 25.9554 86.4429 25.2161C85.6637 24.4768 84.4848 24.0972 83.3658 24.0972H77.4514V38.124H83.8654C85.0442 38.124 86.2032 37.7443 87.0224 36.985C87.8216 36.2457 88.2412 35.2467 88.2412 34.1077C88.2412 32.7091 87.5419 31.4303 86.3031 30.7709ZM79.5894 26.0154H83.5856C84.7046 26.0154 85.5438 26.8945 85.5438 28.0135C85.5438 29.1524 84.6846 30.0116 83.5856 30.0116H79.5894V26.0154ZM83.9653 36.2257H79.5894V31.9098H83.9653C85.1242 31.9098 86.0433 32.8489 86.0433 34.0678C86.0433 35.2666 85.1242 36.2257 83.9653 36.2257Z" fill="black"/>
<path d="M117.865 29.7917C118.824 29.7917 119.444 30.1314 119.823 30.6509C120.203 31.1704 120.283 31.8298 120.283 32.3693V38.1239H122.361V32.2894C122.361 31.0705 122.061 30.0315 121.362 29.2323C121.342 29.2123 121.342 29.2123 121.322 29.1923C120.623 28.413 119.683 27.8735 118.405 27.8735C117.186 27.8735 116.187 28.3131 115.467 28.8926V28.1333H113.389V38.1239H115.467V32.3693C115.467 31.8298 115.607 31.2304 115.987 30.7308C116.167 30.5111 116.347 30.3112 116.586 30.1714C116.926 29.9316 117.346 29.7917 117.865 29.7917Z" fill="black"/>
<path d="M104.563 29.0924C103.684 28.2732 102.445 27.8735 101.206 27.8735C99.7674 27.8735 98.5486 28.3731 97.5296 29.3921C97.2498 29.6718 97.01 29.9516 96.8102 30.2713C96.7703 30.3312 96.7303 30.4111 96.6903 30.4711C96.2308 31.2504 96.011 32.1495 96.011 33.1286C96.011 34.5872 96.5105 35.846 97.5296 36.8651C98.5486 37.8841 99.7674 38.3836 101.206 38.3836C102.465 38.3836 103.704 37.984 104.563 37.1448V38.1239H106.641V28.1333H104.563V29.0924ZM103.624 35.5064C103.004 36.1258 102.225 36.4255 101.306 36.4255C100.387 36.4255 99.6076 36.1258 98.9882 35.5064C98.3688 34.867 98.069 34.0877 98.069 33.1486C98.069 32.2095 98.3688 31.4302 98.9882 30.8108C99.6076 30.1714 100.387 29.8717 101.306 29.8717C102.225 29.8717 103.004 30.1714 103.624 30.8108C104.243 31.4302 104.543 32.2095 104.543 33.1486C104.543 34.0877 104.243 34.867 103.624 35.5064Z" fill="black"/>
<path d="M13.4017 23.0216C13.0132 23.5514 12.75 24.4057 12.75 25.625V27.1977C12.75 27.7086 12.9239 28.2043 13.243 28.6032L14.774 30.5169C14.8477 30.5058 14.9232 30.5 15 30.5C15.8284 30.5 16.5 31.1716 16.5 32C16.5 32.8284 15.8284 33.5 15 33.5C14.1716 33.5 13.5 32.8284 13.5 32C13.5 31.8073 13.5363 31.623 13.6026 31.4538L12.0717 29.5403C11.5398 28.8753 11.25 28.0492 11.25 27.1977V25.625C11.25 24.2193 11.5493 23.0111 12.1921 22.1346C12.8567 21.2283 13.8369 20.75 15 20.75C16.8815 20.75 18.4917 21.9041 19.1642 23.5418C20.8756 24.0445 22.125 25.6257 22.125 27.5C22.125 27.8788 22.1172 28.2834 22.006 28.6859C23.192 29.3156 24 30.5628 24 32C24 33.4372 23.192 34.6845 22.0059 35.3141C22.1171 35.7166 22.1249 36.1211 22.1249 36.4999C22.1249 38.3742 20.8754 39.9554 19.1641 40.4581C18.4916 42.0957 16.8813 43.2499 14.9999 43.2499C14.51 43.2499 14.0369 43.1713 13.5935 43.0255L14.062 41.6006C14.3561 41.6972 14.6711 41.7499 14.9999 41.7499C16.3574 41.7499 17.5061 40.8476 17.8754 39.6085L18.0075 39.1652L18.463 39.0843C19.6918 38.866 20.6249 37.7911 20.6249 36.4999C20.6249 35.8478 20.5743 35.6094 20.393 35.389C20.1453 35.088 19.8113 34.9752 19.4487 35.0139C19.0688 35.0544 18.6734 35.2648 18.4038 35.6018L17.5224 36.7036C17.5886 36.8729 17.625 37.0572 17.625 37.25C17.625 38.0784 16.9534 38.75 16.125 38.75C15.2966 38.75 14.625 38.0784 14.625 37.25C14.625 36.4216 15.2966 35.75 16.125 35.75C16.2017 35.75 16.2771 35.7558 16.3508 35.7669L17.2325 34.6648C17.7451 34.024 18.5009 33.6065 19.2896 33.5224C19.9366 33.4533 20.6132 33.6109 21.1673 34.0554C21.9529 33.7042 22.5 32.9153 22.5 32C22.5 31.0847 21.9529 30.2957 21.1672 29.9446C20.6131 30.389 19.9366 30.5466 19.2896 30.4775C18.501 30.3933 17.7452 29.9758 17.2326 29.3351L16.351 28.2331C16.2773 28.2442 16.2018 28.25 16.125 28.25C15.2966 28.25 14.625 27.5784 14.625 26.75C14.625 25.9216 15.2966 25.25 16.125 25.25C16.9534 25.25 17.625 25.9216 17.625 26.75C17.625 26.9427 17.5887 27.127 17.5224 27.2962L18.4039 28.398C18.6735 28.735 19.0689 28.9454 19.4488 28.986C19.8113 29.0247 20.1453 28.9119 20.3931 28.6109C20.5744 28.3905 20.625 28.1521 20.625 27.5C20.625 26.2087 19.6919 25.1339 18.4631 24.9156L18.0077 24.8347L17.8755 24.3914C17.5062 23.1522 16.3575 22.25 15 22.25C14.2881 22.25 13.7683 22.5217 13.4017 23.0216Z" fill="black"/>
<path d="M6.47756 36.7038C6.41135 36.873 6.375 37.0573 6.375 37.25C6.375 38.0784 7.04657 38.75 7.875 38.75C8.70343 38.75 9.375 38.0784 9.375 37.25C9.375 36.4216 8.70343 35.75 7.875 35.75C7.79818 35.75 7.72271 35.7558 7.649 35.7669L6.76743 34.6649C6.25482 34.0242 5.49903 33.6067 4.71043 33.5225C4.06341 33.4534 3.38688 33.611 2.83278 34.0554C2.0471 33.7043 1.5 32.9153 1.5 32C1.5 31.0847 2.04708 30.2958 2.83274 29.9446C3.38683 30.3891 4.06337 30.5467 4.71042 30.4776C5.49906 30.3935 6.25491 29.976 6.76755 29.3352L7.64921 28.2331C7.72285 28.2442 7.79825 28.25 7.875 28.25C8.70343 28.25 9.375 27.5784 9.375 26.75C9.375 25.9216 8.70343 25.25 7.875 25.25C7.04657 25.25 6.375 25.9216 6.375 26.75C6.375 26.9428 6.41137 27.1271 6.47763 27.2964L5.59624 28.3982C5.32662 28.7352 4.9312 28.9456 4.55127 28.9861C4.18875 29.0248 3.85469 28.912 3.60698 28.611C3.42567 28.3906 3.37512 28.1522 3.37512 27.5001C3.37512 26.2089 4.3082 25.134 5.53701 24.9157L5.99246 24.8348L6.12459 24.3915C6.49391 23.1524 7.64263 22.2501 9.00012 22.2501C9.3289 22.2501 9.64389 22.3028 9.93801 22.3994L10.4065 20.9745C9.96306 20.8287 9.49002 20.7501 9.00012 20.7501C7.11866 20.7501 5.50843 21.9043 4.83591 23.5419C3.12457 24.0446 1.87512 25.6258 1.87512 27.5001C1.87512 27.8789 1.88291 28.2834 1.99407 28.6859C0.808044 29.3155 0 30.5628 0 32C0 33.4372 0.808009 34.6844 1.994 35.3141C1.88279 35.7166 1.875 36.1212 1.875 36.5C1.875 38.3743 3.12444 39.9555 4.83578 40.4582C5.50831 42.0958 7.11854 43.25 9 43.25C10.1631 43.25 11.1433 42.7717 11.8079 41.8654C12.4507 40.9889 12.75 39.7807 12.75 38.375V36.8023C12.75 35.9508 12.4602 35.1247 11.9283 34.4597L10.3974 32.5462C10.4637 32.377 10.5 32.1927 10.5 32C10.5 31.1716 9.82843 30.5 9 30.5C8.17157 30.5 7.5 31.1716 7.5 32C7.5 32.8284 8.17157 33.5 9 33.5C9.07682 33.5 9.15229 33.4942 9.226 33.4831L10.757 35.3968C11.0761 35.7957 11.25 36.2914 11.25 36.8023V38.375C11.25 39.5943 10.9868 40.4486 10.5983 40.9784C10.2317 41.4783 9.71191 41.75 9 41.75C7.64251 41.75 6.49379 40.8478 6.12446 39.6086L5.99234 39.1653L5.53689 39.0844C4.30808 38.8661 3.375 37.7913 3.375 36.5C3.375 35.8479 3.42555 35.6095 3.60692 35.3891C3.85466 35.0881 4.18871 34.9753 4.55121 35.014C4.93112 35.0546 5.32651 35.265 5.59612 35.602L6.47756 36.7038Z" fill="black"/>
</svg>
