<svg width="33" height="32" viewBox="0 0 33 32" fill="none" xmlns="http://www.w3.org/2000/svg">
<path d="M29.8315 7.757C29.6485 7.17151 29.2094 6.69579 28.6605 6.40305L17.4995 1.06041C17.2067 0.914035 16.8774 0.877441 16.5846 0.877441C16.2919 0.877441 15.9626 0.877441 15.6698 0.950628L4.50882 6.32986C3.95992 6.58601 3.55739 7.06173 3.41102 7.68382L0.666514 19.723C0.556734 20.3451 0.703108 20.9672 1.06904 21.4795L8.79025 31.0304C9.22937 31.4695 9.85146 31.7623 10.4735 31.7989H22.7689C23.4276 31.8721 24.0497 31.5793 24.4522 31.0304L32.1734 21.4795C32.5394 20.9672 32.6857 20.3451 32.6126 19.723L29.8315 7.757Z" fill="#326DE6"/>
<path d="M28.1116 19.2473C28.075 19.2473 28.0384 19.2473 28.0384 19.2107C28.0384 19.1741 27.9652 19.1741 27.8921 19.1741C27.7457 19.1375 27.5993 19.1375 27.4529 19.1375C27.3797 19.1375 27.3066 19.1375 27.2334 19.1009H27.1968C26.7942 19.0643 26.3551 18.9911 25.9526 18.8814C25.8428 18.8448 25.733 18.735 25.6964 18.6252C25.733 18.6252 25.6964 18.6252 25.6964 18.6252L25.4037 18.552C25.5501 17.4908 25.4769 16.393 25.2573 15.3318C25.0012 14.2706 24.5621 13.246 23.9766 12.3311L24.1961 12.1116V12.075C24.1961 11.9652 24.2327 11.8188 24.3059 11.7456C24.6352 11.4529 24.9646 11.2333 25.3305 11.0138C25.4037 10.9772 25.4769 10.9406 25.5501 10.904C25.6964 10.8308 25.8062 10.7576 25.9526 10.6844C25.9892 10.6478 26.0258 10.6478 26.0624 10.6113C26.099 10.5747 26.0624 10.5747 26.0624 10.5381C26.3917 10.2819 26.4649 9.84279 26.2088 9.51345C26.099 9.36708 25.8794 9.2573 25.6964 9.2573C25.5135 9.2573 25.3305 9.33048 25.1841 9.44026L25.1475 9.47686C25.111 9.51345 25.0744 9.55004 25.0378 9.55004C24.928 9.65982 24.8182 9.7696 24.745 9.87938C24.7084 9.95257 24.6352 9.98916 24.5986 10.0258C24.3425 10.3185 24.0132 10.6113 23.6838 10.8308C23.6106 10.8674 23.5374 10.904 23.4642 10.904C23.4277 10.904 23.3545 10.904 23.3179 10.8674H23.2813L22.9885 11.0504C22.6958 10.7576 22.3664 10.4649 22.0737 10.1721C20.7197 9.11092 19.0364 8.45224 17.3166 8.26927L17.28 7.97653V8.01312C17.1702 7.93993 17.1336 7.83015 17.097 7.72037C17.097 7.31785 17.097 6.91532 17.1702 6.4762V6.4396C17.1702 6.36642 17.2068 6.29323 17.2068 6.22004C17.2434 6.07367 17.2434 5.9273 17.28 5.78092V5.56136C17.3166 5.19543 17.0238 4.82949 16.6579 4.7929C16.4383 4.75631 16.2188 4.86609 16.0358 5.04905C15.8894 5.19543 15.8162 5.37839 15.8162 5.56136V5.74433C15.8162 5.8907 15.8528 6.03708 15.8894 6.18345C15.926 6.25664 15.926 6.32982 15.926 6.40301V6.4396C15.9992 6.84213 15.9992 7.24466 15.9992 7.68378C15.9626 7.79356 15.926 7.90334 15.8162 7.97653V8.04971L15.7796 8.34246C15.3771 8.37905 14.9746 8.45224 14.5355 8.52543C12.8156 8.89136 11.2421 9.8062 10.0345 11.087L9.81491 10.9406H9.77831C9.74172 10.9406 9.70513 10.9772 9.63194 10.9772C9.55875 10.9772 9.48557 10.9406 9.41238 10.904C9.08304 10.6478 8.7537 10.3551 8.49754 10.0624C8.46095 9.98916 8.38776 9.95257 8.35117 9.91598C8.24139 9.8062 8.1682 9.69642 8.05842 9.58664C8.02183 9.55004 7.98524 9.55004 7.94864 9.51345C7.91205 9.47686 7.91205 9.47686 7.91205 9.47686C7.76568 9.36708 7.58271 9.29389 7.39974 9.29389C7.18018 9.29389 6.99722 9.36708 6.88743 9.55004C6.66787 9.87938 6.74106 10.3185 7.03381 10.5747C7.0704 10.5747 7.0704 10.6113 7.0704 10.6113C7.0704 10.6113 7.14359 10.6844 7.18018 10.6844C7.28996 10.7576 7.43634 10.8308 7.58271 10.904C7.6559 10.9406 7.72908 10.9772 7.80227 11.0138C8.1682 11.2333 8.53414 11.4529 8.82689 11.7456C8.90007 11.8188 8.97326 11.9652 8.93667 12.075V12.0384L9.15623 12.258C9.11963 12.3311 9.08304 12.3677 9.04645 12.4409C7.91205 14.234 7.43634 16.3564 7.76568 18.4422L7.47293 18.5154C7.47293 18.552 7.43634 18.552 7.43634 18.552C7.39974 18.6618 7.28996 18.735 7.18018 18.8082C6.77765 18.918 6.37513 18.9911 5.93601 19.0277C5.86282 19.0277 5.78963 19.0277 5.71645 19.0643C5.57007 19.0643 5.4237 19.1009 5.27732 19.1009C5.24073 19.1009 5.20414 19.1375 5.13095 19.1375C5.09436 19.1375 5.09436 19.1375 5.05776 19.1741C4.65524 19.2473 4.39908 19.6132 4.47227 20.0158C4.54546 20.3451 4.8748 20.5647 5.20414 20.5281C5.27732 20.5281 5.31392 20.5281 5.3871 20.4915C5.4237 20.4915 5.4237 20.4915 5.4237 20.4549C5.4237 20.4183 5.53348 20.4549 5.57007 20.4549C5.71645 20.4183 5.86282 20.3451 5.9726 20.3085C6.04579 20.2719 6.11897 20.2353 6.19216 20.2353H6.22875C6.63128 20.0889 6.99722 19.9792 7.43634 19.906H7.47293C7.58271 19.906 7.69249 19.9426 7.76568 20.0158C7.80227 20.0158 7.80227 20.0524 7.80227 20.0524L8.13161 20.0158C8.68051 21.6991 9.70513 23.1994 11.1323 24.2972C11.4616 24.5533 11.7544 24.7729 12.1203 24.9559L11.9373 25.212C11.9373 25.2486 11.9739 25.2486 11.9739 25.2486C12.0471 25.3584 12.0471 25.5048 12.0105 25.6145C11.8641 25.9805 11.6446 26.3464 11.425 26.6758V26.7124C11.3884 26.7855 11.3518 26.8221 11.2786 26.8953C11.2055 26.9685 11.1323 27.1149 11.0225 27.2613C10.9859 27.2978 10.9859 27.3344 10.9493 27.371C10.9493 27.371 10.9493 27.4076 10.9127 27.4076C10.7297 27.7736 10.8761 28.2127 11.2055 28.3956C11.2786 28.4322 11.3884 28.4688 11.4616 28.4688C11.7544 28.4688 12.0105 28.2859 12.1569 28.0297C12.1569 28.0297 12.1569 27.9931 12.1935 27.9931C12.1935 27.9565 12.2301 27.9199 12.2667 27.8833C12.3033 27.737 12.3764 27.6272 12.413 27.4808L12.4862 27.2613C12.596 26.8587 12.779 26.4928 12.9619 26.1269C13.0351 26.0171 13.1449 25.9439 13.2547 25.9073C13.2913 25.9073 13.2913 25.9073 13.2913 25.8707L13.4377 25.578C14.4623 25.9805 15.5235 26.1635 16.6213 26.1635C17.28 26.1635 17.9386 26.0903 18.5973 25.9073C18.9999 25.8341 19.4024 25.6877 19.7683 25.578L19.9147 25.8341C19.9513 25.8341 19.9513 25.8341 19.9513 25.8707C20.0611 25.9073 20.1708 25.9805 20.244 26.0903C20.427 26.4562 20.61 26.8221 20.7197 27.2247V27.2613L20.7929 27.4808C20.8295 27.6272 20.8661 27.7736 20.9393 27.8833C20.9759 27.9199 20.9759 27.9565 21.0125 27.9931C21.0125 27.9931 21.0125 28.0297 21.0491 28.0297C21.1955 28.2859 21.4516 28.4688 21.7444 28.4688C21.8541 28.4688 21.9273 28.4322 22.0371 28.3956C22.1835 28.3225 22.3299 28.1761 22.3664 27.9931C22.403 27.8102 22.403 27.6272 22.3299 27.4442C22.3299 27.4076 22.2933 27.4076 22.2933 27.4076C22.2933 27.371 22.2567 27.3344 22.2201 27.2978C22.1469 27.1515 22.0737 27.0417 21.9639 26.9319C21.9273 26.8587 21.8907 26.8221 21.8175 26.7489V26.6758C21.5614 26.3464 21.3784 25.9805 21.2321 25.6145C21.1955 25.5048 21.1955 25.3584 21.2686 25.2486C21.2686 25.212 21.3052 25.212 21.3052 25.212L21.1955 24.9193C23.0617 23.7849 24.4889 22.0284 25.1475 19.9426L25.4403 19.9792C25.4769 19.9792 25.4769 19.9426 25.4769 19.9426C25.5501 19.8694 25.6599 19.8328 25.7696 19.8328H25.8062C26.2088 19.906 26.6113 20.0158 26.9772 20.1621H27.0138C27.087 20.1987 27.1602 20.2353 27.2334 20.2353C27.3797 20.3085 27.4895 20.3817 27.6359 20.4183C27.6725 20.4183 27.7091 20.4549 27.7823 20.4549C27.8189 20.4549 27.8189 20.4549 27.8555 20.4915C27.9286 20.5281 27.9652 20.5281 28.0384 20.5281C28.3678 20.5281 28.6605 20.3085 28.7703 20.0158C28.7337 19.6132 28.441 19.3205 28.1116 19.2473ZM17.5361 18.1129L16.5481 18.5886L15.5601 18.1129L15.3039 17.0517L15.9992 16.1734H17.097L17.7923 17.0517L17.5361 18.1129ZM23.5008 15.7343C23.6838 16.5028 23.7204 17.2713 23.6472 18.0397L20.1708 17.0517C19.8415 16.9785 19.6585 16.6492 19.7317 16.3198C19.7683 16.21 19.8049 16.1369 19.8781 16.0637L22.6226 13.5753C23.0251 14.234 23.3179 14.9659 23.5008 15.7343ZM21.5248 12.2214L18.5241 14.3438C18.268 14.4902 17.9021 14.4536 17.7191 14.1974C17.6459 14.1242 17.6093 14.051 17.6093 13.9413L17.3897 10.2453C18.9999 10.4283 20.427 11.1236 21.5248 12.2214ZM14.9014 10.3551L15.6333 10.2087L15.4503 13.8681C15.4503 14.1974 15.1575 14.4536 14.8282 14.4536C14.7184 14.4536 14.6452 14.417 14.5355 14.3804L11.4982 12.2214C12.4496 11.3065 13.6206 10.6478 14.9014 10.3551ZM10.437 13.5753L13.1449 15.9905C13.4011 16.21 13.4377 16.576 13.2181 16.8321C13.1449 16.9419 13.0717 16.9785 12.9253 17.0151L9.37579 18.0397C9.26601 16.5028 9.63194 14.9293 10.437 13.5753ZM9.81491 19.7596L13.4377 19.1375C13.7304 19.1375 14.0232 19.3205 14.0597 19.6132C14.0963 19.723 14.0963 19.8694 14.0231 19.9792L12.6326 23.3458C11.3518 22.5041 10.3272 21.2233 9.81491 19.7596ZM18.1216 24.2972C17.6093 24.407 17.097 24.4802 16.5481 24.4802C15.7796 24.4802 14.9746 24.3338 14.2427 24.1142L16.0358 20.8574C16.2188 20.6378 16.5115 20.5647 16.7677 20.711C16.8774 20.7842 16.9506 20.8574 17.0604 20.9672L18.8169 24.1508C18.5973 24.1874 18.3778 24.224 18.1216 24.2972ZM22.586 21.1136C22.0371 21.9918 21.2686 22.7603 20.3904 23.3092L18.9633 19.8694C18.8901 19.5766 19.0364 19.2839 19.2926 19.1741C19.4024 19.1375 19.5122 19.1009 19.6219 19.1009L23.2813 19.723C23.0983 20.2353 22.8788 20.711 22.586 21.1136Z" fill="white"/>
</svg>
