<svg width="31" height="64" viewBox="0 0 31 64" fill="none" xmlns="http://www.w3.org/2000/svg">
<path fill-rule="evenodd" clip-rule="evenodd" d="M0.933159 33.5988C1.16454 35.5193 2.11321 37.1621 3.33953 38.4578C7.57383 42.8772 15.3251 46.2554 21.3179 46.1397C23.1227 46.1166 24.9506 45.7001 26.5009 44.5432C28.2363 43.2474 29.2543 41.3964 29.6477 39.4296C30.9434 33.1592 30.365 26.4953 27.2876 20.5488C26.4546 18.9291 25.0895 17.564 23.2847 16.8004C21.4799 16.0137 19.5594 15.9675 17.8009 16.4765C11.3685 18.3507 6.13926 22.5156 2.48342 27.7911C1.34965 29.4339 0.678639 31.4469 0.933159 33.5988ZM11.4149 25.3615L11.0678 26.6572H12.5023L11.1835 31.5394C11.0215 32.0021 10.6513 32.2798 10.096 32.2335H9.56379L9.21672 33.5293H9.72576C10.4199 33.5524 11.2066 33.483 11.8082 32.8814L11.8313 32.8583C12.1784 32.5112 12.4792 32.0716 12.618 31.5162L14.2609 25.3615H11.4149ZM21.3643 30.9378H22.7757L23.1228 29.6652H21.7114L22.4055 27.0737H20.9709L19.5827 32.2335H16.3896C15.0707 32.2335 14.7236 31.4237 14.9319 30.313C15.1401 29.2024 16.1351 28.3 17.1069 28.2769C17.8936 28.2769 18.2869 28.7396 18.2869 29.2718C18.2869 29.4106 18.2638 29.5726 18.2406 29.642H16.459L16.1119 30.9146H19.3513C19.5132 30.475 19.6521 29.8965 19.6521 29.4569C19.6521 28.1149 18.7728 27.0505 17.1763 27.0505C15.0244 27.0505 13.5436 28.971 13.5436 30.7989C13.5436 32.4649 14.6311 33.5061 16.3433 33.5061H16.3896H19.2587C19.0115 34.405 19.5501 35.1512 20.4081 35.2145L16.9449 37.5322L17.2689 38.0412L21.5032 35.2183H21.6651L21.7003 35.087L23.7244 33.7375L19.467 38.18L19.9066 38.5965L21.2718 37.1388L19.6984 40.5864L20.2306 40.8409L21.9891 37.0463L21.5726 36.8612L24.6037 33.645L24.2798 33.3442L26.2928 32.0021L25.9689 31.4931L21.9409 34.1888L22.0122 33.9226H20.9941C20.7858 33.8994 20.647 33.7143 20.7164 33.5061L21.3643 30.9378Z" fill="#00C3FF"/>
<path d="M3.33953 38.4578C2.11321 37.1621 1.16454 35.5193 0.933159 33.5988C0.678639 31.4469 1.34965 29.4339 2.48342 27.7911C6.13926 22.5156 11.3685 18.3507 17.8009 16.4765C19.5594 15.9675 21.4799 16.0137 23.2847 16.8004C25.0895 17.564 26.4546 18.9291 27.2876 20.5488C30.365 26.4953 30.9434 33.1592 29.6477 39.4296C29.2543 41.3964 28.2363 43.2474 26.5009 44.5432C24.9506 45.7001 23.1227 46.1166 21.3179 46.1397C15.3251 46.2554 7.57383 42.8772 3.33953 38.4578Z" fill="#00C3FF"/>
<path d="M3.17745 36.6531C2.13623 35.2648 1.41895 33.5989 1.41895 31.7478C1.41895 29.6654 2.27506 27.8143 3.54766 26.3797C7.64313 21.7521 13.1037 18.3508 19.4899 17.3095C21.2253 17.0319 23.0532 17.2864 24.696 18.2351C26.3388 19.1837 27.4957 20.6414 28.0973 22.2843C30.388 28.3233 30.1797 34.7558 28.213 40.6097C27.6114 42.4377 26.4314 44.1036 24.6266 45.1448C23.0069 46.0704 21.2021 46.2555 19.4899 46.0704C13.7516 45.4919 6.69446 41.3733 3.17745 36.6531Z" fill="#0E0E2B"/>
<path d="M24.2799 33.3442L26.2929 32.0022L25.969 31.4932L16.9451 37.5322L17.269 38.0413L23.7246 33.7376L19.4671 38.1801L19.9068 38.5966L21.2719 37.1389L19.6985 40.5865L20.2307 40.841L21.9892 37.0463L21.5727 36.8612L24.6038 33.645L24.2799 33.3442Z" fill="#00C3FF"/>
<path d="M21.3644 30.9376H22.7758L23.1229 29.665H21.7114L22.4056 27.0735H20.971L19.5827 32.2333H16.3897C15.0708 32.2333 14.7237 31.4235 14.932 30.3129C15.1402 29.2022 16.1351 28.2998 17.1069 28.2767C17.8936 28.2767 18.287 28.7395 18.287 29.2717C18.287 29.4105 18.2639 29.5724 18.2407 29.6419H16.4591L16.112 30.9145H19.3513C19.5133 30.4748 19.6521 29.8964 19.6521 29.4568C19.6521 28.1147 18.7729 27.0504 17.1764 27.0504C15.0245 27.0504 13.5437 28.9709 13.5437 30.7988C13.5437 32.4647 14.6312 33.5059 16.3434 33.5059C16.3665 33.5059 16.3665 33.5059 16.3897 33.5059H19.2588C19.0043 34.4315 19.5827 35.195 20.4851 35.2182H21.6652L22.0122 33.9224H20.9942C20.7859 33.8993 20.6471 33.7142 20.7165 33.5059L21.3644 30.9376Z" fill="white"/>
<path d="M11.4149 25.3613L11.0679 26.6571H12.5024L11.1835 31.5392C11.0216 32.002 10.6514 32.2797 10.096 32.2334H9.56387L9.2168 33.5291H9.72584C10.42 33.5523 11.2067 33.4828 11.8083 32.8812L11.8314 32.8581C12.1785 32.511 12.4793 32.0714 12.6181 31.5161L14.2609 25.3613H11.4149Z" fill="white"/>
</svg>
