<svg width="143" height="64" viewBox="0 0 143 64" fill="none" xmlns="http://www.w3.org/2000/svg">
<path d="M82.8452 27.3081H91.0749V29.1612H90.487C90.487 29.1612 90.3695 28.2149 89.4289 28.2149H87.979V36.731H85.9411V28.1755H84.452C83.6682 28.1755 83.4722 28.8063 83.3939 29.1217H82.806V27.3081H82.8452Z" fill="#46433E"/>
<path d="M100.049 27.3081H101.538V36.731H99.5396V30.1468L94.641 36.731H93.1518V29.0429C93.1518 27.9389 92.2113 27.7812 92.2113 27.7812V27.3081H95.1505V33.9318L100.049 27.3081Z" fill="#46433E"/>
<path d="M56.9805 36.731H54.394L52.5522 33.2221C52.5522 33.2221 52.0035 32.1576 51.4157 32.1576H50.6711V36.6916H48.6333V29.0429C48.6333 27.9389 47.6536 27.8601 47.6536 27.8601V27.3081H50.6711V31.2508H51.5725C51.5725 31.2508 52.1603 31.2113 52.6697 30.3834C54.2765 27.7812 54.0413 27.3081 54.7467 27.3081H56.7454V27.9389C55.3738 27.9389 54.9427 30.7776 53.6103 31.6844C54.2765 31.921 54.5116 32.5518 55.9616 35.1934C55.9616 35.1934 56.3143 36.1002 57.0197 36.1002V36.731H56.9805Z" fill="#46433E"/>
<path d="M105.81 31.0142H110.669V30.5016C110.669 29.1611 109.572 28.0572 108.24 28.0572C106.907 28.0572 105.81 29.1611 105.81 30.5016V31.0142ZM112.394 34.6809C111.453 35.9819 110.042 36.8887 108.24 36.8887C105.771 36.8887 103.38 34.9568 103.38 32.3941V31.8421C103.38 29.0823 105.575 27.1504 108.24 27.1504C110.904 27.1504 112.981 29.3583 112.981 31.9999H105.81V33.5375C105.81 34.878 106.907 35.9819 108.475 35.9819C109.846 35.9819 110.787 35.3905 111.571 34.602L112.394 34.6809Z" fill="#46433E"/>
<path d="M63.9954 27.1504C62.8589 27.1504 61.7616 27.6629 61.2522 28.3332V27.3081H58.2738V27.8601C58.2738 27.8601 59.2143 28.0178 59.2143 29.0429V41.0285H61.2522V35.7059C62.1927 36.8099 63.4467 36.8493 63.8386 36.8493C66.4643 36.8099 68.267 34.7597 68.267 32.197V31.645C68.267 28.8852 66.5818 27.1504 63.9954 27.1504ZM65.8764 33.4981C65.8764 34.6809 65.0143 35.8242 63.7602 35.9031H63.5643C62.4278 35.9031 61.4481 35.0357 61.2913 34.1683V30.068C61.3697 29.1217 62.3494 28.0572 63.5643 28.0572H63.9562C63.9562 28.0572 65.8372 28.1755 65.8764 30.4622V33.4981Z" fill="#46433E"/>
<path d="M33.0754 27.1504C29.5484 27.1504 28.0984 29.9102 28.0984 31.6844V32.473C28.0984 34.5626 30.1362 36.8493 33.0754 36.8493C35.8186 36.8493 38.0915 34.7991 38.0915 32.3941V31.7633C38.0915 29.3977 36.2105 27.1504 33.0754 27.1504ZM35.6618 33.4192C35.6618 34.7597 34.6037 35.9819 33.0754 35.9819C31.547 35.9819 30.5281 34.7991 30.5281 33.4192V30.4228C30.5281 29.0823 31.6646 28.0178 33.0754 28.0178C34.6037 28.0178 35.6618 29.1217 35.6618 30.4622V33.4192Z" fill="#46433E"/>
<path d="M81.4343 27.3081H78.4559V27.8601C78.4559 27.8601 79.4357 28.0178 79.4357 29.1217V36.7705H81.4343V27.3081Z" fill="#46433E"/>
<path d="M72.6953 30.8959V27.3081H69.7561V27.8601C69.7561 27.8601 70.6574 27.9389 70.6574 29.0429V36.731H75.2425C77.0452 36.731 78.2993 35.6271 78.2993 34.0895V33.6163C78.2993 31.921 77.0452 30.8565 75.125 30.8565H72.6953V30.8959ZM72.6953 35.7848V31.8422H74.4196C75.3601 31.8422 76.1047 32.5913 76.1047 33.6952V34.0895C76.1047 34.9963 75.2817 35.7848 74.3804 35.7848H72.6953Z" fill="#46433E"/>
<path d="M38.4442 27.3081H46.6739V29.1612H46.086C46.086 29.1612 45.9685 28.2149 45.0279 28.2149H43.578V36.731H41.5401V28.1755H40.051C39.2672 28.1755 39.0712 28.8063 38.9929 29.1217H38.405V27.3081H38.4442Z" fill="#46433E"/>
<path d="M10.9337 21C4.8986 21 0 25.9283 0 32C0 38.0717 4.8986 43 10.9337 43C16.9688 43 21.8674 38.0717 21.8674 32C21.8674 25.9283 16.9688 21 10.9337 21ZM8.62154 37.4014C8.69992 37.4409 9.01343 37.638 9.09181 38.0323C9.131 38.3082 9.09181 38.5448 8.97424 38.7814C8.81748 39.0573 8.54316 39.2151 8.19046 39.2151C7.99452 39.2151 7.83776 39.1756 7.64182 39.0968L7.13237 38.8602C4.8986 37.6774 3.52699 35.2724 3.52699 32.5914V31.4875C3.52699 28.8065 4.8986 26.4014 7.17155 25.2186C7.21074 25.2186 7.68101 24.9821 7.68101 24.9821C7.83776 24.9032 8.03371 24.8638 8.22965 24.8638C8.58235 24.8638 8.85667 25.0215 9.01343 25.2975C9.13099 25.534 9.17018 25.7706 9.13099 26.0466C9.01343 26.4409 8.62154 26.5986 8.62154 26.5986C7.32831 27.19 6.46616 28.5305 6.46616 30.0287V33.9319C6.46616 35.4695 7.32831 36.81 8.62154 37.4014ZM18.3404 32.552C18.3404 35.233 16.9688 37.638 14.735 38.8208L14.2255 39.0573C14.0688 39.1362 13.8728 39.1756 13.6769 39.1756C13.3242 39.1756 13.0499 39.0179 12.8931 38.7419C12.7756 38.5054 12.7364 38.2688 12.7756 37.9928C12.8539 37.5986 13.1674 37.4014 13.2458 37.362C14.5782 36.7706 15.4012 35.3907 15.4012 33.9319V30.0681C15.4012 28.5699 14.5391 27.2294 13.2458 26.638C13.2458 26.638 12.8539 26.4409 12.7756 26.0072C12.7364 25.7312 12.7756 25.4946 12.8931 25.2581C13.0499 24.9821 13.3242 24.8244 13.6769 24.8244C13.8728 24.8244 14.0296 24.8638 14.2255 24.9427C14.2255 24.9427 14.6958 25.1792 14.735 25.1792C16.9688 26.362 18.3796 28.767 18.3796 31.448V32.552H18.3404Z" fill="#65BDE4"/>
<path d="M127.089 32.1578H126.541V33.8137H127.05C127.677 33.8137 128.069 33.5378 128.069 32.9858C128.069 32.4338 127.716 32.1578 127.089 32.1578ZM127.011 34.3657H125.875V29.7134H128.265L128.343 30.3048H126.502V31.6059H127.089C128.069 31.6059 128.657 32.079 128.657 32.9464C128.696 33.8926 128.03 34.3657 127.011 34.3657Z" fill="#46433E"/>
<path d="M130.734 32.3943H132.223L131.478 30.4229L130.734 32.3943ZM131.165 29.6738H131.792L133.595 34.2867L132.968 34.405L132.419 32.9462H130.538L130.029 34.3262H129.362L131.165 29.6738Z" fill="#46433E"/>
<path d="M137.553 34.3657V32.1972H135.201V34.3657H134.574V29.7134H135.201V31.6453H137.553V29.7134H138.18V34.3657H137.553Z" fill="#46433E"/>
<path d="M142.099 29.7134L140.178 31.803V29.7134H139.551V34.3657H140.178V32.0001L142.334 34.4051L143 34.2474L140.845 31.8818L142.882 29.7134H142.099Z" fill="#46433E"/>
<path d="M119.643 21H119.252V43H119.643V21Z" fill="#46433E"/>
</svg>
