<svg width="32" height="32" viewBox="0 0 32 32" fill="none" xmlns="http://www.w3.org/2000/svg">
<g clip-path="url(#clip0)">
<path d="M14.4 3.65C14.4 3.65 14.4 3.7 14.35 3.8C14.2 3.85 14.1 3.9 13.95 3.9C13.75 3.95 13.6 4 13.4 4.1C13.2 4.15 13.05 4.25 12.85 4.3C12.5 4.45 12.15 4.65 11.8 4.85C11.45 5.05 11.1 5.25 10.8 5.5C10.75 5.5 10.7 5.45 10.7 5.45C7.35 4.2 4.4 5.7 4.4 5.7C4.15 9.25 5.75 11.5 6.05 11.9C5.95 12.1 5.9 12.35 5.85 12.55C5.6 13.35 5.4 14.2 5.3 15.05C5.3 15.15 5.25 15.3 5.25 15.4C2.15 16.9 1.25 20.05 1.25 20.05C3.8 23 6.8 23.2 6.8 23.2C7.2 23.9 7.6 24.55 8.1 25.15C8.3 25.4 8.55 25.65 8.75 25.9C7.8 28.6 8.9 30.8 8.9 30.8C11.75 30.9 13.65 29.55 14.05 29.25C14.35 29.35 14.6 29.45 14.9 29.5C15.8 29.75 16.7 29.85 17.6 29.9C17.8 29.9 18.05 29.9 18.25 29.9H18.35H18.4H18.55H18.7C20.05 31.8 22.4 32.1 22.4 32.1C24.1 30.3 24.2 28.55 24.2 28.2C24.2 27.85 24.2 28.2 24.2 28.15C24.2 28.1 24.2 28.1 24.2 28.1C24.2 28.05 24.2 28.05 24.2 28C24.55 27.75 24.9 27.5 25.2 27.2C25.85 26.6 26.45 25.9 26.95 25.15C27 25.1 27.05 25 27.1 24.95C29 25.05 30.35 23.75 30.35 23.75C30.05 21.75 28.9 20.8 28.65 20.6C28.4 20.4 28.65 20.6 28.65 20.6C28.65 20.6 28.6 20.6 28.6 20.55C28.6 20.45 28.6 20.3 28.65 20.2C28.65 20 28.65 19.75 28.65 19.55V19.4V19.3V19.25C28.65 19.2 28.65 19.2 28.65 19.2V19.05V18.85C28.65 18.8 28.65 18.75 28.65 18.7C28.65 18.65 28.65 18.6 28.65 18.55V18.4V18.25C28.6 18.05 28.6 17.8 28.55 17.6C28.35 16.75 28 15.95 27.55 15.2C27.1 14.45 26.55 13.8 25.95 13.3C25.35 12.75 24.65 12.3 23.9 12C23.15 11.65 22.4 11.45 21.65 11.35C21.25 11.3 20.9 11.3 20.5 11.3H20.35H20.3H20.25H20.2H20.05C20 11.3 19.95 11.3 19.9 11.3C19.7 11.3 19.5 11.35 19.35 11.4C18.6 11.55 17.9 11.8 17.25 12.2C16.6 12.6 16.1 13.05 15.65 13.6C15.2 14.15 14.85 14.7 14.6 15.35C14.35 15.95 14.25 16.6 14.2 17.2C14.2 17.35 14.2 17.5 14.2 17.65C14.2 17.7 14.2 17.75 14.2 17.75V17.85C14.2 17.9 14.2 18 14.2 18.05C14.25 18.35 14.3 18.65 14.35 18.95C14.5 19.5 14.8 20.05 15.1 20.5C15.45 20.95 15.8 21.3 16.25 21.6C16.65 21.9 17.1 22.1 17.55 22.2C18 22.35 18.45 22.4 18.85 22.4C18.9 22.4 18.95 22.4 19 22.4C19.05 22.4 19.05 22.4 19.1 22.4H19.2C19.25 22.4 19.3 22.4 19.35 22.4C19.35 22.4 19.35 22.4 19.4 22.4H19.45C19.5 22.4 19.5 22.4 19.55 22.4C19.6 22.4 19.65 22.4 19.7 22.35C19.75 22.35 19.8 22.35 19.85 22.3C19.95 22.3 20.05 22.25 20.15 22.2C20.35 22.15 20.5 22.05 20.65 22C20.8 21.9 20.95 21.85 21.1 21.75C21.15 21.7 21.2 21.7 21.2 21.65C21.35 21.55 21.35 21.35 21.25 21.2C21.15 21.1 21 21.05 20.85 21.1C20.8 21.1 20.8 21.15 20.75 21.15C20.65 21.2 20.5 21.25 20.35 21.3C20.2 21.35 20.1 21.4 19.95 21.4C19.9 21.4 19.8 21.4 19.75 21.45C19.7 21.45 19.7 21.45 19.65 21.45C19.6 21.45 19.55 21.45 19.55 21.45C19.5 21.45 19.5 21.45 19.45 21.45C19.4 21.45 19.35 21.45 19.3 21.45H19.25H19.2C19.15 21.45 19.1 21.45 19.1 21.45C18.8 21.4 18.45 21.3 18.15 21.15C17.85 21 17.55 20.8 17.25 20.55C17 20.3 16.75 20 16.55 19.7C16.35 19.35 16.25 19 16.15 18.6C16.1 18.4 16.1 18.2 16.1 18C16.1 17.95 16.1 17.9 16.1 17.85V17.8C16.1 17.75 16.1 17.75 16.1 17.7C16.1 17.6 16.15 17.5 16.15 17.4C16.3 16.55 16.7 15.75 17.4 15.1C17.55 14.95 17.75 14.8 17.95 14.65C18.15 14.5 18.35 14.4 18.55 14.3C18.75 14.2 19 14.1 19.2 14.05C19.4 14 19.65 13.95 19.9 13.95C20 13.95 20.15 13.95 20.25 13.95C20.3 13.95 20.3 13.95 20.35 13.95H20.45H20.5H20.6C20.85 13.95 21.1 14 21.35 14.05C21.85 14.15 22.35 14.35 22.8 14.6C23.7 15.1 24.45 15.9 24.95 16.8C25.2 17.25 25.35 17.75 25.45 18.3C25.45 18.45 25.5 18.55 25.5 18.7V18.8V18.9C25.5 18.95 25.5 18.95 25.5 19C25.5 19.05 25.5 19.05 25.5 19.1V19.2V19.3C25.5 19.35 25.5 19.45 25.5 19.55C25.5 19.7 25.5 19.85 25.45 20C25.45 20.15 25.4 20.3 25.4 20.4C25.35 20.55 25.35 20.7 25.3 20.8C25.25 21.1 25.15 21.35 25.05 21.6C24.85 22.15 24.55 22.65 24.2 23.1C23.5 24.05 22.6 24.8 21.55 25.3C21 25.55 20.45 25.7 19.9 25.8C19.6 25.85 19.3 25.9 19.05 25.9H19H18.95H18.85H18.7H18.65C18.7 25.9 18.65 25.9 18.65 25.9H18.6C18.45 25.9 18.3 25.9 18.15 25.9C17.55 25.85 16.9 25.75 16.35 25.55C15.75 25.4 15.2 25.15 14.65 24.85C13.55 24.25 12.6 23.45 11.85 22.5C11.45 22 11.15 21.5 10.85 20.95C10.55 20.4 10.35 19.85 10.2 19.25C10.05 18.65 9.95 18.1 9.9 17.5V17.4V17.35V17.3V17.2V17V16.95V16.8V16.75V16.7C9.9 16.65 9.9 16.55 9.9 16.5C9.9 16.2 9.95 15.9 9.95 15.6C10 15.3 10.05 15 10.1 14.7C10.15 14.4 10.25 14.1 10.3 13.8C10.45 13.2 10.7 12.65 10.95 12.1C11.45 11 12.1 10.05 12.9 9.3C13.1 9.1 13.3 8.95 13.5 8.75C13.7 8.6 13.95 8.4 14.15 8.25C14.35 8.1 14.6 7.95 14.85 7.85C14.95 7.8 15.1 7.75 15.2 7.65C15.25 7.6 15.3 7.6 15.4 7.55C15.45 7.5 15.5 7.5 15.6 7.45C15.85 7.35 16.1 7.25 16.35 7.15C16.4 7.15 16.5 7.1 16.55 7.1C16.6 7.1 16.7 7.05 16.75 7.05C16.9 7 17 7 17.15 6.95C17.2 6.95 17.3 6.9 17.35 6.9C17.4 6.9 17.5 6.85 17.55 6.85C17.6 6.85 17.7 6.85 17.75 6.8H17.85H17.95C18 6.8 18.1 6.8 18.15 6.75C18.25 6.75 18.3 6.75 18.4 6.7C18.45 6.7 18.55 6.7 18.65 6.65C18.7 6.65 18.75 6.65 18.8 6.65H18.9H18.95H19C19.1 6.65 19.15 6.65 19.25 6.65H19.35C19.35 6.65 19.4 6.65 19.35 6.65H19.4C19.45 6.65 19.55 6.65 19.6 6.65C19.85 6.65 20.1 6.65 20.35 6.65C20.85 6.65 21.35 6.75 21.85 6.8C22.85 7 23.75 7.3 24.6 7.7C25.45 8.1 26.2 8.6 26.85 9.15C26.9 9.2 26.95 9.2 26.95 9.25C27 9.3 27.05 9.3 27.05 9.35C27.15 9.4 27.2 9.5 27.3 9.55C27.4 9.6 27.45 9.7 27.5 9.75C27.55 9.8 27.65 9.9 27.7 9.95C27.95 10.25 28.25 10.55 28.45 10.85C28.9 11.45 29.3 12.05 29.55 12.6C29.55 12.65 29.6 12.65 29.6 12.7C29.6 12.75 29.65 12.75 29.65 12.8C29.7 12.85 29.7 12.95 29.75 13C29.8 13.05 29.8 13.15 29.85 13.2C29.9 13.25 29.9 13.35 29.95 13.4C30.05 13.65 30.15 13.9 30.25 14.15C30.4 14.55 30.5 14.9 30.55 15.2C30.6 15.3 30.7 15.4 30.8 15.4C30.95 15.4 31.05 15.3 31.05 15.15C31.05 14.85 31.05 14.45 31 14C30.95 13.45 30.85 12.85 30.7 12.15C30.5 11.45 30.25 10.7 29.85 9.95C29.45 9.2 28.95 8.35 28.3 7.6C28.05 7.3 27.75 7 27.45 6.7C27.9 4.9 26.9 3.35 26.9 3.35C25.2 3.25 24.1 3.9 23.7 4.2C23.65 4.15 23.55 4.15 23.5 4.1C23.2 4 22.9 3.85 22.6 3.75C22.3 3.65 21.95 3.55 21.65 3.5C21.35 3.4 21 3.35 20.65 3.3C20.6 3.3 20.55 3.3 20.45 3.25C19.4 1 17.25 0 17.25 0C14.85 1.5 14.4 3.65 14.4 3.65Z" fill="url(#paint0_linear)"/>
</g>
<defs>
<linearGradient id="paint0_linear" x1="1.26655" y1="16.0008" x2="30.7334" y2="16.0008" gradientUnits="userSpaceOnUse">
<stop stop-color="#FFF200"/>
<stop offset="1" stop-color="#F15A29"/>
</linearGradient>
<clipPath id="clip0">
<rect width="32" height="32" fill="white"/>
</clipPath>
</defs>
</svg>
