<svg width="90" height="64" viewBox="0 0 90 64" fill="none" xmlns="http://www.w3.org/2000/svg">
<path d="M64.5218 24.0269H62.4453V38.1378H64.5218V24.0269Z" fill="#333333"/>
<path d="M68.0352 35.5889C67.2583 35.5889 66.6326 36.214 66.6326 36.9903C66.6326 37.7666 67.2583 38.3918 68.0352 38.3918C68.8122 38.3918 69.4379 37.7666 69.4379 36.9903C69.4379 36.214 68.8122 35.5889 68.0352 35.5889Z" fill="#333333"/>
<path d="M73.4948 33.2254C73.4948 31.5423 74.5055 30.0996 76.4651 30.0996H77.7027V28.1348H76.4651C74.9318 28.1348 74.2305 28.6225 73.5154 29.4332L73.5016 29.4538V28.1348H71.4458V38.1306H73.4948C73.4948 38.1237 73.4948 33.9055 73.4948 33.2254Z" fill="#333333"/>
<path d="M60.1898 28.1348H58.1133V38.1306H60.1898V28.1348Z" fill="#333333"/>
<path d="M59.1517 26.4792C59.9286 26.4792 60.5543 25.854 60.5543 25.0777C60.5543 24.3014 59.9217 23.6763 59.1517 23.6763C58.3747 23.6763 57.749 24.3014 57.749 25.0777C57.749 25.854 58.3816 26.4792 59.1517 26.4792Z" fill="#333333"/>
<path d="M53.8231 29.1449C53.0255 28.3343 51.8016 27.8809 50.5846 27.8809C47.6831 27.8809 45.3247 30.2373 45.3247 33.1364C45.3247 36.0355 47.6831 38.3919 50.5846 38.3919C51.8016 38.3919 53.0874 37.8698 53.8231 37.0454V38.1377H55.8652V28.135H53.8231V29.1449ZM50.6534 36.3034C48.8657 36.3034 47.5043 34.9294 47.5043 33.1364C47.5043 31.3433 48.8657 29.9831 50.6534 29.9831C52.4411 29.9831 53.8506 31.2609 53.8506 33.1364C53.8506 35.0119 52.4411 36.3034 50.6534 36.3034Z" fill="#333333"/>
<path d="M83.4507 38.3916C84.3789 38.3916 85.5616 37.8901 86.3041 37.0382C86.311 37.4161 86.3041 37.7596 86.3041 38.1306H88.3462V33.7681V28.1348H86.2973V33.6239C86.2973 35.0459 85.2109 36.3719 83.5814 36.3719C82.1581 36.3719 81.1474 35.3414 81.1474 33.8643V28.1416H79.0984V34.0361C79.1053 36.6741 80.5285 38.3916 83.4507 38.3916Z" fill="#333333"/>
<path d="M39.3291 27.8809C37.9677 27.8809 36.6338 28.4992 35.8225 29.4747C35.0799 28.4923 34.0004 27.8809 32.5496 27.8809C31.367 27.8809 30.5213 28.4098 30.0675 28.8358V28.135H28.0254V38.1308H30.0675V32.2845C30.0675 30.9792 31.1332 29.9212 32.4327 29.9212C33.7322 29.9212 34.798 30.9861 34.798 32.2845V38.1308H36.8401V32.2845C36.8401 30.9792 37.9058 29.9212 39.2053 29.9212C40.5048 29.9212 41.5706 30.9861 41.5706 32.2845V38.1308H43.6127V32.2845C43.6264 29.6052 41.8868 27.8809 39.3291 27.8809Z" fill="#333333"/>
<path d="M66.2957 42.7543L66.282 42.768V41.9917H65.6838H65.0787H64.9756V47.8586H65.0787H66.282C66.282 47.8518 66.282 45.5091 66.282 45.1107C66.282 44.1214 66.8733 43.2764 68.0215 43.2764H68.7435V41.9917H68.0215C67.1277 41.9917 66.7151 42.2802 66.2957 42.7543Z" fill="#333333"/>
<path d="M80.3428 45.2068C80.3428 46.148 79.5864 46.7113 78.8507 46.7113C78.0738 46.7113 77.5237 46.148 77.5237 45.3442V41.9985H76.2104V45.4404C76.2104 47.0686 77.1455 48.0098 78.7682 48.0098C79.2976 48.0098 79.9233 47.7418 80.3359 47.3365C80.3359 47.4395 80.3359 47.5426 80.3359 47.6456V47.8655H81.6423V41.9985H80.329L80.3428 45.2068Z" fill="#333333"/>
<path d="M72.147 41.8472C70.4487 41.8472 69.0667 43.228 69.0667 44.9249C69.0667 46.6218 70.4487 48.0027 72.147 48.0027C73.8453 48.0027 75.2273 46.6218 75.2273 44.9249C75.2273 43.228 73.8521 41.8472 72.147 41.8472ZM72.147 46.6974C71.1706 46.6974 70.373 45.9004 70.373 44.9249C70.373 43.9494 71.1706 43.1525 72.147 43.1525C73.1233 43.1525 73.9209 43.9494 73.9209 44.9249C73.9209 45.9004 73.1302 46.6974 72.147 46.6974Z" fill="#333333"/>
<path d="M86.0496 41.8472C85.3758 41.8472 84.7226 42.0807 84.262 42.4792V41.9914H82.9556V49.8782H84.262V47.3363C84.702 47.7485 85.3827 48.0095 86.0496 48.0095C87.7479 48.0095 89.13 46.6287 89.13 44.9318C89.13 43.228 87.7479 41.8472 86.0496 41.8472ZM86.0084 46.6699C84.9839 46.6699 84.2413 45.9348 84.2413 44.9249C84.2413 43.915 84.9839 43.1868 86.0084 43.1868C86.9985 43.1868 87.7479 43.9356 87.7479 44.9249C87.7479 45.9211 86.9985 46.6699 86.0084 46.6699Z" fill="#333333"/>
<path d="M62.3695 42.4792C61.9088 42.0807 61.2556 41.8472 60.5818 41.8472C58.8835 41.8472 57.5015 43.228 57.5015 44.9249C57.5015 46.6218 58.8835 48.0027 60.5818 48.0027C61.2487 48.0027 61.9294 47.7416 62.3695 47.3294V47.4462C62.3488 48.6484 61.7644 49.2599 60.623 49.2599H60.6093C59.963 49.2599 59.3923 49.0125 58.8629 48.4973L58.8147 48.4492L57.8659 49.356L57.9071 49.4041C58.3953 49.9743 59.3854 50.627 60.5749 50.627C60.5955 50.627 60.6162 50.627 60.6368 50.627C61.7507 50.6064 63.6209 50.1736 63.6759 47.4943V41.9846H62.3695V42.4792ZM60.623 46.6699C59.6329 46.6699 58.8835 45.9211 58.8835 44.9249C58.8835 43.9356 59.6329 43.1868 60.623 43.1868C61.6475 43.1868 62.3901 43.915 62.3901 44.9249C62.3832 45.9348 61.6475 46.6699 60.623 46.6699Z" fill="#333333"/>
<path d="M14.274 32.9576C14.274 34.7781 12.7957 36.2552 10.9737 36.2552C9.15159 36.2552 7.67331 34.7781 7.67331 32.9576C7.67331 31.1371 9.15159 29.66 10.9737 29.66C12.7957 29.66 14.274 31.1439 14.274 32.9576ZM10.9737 22C4.92302 22 0 26.9189 0 32.9645C0 39.01 4.92302 43.9221 10.9737 43.9221C13.1876 43.9221 15.326 43.2625 17.1549 42.0122L17.1893 41.9916L15.711 40.2741L15.6835 40.2878C14.274 41.1878 12.6513 41.6687 10.9737 41.6687C6.16752 41.6687 2.25524 37.7597 2.25524 32.9576C2.25524 28.1555 6.16752 24.2465 10.9737 24.2465C15.7798 24.2465 19.6921 28.1555 19.6921 32.9576C19.6921 33.5828 19.6233 34.2079 19.4858 34.8331C19.2108 35.9666 18.4201 36.3101 17.8219 36.262C17.2237 36.214 16.5224 35.788 16.5155 34.7438V32.9576C16.5155 29.9005 14.0265 27.4135 10.9668 27.4135C7.90708 27.4135 5.41807 29.9005 5.41807 32.9576C5.41807 36.0147 7.90708 38.5017 10.9668 38.5017C12.4519 38.5017 13.8477 37.9177 14.8997 36.8666C15.5116 37.8147 16.5086 38.4123 17.6431 38.5017C17.7394 38.5085 17.8425 38.5154 17.9388 38.5154C18.7363 38.5154 19.5271 38.2475 20.1665 37.7666C20.8266 37.2651 21.3147 36.5437 21.5829 35.6781C21.6241 35.5407 21.7067 35.2178 21.7067 35.2178V35.2041C21.8648 34.5102 21.9404 33.8163 21.9404 32.9576C21.9473 26.9189 17.0243 22 10.9737 22Z" fill="#FC2C38"/>
</svg>
