<svg width="58" height="64" viewBox="0 0 58 64" fill="none" xmlns="http://www.w3.org/2000/svg">
<path d="M0 27.5435H5.69947C8.26142 32.0091 11.9559 35.7148 16.4076 38.2842V44.0001C12.6007 42.6978 9.1422 40.537 6.29811 37.6837C3.45402 34.8304 1.30009 31.3607 0.00199268 27.5415" fill="#00AFAA"/>
<path d="M16.4076 27.5435V38.2862C11.9563 35.716 8.26254 32.0095 5.70142 27.5435H16.4076Z" fill="#00539B"/>
<path d="M16.4076 27.5433H5.69944C4.3461 25.1841 3.33271 22.6444 2.68945 20H8.88661C9.87418 19.9997 10.8521 20.1947 11.7646 20.5736C12.6771 20.9526 13.5062 21.5082 14.2046 22.2087C14.903 22.9092 15.4571 23.7408 15.8351 24.6561C16.213 25.5715 16.4076 26.5525 16.4076 27.5433Z" fill="#00AFAA"/>
<path d="M23.9268 35.0867V41.2999C21.2909 40.6565 18.7594 39.6412 16.4078 38.2842V27.5435C18.4022 27.544 20.3147 28.3392 21.7247 29.7541C23.1347 31.1691 23.9268 33.088 23.9268 35.0887" fill="#F39A00"/>
<path d="M16.3453 20C16.7558 21.8598 17.6871 23.5633 19.0296 24.9102C20.3722 26.2571 22.0703 27.1914 23.9241 27.6032V20H16.3453Z" fill="#00AFAA"/>
<path d="M45.6931 36.9941L42.5298 32.5584V36.9941H40.1568V27.5115H42.5278V31.6576L45.3308 27.5115H47.9187L44.8749 31.8014L48.4681 36.9941H45.701H45.6931ZM53.236 35.3344C54.7808 35.3344 55.3561 34.0722 55.3561 32.2708C55.3561 30.6491 54.8883 29.315 53.3076 29.315C52.4456 29.315 51.7967 29.5307 51.3308 29.9281C51.2233 30.5412 51.2572 31.5139 51.2572 32.125C51.2572 34.0722 51.8683 35.3344 53.234 35.3344H53.236ZM51.078 28.3763C51.8645 27.7437 52.8372 27.3891 53.8451 27.3677C56.5406 27.3677 57.8266 29.279 57.8266 32.0191C57.8266 35.4802 55.8856 37.2477 53.0827 37.2477C50.3155 37.2477 48.8046 35.4802 48.8046 31.406C48.8046 28.0108 49.569 25.6821 50.7455 24.5917C52.0873 23.3474 52.5074 23.3654 54.088 22.968C55.0595 22.7163 55.9931 22.5686 56.3515 22.4268L57.2134 24.374C56.7456 24.6636 55.8836 24.8433 54.1597 25.2028C52.1829 25.6022 51.283 26.2833 51.068 28.3763H51.078ZM36.4043 29.313V36.9941H34.0831V29.315H31.6027V27.5175H38.9027V29.315H36.4202L36.4043 29.313Z" fill="#00539B"/>
</svg>
