<svg width="80" height="64" viewBox="0 0 80 64" fill="none" xmlns="http://www.w3.org/2000/svg">
<path d="M3.36243 29.9475C3.72655 29.9537 4.09047 29.9265 4.44962 29.8663C4.70033 29.8303 4.9408 29.7425 5.15573 29.6085C5.32835 29.4961 5.46005 29.331 5.5312 29.1377C5.61285 28.9019 5.65084 28.6531 5.64328 28.4036C5.64899 28.154 5.61398 27.9051 5.5396 27.6667C5.47393 27.4744 5.34694 27.309 5.17814 27.1959C4.97118 27.0639 4.73782 26.9788 4.49445 26.9466C4.14419 26.8913 3.78985 26.866 3.43528 26.8709C3.26716 26.8709 3.07102 26.8709 2.84686 26.8933C2.6227 26.9157 2.43496 26.9269 2.28645 26.9466V29.8607C2.42807 29.8955 2.57245 29.918 2.71796 29.9279C2.88889 29.9419 3.10745 29.9475 3.36243 29.9475Z" fill="#0FA2B0"/>
<path d="M25.9524 27.563C24.6149 27.563 23.608 27.8946 22.9318 28.5577V19.3363C22.9281 19.2453 22.8892 19.1594 22.8234 19.0966C22.7575 19.0339 22.6697 18.9992 22.5787 19H7.70557C6.00625 19.0007 4.35472 19.5625 3.00746 20.5982C1.6602 21.6338 0.692621 23.0854 0.254984 24.7274C1.13762 24.6461 1.98383 24.6041 2.80202 24.6041C3.68483 24.5928 4.56672 24.6651 5.43593 24.8198C6.0799 24.9258 6.69737 25.1551 7.25444 25.4951C7.70827 25.7809 8.07243 26.1888 8.3052 26.672C8.54466 27.2111 8.6605 27.7971 8.64425 28.3868C8.64425 29.9485 7.93814 31.0282 6.52592 31.6259L9.15982 35.644H5.88425L3.96206 32.1695C3.79841 32.1893 3.63375 32.1996 3.46891 32.2004H2.6283L2.42375 32.1695H2.29766V35.644H0V44.6245C0.00146239 44.7241 0.0418731 44.8192 0.112577 44.8894C0.183281 44.9596 0.278655 44.9993 0.378273 45C0.431472 44.9998 0.484003 44.9881 0.532334 44.9659C0.580666 44.9437 0.623677 44.9113 0.658476 44.8711C0.6711 44.8604 0.682389 44.8481 0.6921 44.8347C1.4136 43.9271 2.33107 43.1946 3.3758 42.6919C4.42054 42.1892 5.56547 41.9293 6.72486 41.9318H14.3856L14.1586 41.901C14.3828 41.9206 14.6098 41.9318 14.8395 41.9318H15.2262C17.1714 41.9307 19.0443 41.1943 20.4692 39.8702C21.8942 38.546 22.7658 36.7321 22.9094 34.7922C23.5818 35.4479 24.5962 35.7767 25.9524 35.7785C26.3875 35.7789 26.8225 35.7565 27.2553 35.7113C27.6328 35.6759 28.0073 35.6141 28.3761 35.5264V33.6126C28.0118 33.6714 27.6644 33.7134 27.3309 33.7387C26.9975 33.7639 26.608 33.7751 26.1681 33.7751C25.5012 33.7751 25.0277 33.6135 24.7475 33.2903C24.4673 32.9672 24.3272 32.4226 24.3272 31.6568C24.3272 30.9002 24.4701 30.3622 24.7559 30.0428C25.0361 29.7262 25.5208 29.5664 26.1961 29.5664C26.9261 29.5714 27.6548 29.6304 28.3761 29.743V27.8152C28.0002 27.7298 27.6193 27.6681 27.2357 27.6302C26.8094 27.5854 26.381 27.5629 25.9524 27.563ZM18.5326 35.644H10.1573V24.7526H18.3869V27.0194H13.1023V29.0509H17.8657V31.3289H13.1023V33.3884H18.5326V35.644Z" fill="#0FA2B0"/>
<path d="M33.5935 27.549C32.2093 27.549 31.1538 27.9002 30.4272 28.6026C29.7005 29.3049 29.3381 30.3277 29.34 31.6708C29.34 33.0157 29.7024 34.0432 30.4272 34.753C31.152 35.4628 32.2074 35.814 33.5935 35.8066C34.9777 35.8066 36.0275 35.4554 36.743 34.753C37.4584 34.0506 37.8161 33.0232 37.8161 31.6708C37.8161 30.3258 37.4584 29.3031 36.743 28.6026C36.0275 27.902 34.9777 27.5509 33.5935 27.549ZM35.2747 32.7383C35.2264 32.9903 35.1231 33.2286 34.9721 33.436C34.8334 33.6138 34.6438 33.7448 34.4285 33.8115C33.8895 33.961 33.3199 33.961 32.7809 33.8115C32.56 33.7469 32.3643 33.6158 32.2205 33.436C32.0625 33.2282 31.955 32.9865 31.9067 32.7299C31.8368 32.3785 31.8048 32.0206 31.8114 31.6624C31.8045 31.3069 31.8364 30.9517 31.9067 30.6032C31.9598 30.357 32.068 30.1262 32.2233 29.9279C32.3671 29.7482 32.5628 29.6171 32.7837 29.5524C33.3227 29.4029 33.8923 29.4029 34.4313 29.5524C34.6414 29.6217 34.826 29.7525 34.9609 29.9279C35.1114 30.1336 35.2147 30.3699 35.2635 30.62C35.3337 30.9685 35.3656 31.3237 35.3588 31.6792C35.3641 32.0318 35.3322 32.384 35.2635 32.7299L35.2747 32.7383Z" fill="#0FA2B0"/>
<path d="M44.9417 27.549C44.4388 27.5579 43.9402 27.6419 43.4622 27.7984C42.8063 28.0166 42.1691 28.2874 41.5568 28.6082H41.4532L41.3215 27.6863H39.2592V35.644H41.7165V30.04C42.0785 29.8765 42.4534 29.7434 42.8374 29.6421C43.153 29.5519 43.4787 29.502 43.8069 29.4936C43.9336 29.4825 44.0613 29.4994 44.1809 29.543C44.3004 29.5865 44.409 29.6558 44.499 29.7458C44.671 29.9905 44.7495 30.2887 44.7203 30.5864V35.644H47.1777V29.7598C47.1968 29.4617 47.1544 29.1629 47.0531 28.8819C46.9519 28.6009 46.794 28.3437 46.5893 28.1262C46.3672 27.9247 46.107 27.7698 45.824 27.6706C45.541 27.5715 45.2409 27.5301 44.9417 27.549Z" fill="#0FA2B0"/>
<path d="M54.6395 27.549C54.1367 27.5579 53.638 27.6419 53.16 27.7984C52.5045 28.0176 51.8674 28.2884 51.2546 28.6082H51.151L50.9969 27.6863H48.9374V35.644H51.3947V30.04C51.7566 29.8763 52.1315 29.7433 52.5155 29.6421C52.8321 29.552 53.1588 29.5021 53.4879 29.4936C53.6146 29.4827 53.7422 29.4997 53.8618 29.5432C53.9813 29.5868 54.0899 29.6559 54.18 29.7458C54.3506 29.9911 54.429 30.2888 54.4013 30.5864V35.644H56.8587V29.7598C56.8778 29.4617 56.8354 29.1629 56.7341 28.8819C56.6329 28.6009 56.475 28.3437 56.2703 28.1262C56.0497 27.9275 55.7922 27.7743 55.5123 27.6753C55.2325 27.5762 54.9359 27.5333 54.6395 27.549Z" fill="#0FA2B0"/>
<path d="M62.3703 27.563C61.0047 27.563 59.9773 27.9142 59.288 28.6166C58.5987 29.3189 58.255 30.3566 58.2569 31.7296C58.2569 34.4289 59.6262 35.7785 62.3647 35.7785C62.9162 35.7775 63.467 35.7354 64.0123 35.6524C64.5374 35.5771 65.057 35.4666 65.5674 35.3218L65.4889 33.5705C65.2844 33.6182 65.0574 33.6658 64.8136 33.7106C64.5699 33.7555 64.3177 33.7891 64.0627 33.8199C63.8077 33.8507 63.5527 33.8732 63.3033 33.8928C63.054 33.9124 62.8214 33.9236 62.6056 33.9236C62.3235 33.9286 62.0417 33.9032 61.765 33.8479C61.561 33.8107 61.3689 33.7252 61.2046 33.5986C61.0502 33.4703 60.9331 33.3028 60.8656 33.1138C60.7766 32.8617 60.7219 32.5987 60.7031 32.332H65.7467C65.8394 31.9316 65.8836 31.5214 65.8784 31.1104C65.8747 28.7455 64.7053 27.563 62.3703 27.563ZM60.6891 31.0375C60.6878 30.5528 60.842 30.0804 61.129 29.6897C61.2787 29.5459 61.4574 29.4356 61.653 29.366C61.8487 29.2965 62.0569 29.2693 62.2638 29.2862C62.4624 29.2673 62.6627 29.2932 62.8499 29.3621C63.0371 29.4309 63.2064 29.541 63.3454 29.6841C63.5658 29.9475 63.6863 30.3987 63.7068 31.0375H60.6891Z" fill="#0FA2B0"/>
<path d="M71.0089 27.563C68.2909 27.563 66.932 28.9323 66.932 31.6708C66.932 33.0624 67.2682 34.0955 67.9407 34.7698C68.6132 35.4442 69.6359 35.7804 71.0089 35.7785C71.4441 35.7789 71.879 35.7565 72.3119 35.7113C72.6893 35.6756 73.0638 35.6139 73.4327 35.5264V33.6126C73.0684 33.6714 72.7209 33.7134 72.3875 33.7387C72.0541 33.7639 71.6646 33.7751 71.2247 33.7751C70.5578 33.7751 70.0842 33.6135 69.804 33.2903C69.5238 32.9672 69.3837 32.4226 69.3837 31.6568C69.3837 30.9002 69.5257 30.3622 69.8096 30.0428C70.0936 29.7234 70.5746 29.5646 71.2527 29.5664C71.9827 29.5715 72.7113 29.6305 73.4327 29.743V27.8152C73.0567 27.7298 72.6759 27.6681 72.2922 27.6302C71.8659 27.5854 71.4376 27.5629 71.0089 27.563Z" fill="#0FA2B0"/>
<path d="M78.6304 33.9516C78.4732 33.968 78.3144 33.9516 78.1639 33.9034C78.0134 33.8551 77.8745 33.7761 77.7562 33.6714C77.5569 33.4002 77.465 33.0648 77.4984 32.7299V29.757H79.5299V27.6863H77.4816V25.1953L75.5706 25.3998L75.041 25.4587V33.2903C75.041 34.1309 75.2764 34.7558 75.7415 35.1817C76.2067 35.6076 76.8932 35.8122 77.8066 35.8122C78.1214 35.8121 78.4358 35.7925 78.7481 35.7533C79.0219 35.7223 79.2928 35.6689 79.5579 35.5936V33.7751C79.2605 33.8844 78.9472 33.944 78.6304 33.9516Z" fill="#0FA2B0"/>
</svg>
