<svg width="48" height="64" viewBox="0 0 48 64" fill="none" xmlns="http://www.w3.org/2000/svg">
<path fill-rule="evenodd" clip-rule="evenodd" d="M3.22003 22L2.41452 24.2065H13.5771L14.3826 22H3.22003ZM2.01152 25.3092L1.206 27.5151H12.3686L13.1741 25.3092H2.01152ZM0.805511 28.6184L0 30.8243H11.1626L11.9676 28.6184H0.805511Z" fill="#009FDF"/>
<mask id="mask0" mask-type="alpha" maskUnits="userSpaceOnUse" x="16" y="25" width="32" height="14">
<path d="M16.7473 38.8675H47.3036V25.3516H16.7473V38.8675Z" fill="#3F5368"/>
</mask>
<g mask="url(#mask0)">
<path fill-rule="evenodd" clip-rule="evenodd" d="M23.7308 31.6651V31.7116C24.241 31.8989 24.7283 32.2263 24.9836 32.4366C25.7724 33.0914 26.1206 33.9565 26.1206 35.0789C26.1206 36.9268 25.146 38.2595 23.545 38.6805C23.0578 38.8207 22.5476 38.8678 21.5959 38.8678H16.7473V25.3516H21.0395C21.9212 25.3516 22.5243 25.3981 23.0578 25.5383C24.6125 25.9593 25.6333 27.0352 25.6333 28.7419C25.6333 29.654 25.3084 30.426 24.775 30.9402C24.543 31.174 24.2181 31.4548 23.7308 31.6651ZM19.4386 33.0914V36.6459H21.2949C21.8512 36.6459 22.3618 36.5994 22.7334 36.2484C23.1045 35.8975 23.2669 35.4534 23.2669 34.8687C23.2669 34.4246 23.1506 34.0036 22.9187 33.6997C22.5243 33.2086 22.037 33.0914 21.202 33.0914H19.4386ZM19.4152 30.7529H20.9233C21.3873 30.7529 21.6192 30.7529 21.8512 30.6828C22.4781 30.4956 22.8725 29.9349 22.8725 29.1629C22.8725 28.2513 22.4547 27.8532 21.8512 27.6665C21.5959 27.5964 21.3411 27.5729 20.8304 27.5729H19.4152V30.7529ZM30.1575 38.8678V27.6194H26.283V25.3516H37.0486L36.2832 27.6194H32.8488V38.8678H30.1575ZM37.8836 38.8678V25.3516H46.6077L45.8422 27.6194H40.5521V30.6128H42.7099C44.4499 30.6128 45.3549 31.0338 45.9813 31.5715C46.4686 31.9925 47.3036 32.9277 47.3036 34.7756C47.3036 36.5994 46.4453 37.6047 45.726 38.1193C44.891 38.7035 44.0093 38.8678 42.2226 38.8678H37.8836ZM40.5521 36.5994H42.5708C43.3362 36.5994 43.8002 36.4121 44.125 35.9911C44.2875 35.7808 44.5194 35.4063 44.5194 34.705C44.5194 34.0036 44.2875 33.5124 43.8235 33.1615C43.5454 32.9512 43.1738 32.8346 42.5474 32.8346H40.5521V36.5994Z" fill="#0A2973"/>
</g>
</svg>
