<svg width="57" height="64" viewBox="0 0 57 64" fill="none" xmlns="http://www.w3.org/2000/svg">
<path d="M21.0073 37.7692L28.0319 30.8247L35.0565 37.7692H21.0073Z" fill="#176DAC"/>
<path d="M0 44.6934L7.00398 37.7695L14.0492 44.6934H0Z" fill="#002C40"/>
<path d="M21.0073 37.7695L14.0491 44.6934L7.00391 37.7695H21.0073Z" fill="#014D66"/>
<path d="M14.0059 30.8454L21.0076 23.9238L28.0527 30.8454H14.0059Z" fill="#319AD5"/>
<path d="M28.0112 30.8451L35.0335 23.9189L42.0581 30.8451H28.0112Z" fill="#319AD5"/>
<path d="M35.0336 23.9189L28.0319 30.8451L21.0073 23.9235L35.0336 23.9189Z" fill="#3AADE2"/>
<path d="M49.0395 23.9235L42.0264 30.8451L35.0338 23.9189L49.0395 23.9235Z" fill="#3AADE2"/>
<path d="M7.00391 37.7696L14.0056 30.8457L21.0943 37.7696H7.00391Z" fill="#176DAC"/>
<path d="M28.0321 30.8457L21.0076 37.7696L14.0059 30.8457H28.0321Z" fill="#2780BE"/>
<path d="M42.0261 30.8457L35.0564 37.7696L28.0319 30.8457H42.0261Z" fill="#2780BE"/>
<path d="M21.0073 23.9239L28.0113 17L35.0336 23.9193L21.0073 23.9239Z" fill="#31C4F3"/>
<path d="M35.0338 23.9193L42.0584 17L49.0395 23.9239L35.0338 23.9193Z" fill="#31C4F3"/>
<path d="M42.0581 17L35.0335 23.9193L28.0112 17H42.0581Z" fill="#FBB231"/>
<path d="M21.7668 40.6227C21.7668 40.5413 21.7991 40.4634 21.8567 40.4059C21.9142 40.3484 21.9921 40.3161 22.0735 40.3161H24.7208C25.556 40.3161 26.4163 40.6753 26.4163 41.6432C26.4195 41.8116 26.381 41.9783 26.3044 42.1283C26.2277 42.2784 26.1153 42.4073 25.977 42.5035C26.1733 42.6054 26.3364 42.7611 26.4475 42.9524C26.5585 43.1436 26.6128 43.3625 26.604 43.5835C26.604 44.5102 25.7894 44.9839 24.8764 44.9839H22.0735C21.9921 44.9839 21.9142 44.9515 21.8567 44.894C21.7991 44.8365 21.7668 44.7586 21.7668 44.6772V40.6227ZM22.9956 41.197V42.1305H24.7368C24.8606 42.1305 24.9794 42.0814 25.0669 41.9938C25.1544 41.9063 25.2036 41.7876 25.2036 41.6638C25.2036 41.54 25.1544 41.4212 25.0669 41.3337C24.9794 41.2462 24.8606 41.197 24.7368 41.197H22.9956ZM22.9956 42.984V44.1052H24.8558C24.9958 44.0926 25.1259 44.028 25.2207 43.9243C25.3155 43.8206 25.368 43.6851 25.368 43.5446C25.368 43.4041 25.3155 43.2687 25.2207 43.1649C25.1259 43.0612 24.9958 42.9967 24.8558 42.984H22.9956Z" fill="#211E1F"/>
<path d="M28.7249 44.0069C28.9057 44.0069 29.0773 44.0664 29.2718 44.0664H29.3359C29.7615 44.0664 30.0635 43.7849 30.2237 43.2197H29.9422C28.7982 43.2197 28.2948 42.7621 27.8829 41.7988L27.3704 40.625C27.2971 40.4511 27.3841 40.3184 27.5511 40.3184H28.2376C28.3309 40.3173 28.4224 40.3447 28.4997 40.3971C28.577 40.4494 28.6364 40.5242 28.67 40.6113L29.043 41.5265C29.2489 42.0208 29.551 42.3068 30.1253 42.3068H30.5257L31.1138 40.625C31.1419 40.5388 31.1963 40.4636 31.2693 40.4098C31.3424 40.3561 31.4304 40.3265 31.521 40.3253H32.1823C32.2183 40.3225 32.2544 40.3291 32.2871 40.3445C32.3198 40.3599 32.3479 40.3836 32.3686 40.4131C32.3894 40.4426 32.4021 40.4771 32.4056 40.513C32.409 40.549 32.403 40.5852 32.3882 40.6181L31.3266 43.6614C31.052 44.4485 30.5394 44.9953 29.4114 44.9953H28.6243C28.5429 44.9953 28.465 44.963 28.4075 44.9055C28.35 44.848 28.3177 44.77 28.3177 44.6887V44.3226C28.317 44.2822 28.3245 44.242 28.3397 44.2046C28.3549 44.1671 28.3775 44.133 28.4061 44.1044C28.4347 44.0758 28.4687 44.0533 28.5062 44.0381C28.5437 44.0229 28.5838 44.0154 28.6243 44.016L28.7249 44.0069Z" fill="#211E1F"/>
<path d="M37.4017 44.9883H36.7816C36.7003 44.9883 36.6223 44.956 36.5648 44.8985C36.5073 44.841 36.475 44.763 36.475 44.6817V41.2495H35.681C35.4844 41.2438 35.2918 41.3056 35.1352 41.4247C34.9787 41.5438 34.8676 41.7129 34.8206 41.9039L34.0724 44.6931C34.0487 44.7786 33.9985 44.8543 33.929 44.9094C33.8595 44.9645 33.7744 44.9962 33.6857 44.9997H33.0268C32.9928 45.0012 32.9589 44.9945 32.928 44.9802C32.8972 44.9659 32.8702 44.9444 32.8493 44.9175C32.8285 44.8906 32.8144 44.8591 32.8082 44.8256C32.8021 44.7922 32.804 44.7577 32.814 44.7252L33.6423 41.595C33.9168 40.5607 34.8573 40.3274 35.8045 40.3274H37.4337C37.5102 40.3332 37.5814 40.3684 37.6326 40.4255C37.6837 40.4826 37.7109 40.5573 37.7083 40.634V44.6908C37.708 44.7306 37.6998 44.7699 37.6841 44.8064C37.6685 44.843 37.6458 44.8761 37.6172 44.9038C37.5887 44.9314 37.555 44.9532 37.5179 44.9677C37.4809 44.9822 37.4414 44.9892 37.4017 44.9883Z" fill="#211E1F"/>
<path d="M39.6097 44.9883C39.5275 44.9871 39.4492 44.9535 39.3918 44.8948C39.3343 44.836 39.3024 44.757 39.3031 44.6749V40.6248C39.3024 40.5427 39.3343 40.4637 39.3918 40.4049C39.4492 40.3462 39.5275 40.3126 39.6097 40.3114H40.2229C40.305 40.3126 40.3833 40.3462 40.4408 40.4049C40.4982 40.4637 40.5301 40.5427 40.5295 40.6248V42.1854H41.2342C41.6141 42.1854 41.8886 41.9909 42.1495 41.5241L42.6575 40.6226C42.6992 40.5345 42.7636 40.4592 42.844 40.4041C42.9244 40.349 43.0179 40.3162 43.1151 40.3091H43.8702C44.0372 40.3091 44.0692 40.4418 43.9709 40.6226L43.2638 41.9039C43.1862 42.0793 43.0703 42.2351 42.9246 42.3599C42.7789 42.4846 42.6071 42.5751 42.4218 42.6247C42.7421 42.691 43.0762 43.0983 43.2638 43.3843L44.0784 44.6794C44.1859 44.8533 44.1379 44.986 43.964 44.986H43.2158C43.1144 44.9763 43.0167 44.9437 42.9298 44.8905C42.843 44.8374 42.7694 44.7652 42.7147 44.6794L42.1403 43.7642C41.8932 43.3706 41.6461 43.096 41.2251 43.096H40.5249V44.6771C40.5237 44.7575 40.4908 44.834 40.4334 44.8902C40.3759 44.9463 40.2986 44.9775 40.2183 44.9769L39.6097 44.9883Z" fill="#211E1F"/>
<path d="M45.7053 41.5837C45.9799 40.5494 46.9203 40.3161 47.8676 40.3161H49.6226C49.6607 40.3172 49.6983 40.3259 49.7331 40.3416C49.7679 40.3573 49.7993 40.3798 49.8254 40.4076C49.8516 40.4354 49.872 40.4682 49.8854 40.5039C49.8989 40.5396 49.9052 40.5776 49.904 40.6158V44.6864C49.9028 44.7667 49.8699 44.8433 49.8125 44.8994C49.755 44.9556 49.6777 44.9868 49.5974 44.9861H48.9842C48.9437 44.9868 48.9036 44.9792 48.8661 44.9641C48.8286 44.9489 48.7946 44.9263 48.766 44.8977C48.7374 44.8691 48.7148 44.8351 48.6997 44.7976C48.6845 44.7601 48.677 44.72 48.6776 44.6795V43.8581H46.3597L46.1309 44.6795C46.1072 44.765 46.057 44.8408 45.9875 44.8959C45.918 44.951 45.8328 44.9826 45.7442 44.9861H45.1035C45.0664 44.988 45.0295 44.9808 44.9958 44.9652C44.9621 44.9495 44.9328 44.926 44.9103 44.8964C44.8877 44.8669 44.8727 44.8324 44.8665 44.7958C44.8603 44.7592 44.8631 44.7217 44.8747 44.6864L45.7053 41.5837ZM46.5999 42.9383H48.6753V41.2382H47.7486C47.552 41.2325 47.3594 41.2943 47.2028 41.4134C47.0463 41.5325 46.9352 41.7016 46.8883 41.8926L46.5999 42.9383Z" fill="#211E1F"/>
<path d="M54.9631 43.0113H52.7207V44.6862C52.7195 44.7666 52.6866 44.8431 52.6291 44.8993C52.5717 44.9554 52.4944 44.9866 52.4141 44.986H51.8054C51.7233 44.9866 51.6442 44.9547 51.5855 44.8973C51.5268 44.8398 51.4932 44.7615 51.492 44.6794V40.6225C51.4919 40.5817 51.5001 40.5412 51.5159 40.5036C51.5318 40.4659 51.555 40.4318 51.5842 40.4032C51.6134 40.3747 51.648 40.3522 51.686 40.3372C51.724 40.3222 51.7646 40.315 51.8054 40.3159H52.4141C52.4954 40.3159 52.5734 40.3482 52.6309 40.4057C52.6884 40.4632 52.7207 40.5412 52.7207 40.6225V42.0915H54.9631V40.6225C54.9631 40.5412 54.9954 40.4632 55.0529 40.4057C55.1104 40.3482 55.1883 40.3159 55.2697 40.3159H55.8783C55.9191 40.3153 55.9595 40.3228 55.9974 40.3379C56.0353 40.353 56.0697 40.3754 56.0989 40.4039C56.128 40.4324 56.1512 40.4664 56.1672 40.5039C56.1831 40.5415 56.1915 40.5818 56.1918 40.6225V44.6794C56.1906 44.7615 56.1569 44.8398 56.0982 44.8973C56.0395 44.9547 55.9604 44.9866 55.8783 44.986H55.272C55.232 44.9866 55.1923 44.9793 55.1551 44.9646C55.118 44.9498 55.0841 44.9279 55.0554 44.9001C55.0267 44.8723 55.0038 44.839 54.988 44.8024C54.9721 44.7657 54.9637 44.7262 54.9631 44.6862V43.0113Z" fill="#211E1F"/>
<path d="M44.8728 36.1449H43.0194V37.5177C43.0182 37.5841 42.9908 37.6473 42.9433 37.6936C42.8957 37.7398 42.8318 37.7655 42.7654 37.7649H42.2643C42.1965 37.7649 42.1314 37.7383 42.0831 37.6908C42.0347 37.6432 42.0069 37.5787 42.0057 37.5109V34.1725C42.0057 34.1387 42.0124 34.1053 42.0255 34.0742C42.0385 34.0431 42.0577 34.0149 42.0817 33.9913C42.1058 33.9676 42.1344 33.949 42.1657 33.9365C42.197 33.924 42.2306 33.9179 42.2643 33.9185H42.7654C42.7988 33.9182 42.832 33.9246 42.863 33.9372C42.8939 33.9499 42.922 33.9686 42.9457 33.9922C42.9693 34.0159 42.988 34.044 43.0007 34.0749C43.0133 34.1059 43.0197 34.139 43.0194 34.1725V35.3852H44.8705V34.1725C44.8702 34.139 44.8765 34.1059 44.8892 34.0749C44.9019 34.044 44.9206 34.0159 44.9442 33.9922C44.9678 33.9686 44.996 33.9499 45.0269 33.9372C45.0579 33.9246 45.091 33.9182 45.1245 33.9185H45.6256C45.6593 33.9179 45.6928 33.924 45.7242 33.9365C45.7555 33.949 45.7841 33.9676 45.8081 33.9913C45.8322 34.0149 45.8513 34.0431 45.8644 34.0742C45.8774 34.1053 45.8841 34.1387 45.8841 34.1725V37.5223C45.8838 37.556 45.8769 37.5892 45.8638 37.6202C45.8506 37.6512 45.8315 37.6793 45.8075 37.7029C45.7834 37.7264 45.755 37.7451 45.7238 37.7577C45.6926 37.7703 45.6592 37.7766 45.6256 37.7763H45.1245C45.0581 37.7769 44.9942 37.7513 44.9466 37.705C44.8991 37.6587 44.8717 37.5955 44.8705 37.5292L44.8728 36.1449Z" fill="#919397"/>
<path d="M50.5475 33.9185C50.581 33.9179 50.6143 33.924 50.6454 33.9366C50.6765 33.9491 50.7048 33.9678 50.7285 33.9915C50.7522 34.0152 50.7709 34.0435 50.7834 34.0746C50.7959 34.1057 50.8021 34.139 50.8015 34.1725V34.4265C50.8021 34.46 50.7959 34.4933 50.7834 34.5244C50.7709 34.5555 50.7522 34.5837 50.7285 34.6074C50.7048 34.6312 50.6765 34.6498 50.6454 34.6624C50.6143 34.6749 50.581 34.6811 50.5475 34.6804H49.3462V37.5269C49.345 37.5932 49.3177 37.6564 49.2701 37.7027C49.2225 37.749 49.1586 37.7746 49.0922 37.774H48.5843C48.5512 37.7746 48.5184 37.7687 48.4876 37.7566C48.4568 37.7445 48.4287 37.7265 48.4049 37.7035C48.3811 37.6806 48.3621 37.6532 48.3489 37.6229C48.3357 37.5926 48.3286 37.5599 48.328 37.5269V34.6782H47.1267C47.0932 34.6788 47.0599 34.6726 47.0288 34.6601C46.9977 34.6475 46.9695 34.6289 46.9458 34.6052C46.922 34.5814 46.9034 34.5532 46.8908 34.5221C46.8783 34.491 46.8721 34.4577 46.8727 34.4242V34.1725C46.8721 34.139 46.8783 34.1057 46.8908 34.0746C46.9034 34.0435 46.922 34.0152 46.9458 33.9915C46.9695 33.9678 46.9977 33.9491 47.0288 33.9366C47.0599 33.924 47.0932 33.9179 47.1267 33.9185H50.5475Z" fill="#919397"/>
<path d="M52.0461 37.7764C51.9789 37.7758 51.9146 37.7488 51.8671 37.7013C51.8196 37.6538 51.7927 37.5896 51.7921 37.5224V34.1657C51.7933 34.0993 51.8207 34.0361 51.8682 33.9899C51.9158 33.9436 51.9797 33.918 52.0461 33.9186H52.554C52.5875 33.9183 52.6206 33.9246 52.6516 33.9373C52.6826 33.9499 52.7107 33.9686 52.7343 33.9923C52.758 34.0159 52.7767 34.044 52.7893 34.075C52.802 34.106 52.8083 34.1391 52.808 34.1726V37.0144H54.6157V34.1657C54.6169 34.0993 54.6442 34.0361 54.6918 33.9899C54.7394 33.9436 54.8033 33.918 54.8696 33.9186H55.3776C55.411 33.9183 55.4442 33.9246 55.4752 33.9373C55.5061 33.9499 55.5342 33.9686 55.5579 33.9923C55.5815 34.0159 55.6002 34.044 55.6129 34.075C55.6255 34.106 55.6319 34.1391 55.6316 34.1726V37.0144H55.9245C55.9578 37.015 55.9907 37.0222 56.0213 37.0355C56.0519 37.0488 56.0796 37.068 56.1027 37.092C56.1259 37.116 56.1441 37.1444 56.1563 37.1754C56.1685 37.2065 56.1745 37.2396 56.1739 37.273V37.527C56.1733 37.5941 56.1463 37.6584 56.0988 37.7059C56.0513 37.7534 55.9871 37.7803 55.9199 37.7809L52.0461 37.7764Z" fill="#919397"/>
<path d="M42.0264 30.8454L49.0395 23.9238L56.0641 30.8454H42.0264Z" fill="#319AD5"/>
</svg>
