<svg width="81" height="64" viewBox="0 0 81 64" fill="none" xmlns="http://www.w3.org/2000/svg">
<path d="M31.7587 35.9576C31.1904 35.9576 30.6577 35.8866 30.1607 35.7453C29.6635 35.6034 29.23 35.3837 28.859 35.0856C28.4976 34.7925 28.2159 34.4247 28.0133 33.9828C27.8104 33.5404 27.7089 33.0291 27.7089 32.4482C27.7089 31.6978 27.8512 31.0009 28.1357 30.3578C28.42 29.7144 28.8195 29.1523 29.3332 28.6703C29.8382 28.1979 30.4536 27.824 31.1803 27.5485C31.9072 27.2725 32.6937 27.135 33.5387 27.135C34.0483 27.135 34.5537 27.192 35.0558 27.3064C35.5575 27.4206 36.0234 27.5868 36.4535 27.8048L35.8899 30.0909H35.5113C35.2202 29.7385 34.89 29.4767 34.5216 29.3053C34.1533 29.1341 33.7392 29.048 33.2791 29.048C32.4386 29.048 31.7635 29.3483 31.2545 29.9471C30.7449 30.5455 30.4903 31.293 30.4903 32.1874C30.4903 32.8091 30.6474 33.2738 30.9614 33.5815C31.2756 33.8897 31.7635 34.0441 32.4264 34.0441C32.9402 34.0441 33.4089 33.9383 33.8318 33.7277C34.2546 33.5166 34.6167 33.2825 34.9187 33.0242H35.2967L34.7331 35.3094C34.199 35.5429 33.7304 35.709 33.3277 35.8085C32.9247 35.9076 32.401 35.9576 31.7587 35.9576Z" fill="#14295E"/>
<path d="M43.0271 30.4782C43.0422 30.3883 43.0529 30.3058 43.0606 30.2317C43.0682 30.1565 43.0721 30.0798 43.0721 29.9995C43.0721 29.6057 42.95 29.3042 42.7071 29.0948C42.4637 28.8852 42.1138 28.7803 41.6576 28.7803C41.1067 28.7803 40.6435 28.9301 40.2687 29.2292C39.8933 29.529 39.61 29.9452 39.4163 30.4782H43.0271ZM40.9838 35.9579C39.5638 35.9579 38.4681 35.6425 37.6954 35.0112C36.924 34.3801 36.5374 33.5084 36.5374 32.3957C36.5374 31.6357 36.6636 30.9379 36.9161 30.3022C37.1683 29.6662 37.5321 29.1078 38.0075 28.6255C38.4623 28.1584 39.0316 27.7891 39.714 27.515C40.3973 27.2421 41.1474 27.1051 41.9644 27.1051C43.2053 27.1051 44.1425 27.3578 44.7735 27.8622C45.4041 28.3668 45.7198 29.1114 45.7198 30.0954C45.7198 30.4337 45.6858 30.7638 45.6195 31.0872C45.5524 31.4102 45.4645 31.7312 45.3558 32.0488H39.1559V32.2204C39.1559 32.8006 39.3595 33.2552 39.7648 33.5826C40.1717 33.9106 40.7944 34.0741 41.6322 34.0741C42.217 34.0741 42.7705 33.975 43.2939 33.7764C43.8167 33.5781 44.272 33.3564 44.6584 33.1139H44.956L44.4579 35.2654C43.9386 35.4937 43.392 35.6664 42.8177 35.7825C42.2444 35.8996 41.6329 35.9579 40.9838 35.9579Z" fill="#14295E"/>
<path d="M55.6926 27.6786C55.277 27.3165 54.6951 27.1353 53.9473 27.1353C53.4027 27.1353 52.9043 27.2375 52.4509 27.4399C51.9973 27.644 51.4969 27.927 50.9473 28.2893L51.1674 27.3659L47.5503 27.3666L47.1418 29.1308H48.074L46.5557 35.7263H49.2425L50.599 29.8005C50.9453 29.6169 51.2569 29.4796 51.5345 29.387C51.8114 29.2955 52.0567 29.2495 52.2696 29.2495C52.705 29.2495 53.0042 29.3238 53.1675 29.4724C53.3309 29.6222 53.4128 29.8575 53.4128 30.1802C53.4128 30.3689 53.3928 30.5733 53.3529 30.7908C53.3138 31.0092 53.2595 31.2724 53.1908 31.5797L52.2432 35.7263H54.9475L56.1908 30.2843C56.2346 30.0962 56.2677 29.915 56.2868 29.7407C56.3065 29.5671 56.316 29.4056 56.316 29.2568C56.316 28.567 56.1081 28.0407 55.6926 27.6786Z" fill="#14295E"/>
<path d="M69.796 30.4782C69.8103 30.3883 69.8216 30.3058 69.829 30.2317C69.8367 30.1565 69.8407 30.0798 69.8407 29.9995C69.8407 29.6057 69.7188 29.3042 69.4752 29.0948C69.2324 28.8852 68.8824 28.7803 68.4257 28.7803C67.8746 28.7803 67.4119 28.9301 67.0373 29.2292C66.6625 29.529 66.3789 29.9452 66.1844 30.4782H69.796ZM67.7527 35.9579C66.3322 35.9579 65.2365 35.6425 64.4643 35.0112C63.6926 34.3801 63.3055 33.5084 63.3055 32.3957C63.3055 31.6357 63.4321 30.9379 63.6843 30.3022C63.9367 29.6662 64.3005 29.1078 64.7759 28.6255C65.231 28.1584 65.7998 27.7891 66.4829 27.515C67.166 27.2421 67.9154 27.1051 68.7323 27.1051C69.9741 27.1051 70.9108 27.3578 71.542 27.8622C72.173 28.3668 72.4882 29.1114 72.4882 30.0954C72.4882 30.4337 72.4544 30.7638 72.3876 31.0872C72.3213 31.4102 72.2329 31.7312 72.1239 32.0488H65.9243V32.2204C65.9243 32.8006 66.1274 33.2552 66.5339 33.5826C66.9405 33.9106 67.5626 34.0741 68.4006 34.0741C68.9855 34.0741 69.5394 33.975 70.062 33.7764C70.5855 33.5781 71.0406 33.3564 71.4269 33.1139H71.7244L71.2268 35.2654C70.707 35.4937 70.1602 35.6664 69.5866 35.7825C69.0123 35.8996 68.4013 35.9579 67.7527 35.9579Z" fill="#14295E"/>
<path d="M80.3601 29.9195H80.1239C80.0047 29.8797 79.8369 29.8501 79.6198 29.8306C79.4027 29.8106 79.1878 29.8001 78.9758 29.8001C78.6248 29.8001 78.2863 29.8267 77.961 29.8785C77.635 29.9309 77.2994 30.0133 76.9542 30.128L75.6605 35.7263H72.9725L74.9039 27.3656H77.5923L77.3089 28.5943C77.8116 28.2222 78.3142 27.9196 78.8161 27.6858C79.3166 27.4529 79.8222 27.3361 80.3307 27.3361C80.4241 27.3361 80.5294 27.3387 80.6449 27.3435C80.7619 27.3486 80.8642 27.356 80.9525 27.3656L80.3601 29.9195Z" fill="#14295E"/>
<path d="M61.94 27.366L62.4873 24.9763H59.8077L59.2587 27.366H58.1587L57.7501 29.1307H58.877L57.3614 35.7267H60.041C60.0573 35.6592 60.0709 35.5912 60.087 35.5234L61.5561 29.1307H63.3397L63.7456 27.366H61.94Z" fill="#14295E"/>
<path d="M9.51259 29.0874C9.30137 28.9489 8.98912 28.8799 8.577 28.8799H7.52807L7.01602 31.0965H8.05919C8.62189 31.0965 9.05785 30.9816 9.36665 30.7513C9.67582 30.5207 9.83021 30.2007 9.83021 29.7925C9.83021 29.4608 9.72498 29.2254 9.51259 29.0874ZM20.2144 32.597C19.9463 33.739 19.4916 34.5672 18.8512 35.0824C18.2106 35.5976 17.2829 35.8556 16.0686 35.8556C14.9861 35.8556 14.1673 35.6606 13.6116 35.2709C13.0559 34.881 12.7784 34.2912 12.7784 33.5C12.7784 33.3379 12.7908 33.1732 12.8166 33.0069C12.8422 32.8405 12.8698 32.6891 12.8998 32.5525L14.0804 27.4432H16.2183L15.0411 32.5578C15.0146 32.6614 14.9939 32.7754 14.977 32.899C14.9597 33.0223 14.9519 33.1254 14.9519 33.2064C14.9519 33.5536 15.0561 33.8173 15.2647 33.9962C15.4725 34.1754 15.8174 34.2652 16.2995 34.2652C16.7679 34.2652 17.1459 34.1354 17.4343 33.8769C17.7231 33.6186 17.9306 33.2161 18.0562 32.6691L19.2645 27.4432H21.4063L20.2144 32.597ZM11.7795 35.695H9.41272L7.86483 32.6691H6.67387L5.97595 35.695H3.85659L5.75392 27.4432H8.96226C9.96776 27.4432 10.7441 27.6136 11.2932 27.9553C11.8417 28.2972 12.1156 28.8195 12.1156 29.5209C12.1156 30.1827 11.9151 30.7383 11.5137 31.1889C11.1126 31.6399 10.5684 31.9799 9.8793 32.209L11.7795 35.695ZM12.7215 19C5.69527 19 0 24.7178 0 31.7707C0 38.824 5.69527 44.5416 12.7215 44.5416C19.7477 44.5416 25.4443 38.824 25.4443 31.7707C25.4443 24.7178 19.7477 19 12.7215 19Z" fill="#14295E"/>
<path d="M54.7979 42.4905C64.1962 42.3434 72.1882 43.5502 80.2258 45.47C73.2853 42.3346 65.7641 40.3061 57.1952 39.7704C55.3064 39.6524 53.3667 39.6068 51.3712 39.6379C35.2174 39.8904 20.8691 45.0779 11.4899 53C22.6869 46.8514 37.9373 42.753 54.7979 42.4905Z" fill="#EF3F23"/>
</svg>
