<svg width="57" height="64" viewBox="0 0 57 64" fill="none" xmlns="http://www.w3.org/2000/svg">
<path d="M10.7229 32.9307L10.7299 36.6017C10.7299 37.533 11.1956 37.9987 12.1269 37.9987H12.5343C13.4656 37.9987 13.9312 37.533 13.9312 36.6017V34.7974H16.0849V36.5145C16.0849 38.8718 14.8917 40.065 12.5343 40.065H12.0686C9.71125 40.065 8.51807 38.8718 8.51807 36.7904V27.8267C8.51807 25.1933 9.71125 24 12.0686 24H12.5343C14.8917 24 16.0849 25.1933 16.0849 27.5507L16.0778 32.9307L10.7229 32.9307ZM10.7299 30.8009H13.873V27.4633C13.873 26.532 13.4074 26.0664 12.4762 26.0664H12.1269C11.1956 26.0664 10.7299 26.532 10.7299 27.4633V30.8009Z" fill="#464547"/>
<path d="M17.5219 24.1746H19.7338V25.1933C20.0786 24.819 20.4969 24.5198 20.9627 24.3145C21.4284 24.1091 21.9315 24.0021 22.4404 24C24.3322 24 25.2634 25.2514 25.2634 27.114V36.951C25.2634 38.8136 24.3322 40.065 22.4404 40.065C21.9365 40.0652 21.4376 39.9648 20.9728 39.77C20.5081 39.5751 20.0869 39.2895 19.7338 38.93V44H17.5219V24.1746ZM19.7338 37.1547C20.2921 37.6635 21.0158 37.9529 21.771 37.9695C22.5859 37.9695 23.0516 37.5913 23.0516 36.6891V27.3761C23.0516 26.4738 22.5859 26.0955 21.771 26.0955C21.0158 26.1121 20.2921 26.4016 19.7338 26.9104V37.1547Z" fill="#464547"/>
<path d="M26.5985 34.419C26.5985 32.4691 27.2388 31.6833 28.9268 31.1013L31.8953 30.0826V27.4633C31.8953 26.532 31.4297 26.0372 30.4984 26.0372H30.138C29.2067 26.0372 28.741 26.532 28.741 27.4633V29.6893H26.5874V27.5507C26.5874 25.1933 27.7806 24 30.138 24H30.5565C32.9138 24 34.1072 25.1933 34.1072 27.5507V39.8904H31.8953V38.9008C31.5465 39.2681 31.1268 39.5607 30.6615 39.7608C30.1962 39.961 29.6951 40.0645 29.1886 40.065C27.4134 40.065 26.5985 39.0463 26.5985 37.3003L26.5985 34.419ZM31.8953 37.242V32.0582L29.8872 32.8184C29.0723 33.1385 28.8104 33.5459 28.8104 34.4481V36.8346C28.8104 37.5913 29.1886 37.9695 29.8872 37.9695C30.5565 37.9695 31.1678 37.7368 31.8953 37.242Z" fill="#464547"/>
<path d="M43.0529 39.8904H40.841V27.2306C40.841 26.4448 40.4627 26.0955 39.7933 26.0955C39.1822 26.0955 38.5419 26.3283 37.7561 26.8813V39.8904H35.5442V24.1746H37.7561V25.1933C38.3964 24.5822 39.2404 24 40.4627 24C41.5977 24 42.3545 24.4657 42.7619 25.2806C43.5477 24.6112 44.479 24 45.7595 24C47.4766 24 48.3497 25.0478 48.3497 26.7649V39.8904H46.1378V27.2306C46.1378 26.4448 45.7595 26.0955 45.0901 26.0955C44.479 26.0955 43.8387 26.3283 43.0529 26.8813V39.8904Z" fill="#464547"/>
<path d="M5.68291 25.6221V28.512L1.96058 32.059L5.68291 35.5426V38.4957L0 33.1537V31.0275L5.68291 25.6221Z" fill="#39C2D7"/>
<path d="M56.8384 31.0275V33.1537L51.1555 38.4957V35.5426L54.8779 32.059L51.1555 28.512V25.6221L56.8384 31.0275Z" fill="#39C2D7"/>
</svg>
