<svg width="92" height="64" viewBox="0 0 92 64" fill="none" xmlns="http://www.w3.org/2000/svg">
<path fill-rule="evenodd" clip-rule="evenodd" d="M9.77911 32.2946C10.3376 28.3098 8.83306 26.3282 5.84828 26.3282C4.30241 26.3282 3.06968 26.6943 2.18483 27.1899L0 42.7851H2.79127L3.44898 38.089C3.69156 38.1969 4.05983 38.3263 4.76882 38.3263C7.21663 38.3263 9.25702 36.0211 9.77911 32.2946ZM6.97846 32.3593C6.71604 34.2331 6.01257 36.3441 4.35919 36.3441C4.10173 36.3441 3.87459 36.28 3.68715 36.2368L4.77323 28.4824C4.97887 28.3961 5.2457 28.3314 5.58916 28.3314C7.11353 28.3314 7.26569 30.313 6.97846 32.3593Z" fill="#002752"/>
<path fill-rule="evenodd" clip-rule="evenodd" d="M18.8019 37.5078L19.77 30.5929C20.2165 27.405 18.7357 26.3282 16.5669 26.3282C14.828 26.3282 13.5992 26.8237 12.8819 27.1899L13.2055 29.0205C13.8732 28.6975 14.7712 28.4177 15.7377 28.4177C16.7466 28.4177 17.3183 28.9342 17.1645 30.0332L17.1104 30.4209C13.9608 30.8301 11.6409 31.7565 11.2247 34.7286C10.9016 37.0338 12.1106 38.3689 14.8804 38.3689C16.6837 38.3689 17.8889 38.0459 18.8019 37.5078ZM16.2895 36.28C16.063 36.3657 15.6611 36.4735 15.2746 36.4735C14.1797 36.4735 13.6934 35.806 13.8594 34.6214C14.0948 32.9412 15.0596 32.3378 16.875 32.1011L16.2895 36.28Z" fill="#002752"/>
<path d="M28.093 26.3498C25.4484 26.2204 23.9185 26.5649 22.7789 27.1899L21.243 38.1537H24.0127L25.353 28.5897C25.9258 28.3314 26.659 28.3098 27.2577 28.6328L28.093 26.3498Z" fill="#002752"/>
<path fill-rule="evenodd" clip-rule="evenodd" d="M35.121 37.5078L36.0897 30.5929C36.5362 27.405 35.0554 26.3282 32.8866 26.3282C31.1472 26.3282 29.9183 26.8237 29.2016 27.1899L29.5247 29.0205C30.1929 28.6975 31.091 28.4177 32.0569 28.4177C33.0663 28.4177 33.638 28.9342 33.4842 30.0332L33.4296 30.4209C30.2805 30.8301 27.9606 31.7565 27.5444 34.7286C27.2213 37.0338 28.4298 38.3689 31.1996 38.3689C33.0035 38.3689 34.2081 38.0459 35.121 37.5078ZM32.6093 36.28C32.3821 36.3657 31.9808 36.4735 31.5943 36.4735C30.4989 36.4735 30.0132 35.806 30.1791 34.6214C30.414 32.9412 31.3793 32.3378 33.1942 32.1011L32.6093 36.28Z" fill="#002752"/>
<path fill-rule="evenodd" clip-rule="evenodd" d="M45.5601 38.24L47.1077 27.1899C46.5117 26.6943 45.5105 26.3282 43.8786 26.3282C40.5509 26.3282 38.6021 28.5897 38.0315 32.6607C37.5457 36.129 38.7564 38.3689 41.0328 38.3689C41.8702 38.3689 42.4342 38.1753 42.8135 37.917L42.7292 38.5199C42.545 39.8339 41.8664 40.6956 40.4274 40.6956C39.3325 40.6956 38.5618 40.3726 38.1775 40.0491L37.1576 42.117C37.8738 42.6772 38.9235 43.0002 40.6198 43.0002C43.1537 43.0002 45.1009 41.5141 45.5601 38.24ZM43.0704 36.0859C42.6503 36.3226 42.3471 36.3441 42.0461 36.3441C40.7792 36.3441 40.5239 34.6429 40.8288 32.4672C41.1849 29.9253 41.9204 28.353 43.2948 28.353C43.6598 28.353 43.9514 28.4177 44.1322 28.5034L43.0704 36.0859Z" fill="#002752"/>
<path fill-rule="evenodd" clip-rule="evenodd" d="M57.0841 32.3378C57.567 28.8916 56.5515 26.3282 53.6957 26.3282C50.8615 26.3282 49.1067 28.8916 48.6237 32.3378C48.1413 35.7844 49.175 38.3689 52.0093 38.3689C54.8651 38.3689 56.6011 35.7844 57.0841 32.3378ZM54.3204 32.2946C54.0276 34.3841 53.5711 36.1074 52.3257 36.1074C51.1233 36.1074 51.1288 34.3841 51.4243 32.2731C51.7198 30.162 52.1824 28.3961 53.4063 28.3961C54.6517 28.3961 54.6159 30.1836 54.3204 32.2946Z" fill="#002752"/>
<path d="M66.6619 38.1537L67.812 29.9469C68.156 27.4913 67.0087 26.3282 64.1744 26.3282C62.4141 26.3282 61.0557 26.6728 60.06 27.1899L58.5241 38.1537H61.2938L62.6341 28.5897C62.9555 28.4392 63.2438 28.3745 63.8238 28.3745C64.8112 28.3745 65.1409 28.9342 64.9992 29.9469L63.8492 38.1537H66.6619Z" fill="#002752"/>
<path fill-rule="evenodd" clip-rule="evenodd" d="M71.2963 36.6583C71.2963 35.7955 70.5951 35.092 69.735 35.092C68.8706 35.092 68.1737 35.7955 68.1737 36.6583C68.1737 37.5255 68.8706 38.2245 69.735 38.2245C70.5951 38.2245 71.2963 37.5255 71.2963 36.6583ZM71.0317 36.6583C71.0317 37.375 70.4495 37.9591 69.735 37.9591C69.0205 37.9591 68.4383 37.375 68.4383 36.6583C68.4383 35.9415 69.0205 35.3575 69.735 35.3575C70.4495 35.3575 71.0317 35.9415 71.0317 36.6583ZM70.5245 37.521L69.9026 36.7423C70.1672 36.676 70.3348 36.468 70.3348 36.2291C70.3348 36.0123 70.1761 35.6982 69.6424 35.6982C69.4483 35.6982 69.2763 35.738 69.144 35.8043V37.521H69.4792V36.7777H69.5498L70.1143 37.521H70.5245ZM69.9952 36.2379C69.9952 36.4813 69.8365 36.5344 69.541 36.5344H69.4792V35.9857C69.5145 35.9681 69.563 35.9592 69.6248 35.9592C69.7262 35.9592 69.9952 35.9725 69.9952 36.2379Z" fill="#002752"/>
<path d="M91.69 20.169L89.0299 17.4087L59.1655 18.7283L91.69 20.169Z" fill="#661130"/>
<path d="M86.4592 14.7303L65.172 15.6743L88.3601 16.7041L86.4592 14.7303Z" fill="#661130"/>
<path d="M84.3273 12.5169L70.1906 13.1491L85.6014 13.8393L84.3273 12.5169Z" fill="#661130"/>
<path d="M82.5223 10.6432L74.4286 11.011L83.2638 11.413L82.5223 10.6432Z" fill="#661130"/>
<path d="M80.9406 9L77.7551 9.34013L81.4356 9.51656L80.9406 9Z" fill="#661130"/>
<path d="M91.69 20.5673L89.0299 23.3281L59.1655 22.008L91.69 20.5673Z" fill="#661130"/>
<path d="M86.4592 26.0066L65.172 25.0625L88.3601 24.0322L86.4592 26.0066Z" fill="#661130"/>
<path d="M84.3273 28.2199L70.1906 27.5878L85.6014 26.897L84.3273 28.2199Z" fill="#661130"/>
<path d="M82.5223 30.0938L74.4286 29.726L83.2638 29.3239L82.5223 30.0938Z" fill="#661130"/>
<path d="M80.9406 31.7363L77.7551 31.3967L81.4356 31.2203L80.9406 31.7363Z" fill="#661130"/>
</svg>
