<svg width="90" height="64" viewBox="0 0 90 64" fill="none" xmlns="http://www.w3.org/2000/svg">
<path fill-rule="evenodd" clip-rule="evenodd" d="M15.4009 39.4366C15.3531 38.9868 15.6252 36.7728 15.6252 36.7728C15.6252 36.7728 16.1722 36.8647 16.7 36.9232C17.2278 36.9816 18.077 37.028 18.077 37.028C18.077 37.028 17.6192 38.6891 17.8851 39.0683C18.4997 39.9447 21.8593 42.1091 22.6295 42.9778C23.0168 43.3641 23.4099 43.7388 23.8909 44.0763C24.2309 44.3661 25.3281 44.3994 25.6166 44.6892C25.8096 44.8985 26.0456 45.5086 25.9272 45.619C25.8464 45.6943 24.1837 45.7309 23.8909 45.6781C23.5735 45.6781 23.1935 45.3713 23.1935 45.3713C23.1935 45.3713 22.9574 45.619 22.6295 45.4438C22.0517 45.1551 22.1381 44.5594 21.8008 44.0763C21.6079 43.8833 18.7845 42.0212 16.9651 40.9919C15.4043 40.1089 15.4737 40.1216 15.4009 39.4366ZM4.17404 33.7053C3.83576 33.4037 2.58594 34.4766 2.22865 34.3993C1.87137 34.3219 2.22082 33.4356 1.90431 33.4896C1.47511 33.5628 1.36062 34.5702 0.975116 34.6484C0.353413 34.8828 0 33.9492 0 32.8348C0 31.7204 0.395246 30.5061 1.74145 29.7286C3.08765 28.951 5.08117 28.7529 6.62802 29.2733C8.09587 28.4853 10.0271 26.1982 14.3283 26.0913C18.6295 25.9844 20.2399 28.1399 21.1541 27.6238C22.0684 27.1077 22.3778 25.9441 22.1789 25.0748C21.7979 23.4097 21.059 22.5043 20.4675 21.0216C20.0962 20.0913 20.0758 18.8624 20.5436 17.9611C20.7535 17.5609 21.2632 17.0939 22.0317 17.0078C22.8003 16.9217 23.0027 17.5695 23.5406 17.7462C24.0785 17.9229 25.2281 18.0317 25.3179 18.4428C25.4077 18.8539 24.0282 19.177 23.7155 19.1434C22.983 19.0647 22.5209 19.5589 22.5606 20.4321C22.6078 21.5425 22.8682 21.9391 23.8887 23.5197C24.9093 25.1003 24.9001 27.7285 23.5966 29.5623C23.1855 30.0981 22.7479 30.5531 22.4579 31.1657C22.2242 31.6564 22.4579 30.6675 22.4579 32.6261C22.4579 34.5847 21.4735 35.5275 20.187 35.9414C18.4551 36.4986 16.9595 36.2902 15.4299 36.1094C13.3134 35.8591 11.6572 35.8884 10.7928 36.1094C10.0437 36.3015 7.69908 37.6284 7.41055 38.2458C7.2574 38.5792 6.42992 42.0484 6.27828 42.8104C6.21627 43.124 6.25121 43.7484 6.10638 44.0265C5.94794 44.3352 4.0186 45.5554 3.36365 45.8059C3.06188 45.9216 2.45254 46.0696 2.38017 45.9636C1.95328 45.4708 1.95477 45.3567 3.19523 44.4586C2.76196 43.5572 4.01204 43.3371 4.3796 42.8925C4.78082 42.409 5.50857 37.1445 5.75805 36.459C6.00753 35.7734 6.98135 35.5374 7.37614 34.9275C7.18937 34.7111 6.93075 34.8266 6.24668 35.0188C5.65979 35.1845 4.43419 35.6226 4.17404 35.4036C3.91388 35.1845 4.51231 34.0068 4.17404 33.7053Z" fill="#2E2F33"/>
<path fill-rule="evenodd" clip-rule="evenodd" d="M37.9093 30.5975H33.9327V20.4132H37.8943C41.0425 20.4132 43.2267 22.4439 43.2267 25.4977C43.2267 28.582 41.0425 30.5975 37.9093 30.5975ZM37.8943 28.6889C39.8826 28.6889 41.0425 27.2384 41.0425 25.4977C41.0425 23.7113 39.9579 22.3218 37.9093 22.3218H36.0716V28.6889H37.8943ZM48.1222 30.7807C45.9079 30.7807 44.2359 29.2691 44.2359 26.9025C44.2359 24.7648 45.8025 23.0394 48.0017 23.0394C50.1858 23.0394 51.647 24.6885 51.647 27.0857V27.5437H46.2393C46.3749 28.4446 47.0979 29.1928 48.3331 29.1928C48.9507 29.1928 49.7942 28.9332 50.2612 28.4751L51.1198 29.7577C50.3967 30.4296 49.2519 30.7807 48.1222 30.7807ZM49.8093 26.2001C49.749 25.4977 49.267 24.6274 48.0017 24.6274C46.8117 24.6274 46.2995 25.4672 46.2242 26.2001H49.8093ZM55.0814 30.7807C53.7408 30.7807 53.0328 30.0784 53.0328 28.75V20.4132H54.9458V28.2308C54.9458 28.7042 55.1868 29.0554 55.6086 29.0554C55.8948 29.0554 56.1659 28.9485 56.2714 28.8263L56.6781 30.3074C56.3919 30.567 55.8647 30.7807 55.0814 30.7807ZM58.4706 22.4287C57.853 22.4287 57.3409 21.9095 57.3409 21.2682C57.3409 20.6269 57.853 20.1231 58.4706 20.1231C59.1033 20.1231 59.6154 20.6269 59.6154 21.2682C59.6154 21.9095 59.1033 22.4287 58.4706 22.4287ZM59.4347 30.5975H57.5216V23.2227H59.4347V30.5975ZM65.2792 30.5975H63.2155L60.2933 23.2227H62.3419L64.2398 28.353L66.1528 23.2227H68.2014L65.2792 30.5975ZM72.4794 30.7807C70.2651 30.7807 68.5931 29.2691 68.5931 26.9025C68.5931 24.7648 70.1597 23.0394 72.3589 23.0394C74.543 23.0394 76.0042 24.6885 76.0042 27.0857V27.5437H70.5965C70.7321 28.4446 71.4551 29.1928 72.6903 29.1928C73.3079 29.1928 74.1514 28.9332 74.6184 28.4751L75.477 29.7577C74.7539 30.4296 73.6091 30.7807 72.4794 30.7807ZM74.1665 26.2001C74.1062 25.4977 73.6242 24.6274 72.3589 24.6274C71.1689 24.6274 70.6567 25.4672 70.5814 26.2001H74.1665ZM79.303 30.5975H77.39V23.2227H79.303V24.2151C79.8302 23.5738 80.719 23.0394 81.6227 23.0394V24.9328C81.4872 24.9022 81.3215 24.887 81.0955 24.887C80.4629 24.887 79.6193 25.2534 79.303 25.7268V30.5975ZM85.7651 33.5902C84.545 33.5902 83.5659 33.239 82.7224 32.4909L83.581 31.1014C84.1082 31.7427 84.9969 32.0023 85.7651 32.0023C87.0003 32.0023 87.7234 31.1472 87.7234 30.1089V29.3455C87.2263 29.8952 86.3526 30.4601 85.1626 30.4601C83.5659 30.4601 82.8127 29.5745 82.8127 28.1392V23.2227H84.7258V27.3758C84.7258 28.3988 85.253 28.7347 86.0664 28.7347C86.8045 28.7347 87.392 28.3225 87.7234 27.8949V23.2227H89.6364V30.1089C89.6364 32.3229 88.0849 33.5902 85.7651 33.5902ZM38.6433 44.6615C35.6156 44.6615 33.2808 42.5239 33.2808 39.3938C33.2808 36.2484 35.6156 34.126 38.6433 34.126C40.8426 34.126 42.1229 35.3323 42.8309 36.6148L40.9932 37.531C40.5714 36.7065 39.6676 36.0499 38.6433 36.0499C36.8056 36.0499 35.4801 37.4699 35.4801 39.3938C35.4801 41.3177 36.8056 42.7377 38.6433 42.7377C39.6676 42.7377 40.5714 42.0811 40.9932 41.2566L42.8309 42.1574C42.1229 43.4248 40.8426 44.6615 38.6433 44.6615ZM46.2845 44.6615C44.9439 44.6615 44.2359 43.9592 44.2359 42.6308V34.294H46.1489V42.1116C46.1489 42.585 46.3899 42.9362 46.8117 42.9362C47.0979 42.9362 47.369 42.8293 47.4745 42.7071L47.8812 44.1882C47.595 44.4478 47.0678 44.6615 46.2845 44.6615ZM55.5484 44.4783H53.6353V43.5469C53.1382 44.0966 52.2646 44.6615 51.0746 44.6615C49.4779 44.6615 48.7247 43.7759 48.7247 42.3407V37.1034H50.6377V41.5772C50.6377 42.6002 51.165 42.9362 51.9784 42.9362C52.7165 42.9362 53.3039 42.5239 53.6353 42.0964V37.1034H55.5484V44.4783ZM59.3593 42.1116C59.6907 42.585 60.3836 42.9362 61.0163 42.9362C62.1159 42.9362 62.854 42.0658 62.854 40.7832C62.854 39.5159 62.1159 38.6456 61.0163 38.6456C60.3836 38.6456 59.6907 39.0121 59.3593 39.5007V42.1116ZM59.3593 44.4783H57.4463V34.294H59.3593V38.0501C59.9317 37.2867 60.7452 36.9202 61.6038 36.9202C63.4565 36.9202 64.8273 38.386 64.8273 40.7832C64.8273 43.2568 63.4415 44.6615 61.6038 44.6615C60.7301 44.6615 59.9317 44.2645 59.3593 43.5316V44.4783Z" fill="#2E2F33"/>
</svg>
