<svg width="803" height="711" viewBox="0 0 803 711" fill="none" xmlns="http://www.w3.org/2000/svg">
<mask id="mask0" mask-type="alpha" maskUnits="userSpaceOnUse" x="0" y="0" width="803" height="711">
<path d="M0 0H803V431.17C803 455.845 791.367 478.519 772.728 490.171L435.357 701.084C424.782 707.695 413.141 711 401.5 711C389.859 711 378.218 707.695 367.643 701.084L30.2719 490.171C11.6334 478.519 0 455.845 0 431.17V0Z" fill="#FD8C88"/>
<path d="M0 0H803V431.17C803 455.845 791.367 478.519 772.728 490.171L435.357 701.084C424.782 707.695 413.141 711 401.5 711C389.859 711 378.218 707.695 367.643 701.084L30.2719 490.171C11.6334 478.519 0 455.845 0 431.17V0Z" fill="url(#paint0_linear)"/>
</mask>
<g mask="url(#mask0)">
<path d="M0 0H803V431.17C803 455.845 791.367 478.519 772.728 490.171L435.357 701.084C424.782 707.695 413.141 711 401.5 711C389.859 711 378.218 707.695 367.643 701.084L30.2719 490.171C11.6334 478.519 0 455.845 0 431.17V0Z" fill="url(#paint1_linear)"/>
</g>
<mask id="mask1" mask-type="alpha" maskUnits="userSpaceOnUse" x="0" y="0" width="803" height="711">
<mask id="mask2" maskUnits="userSpaceOnUse" x="0" y="0" width="803" height="711">
<path d="M0 0H803V431.17C803 455.845 791.367 478.519 772.728 490.171L435.357 701.084C424.782 707.695 413.141 711 401.5 711C389.859 711 378.218 707.695 367.643 701.084L30.2719 490.171C11.6334 478.519 0 455.845 0 431.17V0Z" fill="#FD8C88"/>
<path d="M0 0H803V431.17C803 455.845 791.367 478.519 772.728 490.171L435.357 701.084C424.782 707.695 413.141 711 401.5 711C389.859 711 378.218 707.695 367.643 701.084L30.2719 490.171C11.6334 478.519 0 455.845 0 431.17V0Z" fill="url(#paint2_linear)"/>
</mask>
<g mask="url(#mask2)">
<path d="M0 0H803V431.17C803 455.845 791.367 478.519 772.728 490.171L435.357 701.084C424.782 707.695 413.141 711 401.5 711C389.859 711 378.218 707.695 367.643 701.084L30.2719 490.171C11.6334 478.519 0 455.845 0 431.17V0Z" fill="url(#paint3_linear)"/>
</g>
</mask>
<g mask="url(#mask1)">
<path d="M892 827.326C889 827.326 886.044 826.565 883.357 825.041L790.164 771.505C821.647 753.719 856.801 744.849 892 744.849V743.236C861.861 743.281 831.723 749.687 803.823 762.634C854.293 727.556 886.716 671.645 892 610.626V470.311C889 470.311 886.044 469.55 883.357 468.027L790.164 414.535C821.647 396.749 856.801 387.878 892 387.878V386.266C861.861 386.31 831.678 392.717 803.823 405.664C854.293 370.585 886.716 314.675 892 253.656V113.341C889 113.341 886.044 112.58 883.357 111.056L790.164 57.5199C821.647 39.7341 856.801 30.8636 892 30.8636V29.2508C861.861 29.2956 831.678 35.702 803.823 48.6494C854.293 13.5706 886.716 -42.3404 892 -103.359V-240H887.432C889.716 -237.043 891.149 -233.459 891.149 -229.561V-122.533C845.964 -148.921 813.227 -191.302 798.315 -239.955H796.524C809.958 -195.648 838.082 -156.492 876.819 -129.656C820.93 -155.73 755.816 -155.73 699.928 -129.656C738.709 -156.492 766.788 -195.648 780.223 -239.955H778.431C763.519 -191.302 730.783 -148.921 685.597 -122.533V-229.561C685.597 -233.414 687.03 -236.998 689.314 -240H680.134C682.418 -237.043 683.851 -233.459 683.851 -229.561V-122.533C638.665 -148.921 605.929 -191.302 591.016 -239.955H589.225C602.66 -195.648 630.783 -156.492 669.52 -129.656C613.632 -155.73 548.518 -155.73 492.629 -129.656C531.411 -156.492 559.489 -195.648 572.924 -239.955H571.133C556.399 -191.347 523.663 -148.921 478.478 -122.578V-229.561C478.478 -233.414 479.911 -236.998 482.195 -240H473.014C475.298 -237.043 476.731 -233.459 476.731 -229.561V-122.533C431.546 -148.921 398.81 -191.302 383.897 -239.955H382.106C395.54 -195.648 423.664 -156.492 462.401 -129.656C406.512 -155.73 341.398 -155.73 285.51 -129.656C324.291 -156.492 352.37 -195.648 365.805 -239.955H364.014C349.101 -191.302 316.365 -148.921 271.179 -122.533V-229.561C271.179 -233.414 272.612 -236.998 274.896 -240H265.716C268 -237.043 269.433 -233.459 269.433 -229.561V-122.533C224.381 -148.921 191.645 -191.347 176.733 -240H174.941C188.376 -195.692 216.5 -156.537 255.237 -129.701C199.348 -155.775 134.234 -155.775 78.3455 -129.701C117.127 -156.537 145.251 -195.692 158.685 -240H156.894C141.982 -191.347 109.245 -148.921 64.0598 -122.578V-229.561C64.0598 -233.414 65.4929 -236.998 67.7768 -240H58.5964C60.8803 -237.043 62.3133 -233.459 62.3133 -229.561V-122.533C17.1725 -148.921 -15.5636 -191.347 -30.4762 -240H-32.2675C-18.8327 -195.692 9.29074 -156.537 48.0277 -129.701C-7.86098 -155.775 -72.9748 -155.775 -128.863 -129.701C-90.0818 -156.537 -61.9583 -195.692 -48.5236 -240H-50.3149C-65.2275 -191.347 -97.9635 -148.965 -143.149 -122.578V-229.561C-143.149 -233.414 -141.716 -236.998 -139.432 -240H-144V-103.224C-138.671 -42.2508 -106.248 13.6154 -55.8231 48.6494C-83.7227 35.702 -113.861 29.206 -144 29.206V30.8636C-108.846 30.8636 -73.6466 39.7341 -42.1644 57.5199L-135.357 111.056C-138.044 112.58 -141 113.341 -144 113.341V253.746C-138.671 314.719 -106.248 370.541 -55.8231 405.619C-83.6779 392.672 -113.861 386.176 -144 386.176V387.834C-108.846 387.834 -73.6466 396.704 -42.1644 414.49L-135.357 468.027C-138.044 469.55 -141 470.311 -144 470.311V610.761C-138.671 671.734 -106.248 727.556 -55.8231 762.634C-83.6779 749.687 -113.861 743.191 -144 743.191V744.849C-108.846 744.849 -73.6466 753.719 -42.1644 771.505L-135.357 825.041C-138.044 826.565 -141 827.326 -144 827.326V831H-139.432C-138.089 829.253 -136.477 827.685 -134.506 826.52L-41.3136 773.028C-41.4479 792.919 -44.6275 812.408 -50.3149 831H-48.5683C-44.4931 817.47 -41.6718 803.492 -40.4179 789.246C-39.164 803.537 -36.3427 817.47 -32.2675 831H-30.521C-36.2083 812.408 -39.3879 792.919 -39.5223 773.028L53.6703 826.565C55.6407 827.685 57.2529 829.297 58.5964 831.045H67.7768C69.1203 829.297 70.7324 827.729 72.7029 826.565L165.895 772.983C165.761 792.875 162.582 812.363 156.894 830.955H158.641C162.716 817.425 165.537 803.448 166.791 789.201C168.045 803.492 170.866 817.425 174.941 830.955H176.688C171.001 812.363 167.821 792.875 167.687 772.983L260.879 826.475C262.85 827.595 264.462 829.208 265.805 830.955H274.986C276.329 829.208 277.941 827.64 279.912 826.475L373.104 772.983C372.97 792.875 369.79 812.363 364.103 830.955H365.85C369.925 817.425 372.746 803.448 374 789.201C375.254 803.492 378.075 817.425 382.15 830.955H383.897C378.21 812.363 375.03 792.875 374.896 772.983L468.088 826.475C470.059 827.595 471.671 829.208 473.014 830.955H482.195C483.538 829.208 485.15 827.64 487.121 826.475L580.313 772.983C580.179 792.875 576.999 812.363 571.312 830.955H573.059C577.134 817.425 579.955 803.448 581.209 789.201C582.463 803.492 585.284 817.425 589.359 830.955H591.106C585.419 812.363 582.239 792.875 582.105 772.983L675.297 826.475C677.268 827.595 678.88 829.208 680.223 830.955H689.404C690.747 829.208 692.359 827.64 694.33 826.475L787.522 772.983C787.388 792.875 784.208 812.363 778.521 830.955H780.267C784.343 817.425 787.164 803.448 788.418 789.201C789.672 803.492 792.493 817.425 796.568 830.955H798.315C792.627 812.363 789.448 792.875 789.314 772.983L882.506 826.475C884.477 827.595 886.089 829.208 887.432 830.955H892V827.326V827.326ZM882.506 469.505C887.835 472.596 891.149 478.241 891.149 484.379V591.407C828.722 554.939 789.851 488.008 789.314 415.968L882.506 469.505ZM-39.5223 412.967V305.938C-39.5223 299.801 -36.2083 294.111 -30.8792 291.065L62.3133 237.573C61.7759 309.567 22.9046 376.499 -39.5223 412.967ZM63.209 253.746C68.5381 314.719 100.961 370.541 151.386 405.619C95.6315 379.725 30.7864 379.725 -24.9679 405.619C25.4573 370.586 57.8798 314.719 63.209 253.746ZM165.045 414.535L71.852 468.027C66.5229 471.118 59.8951 471.118 54.5659 468.027L-38.6266 414.535C24.3377 379.008 102.08 378.963 165.045 414.535ZM64.1046 237.573L157.297 291.065C162.626 294.156 165.94 299.801 165.94 305.938V412.967C103.513 376.499 64.642 309.567 64.1046 237.573ZM158.148 289.586L64.9555 236.095C127.92 200.568 205.662 200.568 268.627 236.095L175.434 289.586C170.105 292.633 163.522 292.633 158.148 289.586ZM167.687 305.938C167.687 299.801 171.001 294.111 176.33 291.065L269.522 237.573C268.985 309.567 230.114 376.544 167.687 412.967V305.938ZM270.418 253.746C275.747 314.719 308.17 370.541 358.595 405.619C302.841 379.725 237.995 379.725 182.241 405.619C232.666 370.586 265.089 314.719 270.418 253.746ZM372.254 414.535L279.061 468.027C273.732 471.118 267.149 471.118 261.775 468.027L168.582 414.535C231.547 379.008 309.289 378.963 372.254 414.535ZM271.314 237.573L364.506 291.065C369.835 294.156 373.149 299.801 373.149 305.938V412.967C310.722 376.499 271.851 309.567 271.314 237.573ZM365.357 289.586L272.164 236.095C335.129 200.568 412.871 200.568 475.836 236.095L382.643 289.586C377.314 292.633 370.731 292.633 365.357 289.586ZM374.896 305.938C374.896 299.801 378.21 294.111 383.539 291.065L476.731 237.573C476.194 309.567 437.323 376.544 374.896 412.967V305.938V305.938ZM477.627 253.746C482.956 314.719 515.379 370.541 565.804 405.619C510.049 379.725 445.204 379.725 389.495 405.619C439.875 370.586 472.298 314.719 477.627 253.746ZM579.462 414.535L486.27 468.027C480.941 471.118 474.313 471.118 468.984 468.027L375.791 414.535C438.756 378.963 516.498 379.008 579.462 414.535ZM478.523 237.573L571.715 291.065C577.044 294.156 580.358 299.801 580.358 305.938V412.967C517.931 376.499 479.06 309.567 478.523 237.573ZM572.566 289.586L479.373 236.05C542.338 200.523 620.08 200.523 683.045 236.05L589.852 289.541C584.523 292.633 577.94 292.633 572.566 289.586ZM582.06 305.938C582.06 299.801 585.374 294.111 590.703 291.065L683.895 237.573C683.358 309.567 644.487 376.544 582.06 412.967V305.938V305.938ZM684.836 253.746C690.165 314.719 722.588 370.541 773.013 405.619C717.258 379.725 652.413 379.725 596.659 405.619C647.084 370.586 679.507 314.719 684.836 253.746ZM786.671 414.535L693.479 468.027C688.15 471.118 681.567 471.118 676.193 468.027L583 414.535C645.965 379.008 723.662 378.963 786.671 414.535ZM685.732 237.573L778.924 291.065C784.253 294.156 787.567 299.801 787.567 305.938V412.967C725.14 376.499 686.269 309.567 685.732 237.573ZM779.775 289.586L686.582 236.095C749.547 200.568 827.289 200.568 890.254 236.095L797.061 289.586C791.732 292.633 785.104 292.633 779.775 289.586ZM699.972 227.314C750.577 192.28 783.089 136.324 788.418 75.216C793.747 136.279 826.259 192.235 876.864 227.314C820.975 201.24 755.861 201.24 699.972 227.314ZM685.687 234.437V127.409C685.687 121.271 689.001 115.581 694.33 112.535L787.522 58.9983C786.985 131.037 748.114 197.969 685.687 234.437ZM693.479 111.056C688.15 114.148 681.522 114.148 676.193 111.056L583 57.5647C645.965 22.0379 723.707 22.0379 786.671 57.5647L693.479 111.056ZM675.297 112.535C680.626 115.626 683.94 121.271 683.94 127.409V234.437C621.513 197.969 582.642 131.037 582.105 58.9983L675.297 112.535ZM669.655 227.314C613.766 201.24 548.652 201.24 492.763 227.314C543.368 192.28 575.88 136.324 581.209 75.2609C586.538 136.324 619.05 192.28 669.655 227.314ZM478.478 234.437V127.409C478.478 121.271 481.792 115.581 487.121 112.535L580.313 58.9983C579.776 131.037 540.905 197.969 478.478 234.437ZM486.27 111.056C480.941 114.148 474.313 114.148 468.984 111.056L375.791 57.5647C438.756 22.0379 516.498 22.0379 579.462 57.5647L486.27 111.056ZM468.088 112.535C473.417 115.626 476.731 121.271 476.731 127.409V234.437C414.304 197.969 375.433 131.037 374.896 58.9983L468.088 112.535ZM462.446 227.314C406.557 201.24 341.443 201.24 285.554 227.314C336.159 192.28 368.671 136.324 374 75.216C379.329 136.324 411.886 192.28 462.446 227.314ZM271.269 234.437V127.409C271.269 121.271 274.583 115.581 279.912 112.535L373.104 58.9983C372.567 131.037 333.696 197.969 271.269 234.437ZM279.061 111.056C273.732 114.148 267.104 114.148 261.775 111.056L168.582 57.5199C231.547 21.9931 309.289 21.9931 372.254 57.5199L279.061 111.056ZM260.924 112.535C266.253 115.626 269.567 121.271 269.567 127.409V234.437C207.095 197.969 168.224 131.037 167.687 58.9983L260.924 112.535ZM255.237 227.314C199.348 201.24 134.234 201.24 78.3455 227.314C128.95 192.28 161.462 136.324 166.791 75.216C172.12 136.324 204.677 192.28 255.237 227.314ZM64.0598 234.437V127.409C64.0598 121.271 67.3737 115.581 72.7029 112.535L165.895 58.9983C165.358 131.037 126.487 197.969 64.0598 234.437ZM71.852 111.056C66.5229 114.148 59.8951 114.148 54.5659 111.056L-38.6266 57.5199C24.3377 21.9931 102.08 21.9931 165.045 57.5199L71.852 111.056ZM53.7151 112.535C59.0442 115.626 62.3581 121.271 62.3581 127.409V234.437C-0.0688132 197.969 -38.9401 131.037 -39.4775 58.9983L53.7151 112.535ZM48.0277 227.314C-7.86098 201.24 -72.9748 201.24 -128.863 227.314C-78.2592 192.28 -45.747 136.324 -40.4179 75.216C-35.0888 136.279 -2.53186 192.235 48.0277 227.314ZM61.4177 236.05L-31.7749 289.541C-37.104 292.633 -43.7318 292.633 -49.0609 289.541L-142.253 236.05C-79.2444 200.523 -1.54663 200.523 61.4177 236.05ZM48.0277 584.284C-7.86098 558.21 -72.9301 558.21 -128.819 584.284C-78.2592 549.25 -45.7023 493.294 -40.4179 432.231C-35.0888 493.294 -2.53186 549.25 48.0277 584.284ZM-39.4775 416.013L53.7151 469.55C59.0442 472.641 62.3581 478.286 62.3581 484.423V591.452C-0.0688132 554.984 -38.9401 488.008 -39.4775 416.013ZM63.209 610.761C68.5381 671.734 100.961 727.556 151.386 762.634C95.6315 736.74 30.7864 736.74 -24.9231 762.634C25.4573 727.556 57.8798 671.734 63.209 610.761ZM64.0598 484.423C64.0598 478.286 67.3737 472.596 72.7029 469.55L165.895 416.013C165.358 488.008 126.487 554.984 64.0598 591.452V484.423ZM166.791 432.231C172.12 493.294 204.632 549.25 255.192 584.284C199.303 558.21 134.234 558.21 78.3455 584.284C128.95 549.25 161.462 493.294 166.791 432.231ZM167.687 416.013L260.879 469.55C266.208 472.641 269.522 478.286 269.522 484.423V591.452C207.095 554.984 168.224 488.008 167.687 416.013ZM270.418 610.761C275.747 671.734 308.17 727.556 358.595 762.634C302.841 736.74 237.995 736.74 182.241 762.634C232.666 727.556 265.089 671.734 270.418 610.761ZM271.269 484.423C271.269 478.286 274.583 472.596 279.912 469.55L373.104 416.013C372.567 488.008 333.696 554.984 271.269 591.452V484.423V484.423ZM374 432.231C379.329 493.294 411.841 549.25 462.401 584.284C406.512 558.21 341.443 558.21 285.554 584.284C336.159 549.25 368.671 493.294 374 432.231ZM374.896 416.013L468.088 469.55C473.417 472.641 476.731 478.286 476.731 484.423V591.452C414.304 554.984 375.433 488.008 374.896 416.013ZM477.627 610.761C482.956 671.734 515.379 727.556 565.804 762.634C510.049 736.74 445.204 736.74 389.495 762.634C439.875 727.556 472.298 671.734 477.627 610.761ZM478.478 484.423C478.478 478.286 481.792 472.596 487.121 469.55L580.313 416.013C579.776 488.008 540.905 554.984 478.478 591.452V484.423V484.423ZM581.209 432.231C586.538 493.294 619.05 549.25 669.61 584.284C613.721 558.21 548.652 558.21 492.763 584.284C543.368 549.25 575.88 493.294 581.209 432.231ZM582.105 416.013L675.297 469.55C680.626 472.641 683.94 478.286 683.94 484.423V591.452C621.513 554.984 582.642 488.008 582.105 416.013ZM684.836 610.761C690.165 671.734 722.588 727.556 773.013 762.634C717.258 736.74 652.413 736.74 596.659 762.634C647.084 727.556 679.507 671.734 684.836 610.761ZM685.687 484.423C685.687 478.286 689.001 472.596 694.33 469.55L787.522 416.013C786.985 488.008 748.114 554.984 685.687 591.452V484.423V484.423ZM788.418 432.231C793.747 493.294 826.259 549.25 876.864 584.284C820.975 558.21 755.906 558.21 700.017 584.284C750.577 549.205 783.089 493.294 788.418 432.231ZM789.269 412.967V305.938C789.269 299.801 792.583 294.111 797.912 291.065L891.104 237.573C890.567 309.567 851.696 376.499 789.269 412.967ZM882.506 112.535C887.835 115.626 891.149 121.271 891.149 127.409V234.437C828.722 197.969 789.851 131.037 789.314 58.9983L882.506 112.535ZM789.269 55.9518V-51.0317C789.269 -57.1693 792.583 -62.859 797.912 -65.9054L891.104 -119.397C890.567 -47.4476 851.696 19.5291 789.269 55.9518ZM890.254 -120.92L797.061 -67.4286C791.732 -64.3374 785.104 -64.3374 779.775 -67.4286L686.582 -120.92C749.547 -156.492 827.289 -156.447 890.254 -120.92ZM778.924 -65.9502C784.253 -62.859 787.567 -57.2141 787.567 -51.0764V55.9518C725.14 19.4843 686.269 -47.4476 685.732 -119.442L778.924 -65.9502ZM684.836 -103.224C690.165 -42.2508 722.588 13.6154 773.013 48.6494C717.258 22.7547 652.413 22.7547 596.659 48.6494C647.084 13.5706 679.507 -42.2508 684.836 -103.224ZM582.06 55.9518V-51.0317C582.06 -57.1693 585.374 -62.859 590.703 -65.9054L683.895 -119.397C683.358 -47.4476 644.487 19.5291 582.06 55.9518ZM683.045 -120.92L589.852 -67.4286C584.523 -64.3374 577.895 -64.3374 572.566 -67.4286L479.373 -120.92C542.338 -156.492 620.08 -156.492 683.045 -120.92ZM571.715 -65.9502C577.044 -62.859 580.358 -57.2141 580.358 -51.0764V55.9518C517.931 19.4843 479.06 -47.4476 478.523 -119.442L571.715 -65.9502ZM477.627 -103.224C482.956 -42.2508 515.379 13.5706 565.804 48.6494C510.049 22.7547 445.204 22.7547 389.495 48.6494C439.875 13.5706 472.298 -42.2508 477.627 -103.224ZM374.896 55.9518V-51.0317C374.896 -57.1693 378.21 -62.859 383.539 -65.9054L476.731 -119.397C476.149 -47.4476 437.323 19.5291 374.896 55.9518ZM475.836 -120.92L382.643 -67.4286C377.314 -64.3374 370.686 -64.3374 365.357 -67.4286L272.164 -120.92C335.129 -156.447 412.871 -156.492 475.836 -120.92ZM364.506 -65.9502C369.835 -62.859 373.149 -57.2141 373.149 -51.0764V55.9518C310.722 19.4843 271.851 -47.4476 271.314 -119.442L364.506 -65.9502ZM270.418 -103.224C275.747 -42.2508 308.17 13.5706 358.595 48.6494C302.841 22.7547 237.995 22.7547 182.241 48.6494C232.666 13.5706 265.089 -42.2508 270.418 -103.224ZM167.687 55.9518V-51.0317C167.687 -57.1693 171.001 -62.859 176.33 -65.9054L269.522 -119.397C268.985 -47.4476 230.114 19.5291 167.687 55.9518ZM268.627 -120.92L175.434 -67.4286C170.105 -64.3374 163.477 -64.3374 158.148 -67.4286L64.9555 -120.92C127.92 -156.492 205.662 -156.492 268.627 -120.92ZM157.297 -65.9502C162.626 -62.859 165.94 -57.2141 165.94 -51.0764V55.9518C103.513 19.4843 64.642 -47.4476 64.1046 -119.442L157.297 -65.9502ZM63.209 -103.224C68.5381 -42.2508 100.961 13.5706 151.386 48.6494C95.6315 22.7547 30.7864 22.7547 -24.9679 48.6494C25.4573 13.5706 57.8798 -42.2508 63.209 -103.224ZM-39.5223 55.9518V-51.0317C-39.5223 -57.1693 -36.2083 -62.859 -30.8792 -65.9054L62.3133 -119.397C61.7759 -47.4476 22.9046 19.5291 -39.5223 55.9518ZM61.4177 -120.92L-31.7749 -67.4286C-37.104 -64.3374 -43.7318 -64.3374 -49.0609 -67.4286L-142.253 -120.92C-79.2444 -156.492 -1.54663 -156.447 61.4177 -120.92ZM-143.104 -119.442L-49.9118 -65.9502C-44.5827 -62.859 -41.2688 -57.2141 -41.2688 -51.0764V55.9518C-103.696 19.5291 -142.567 -47.4476 -143.104 -119.442ZM-143.149 127.409C-143.149 121.271 -139.835 115.581 -134.506 112.535L-41.3136 58.9983C-41.8509 130.993 -80.7222 197.969 -143.149 234.437V127.409V127.409ZM-143.104 237.573L-49.9118 291.065C-44.5827 294.156 -41.2688 299.801 -41.2688 305.938V412.967C-103.696 376.499 -142.567 309.567 -143.104 237.573ZM-143.149 484.423C-143.149 478.286 -139.835 472.596 -134.506 469.55L-41.3136 416.013C-41.8509 488.008 -80.7222 554.984 -143.149 591.452V484.423V484.423ZM-41.2688 769.982C-103.696 733.514 -142.567 666.537 -143.104 594.543L-49.9118 648.035C-44.5827 651.126 -41.2688 656.771 -41.2688 662.909V769.982ZM-49.0162 646.556L-142.253 593.065C-79.2892 557.538 -1.54663 557.538 61.4177 593.065L-31.7749 646.556C-37.104 649.648 -43.687 649.648 -49.0162 646.556ZM-39.5223 769.982V662.953C-39.5223 656.816 -36.2083 651.126 -30.8792 648.08L62.3133 594.588C61.7759 666.537 22.9046 733.514 -39.5223 769.982ZM71.852 825.041C66.5229 828.088 59.9398 828.088 54.5659 825.041L-38.6266 771.55C24.3377 736.023 102.08 736.023 165.045 771.55L71.852 825.041ZM165.94 769.982C103.513 733.514 64.642 666.582 64.1046 594.588L157.297 648.08C162.626 651.171 165.94 656.816 165.94 662.953V769.982ZM158.148 646.556L64.9555 593.065C127.92 557.538 205.662 557.538 268.627 593.065L175.434 646.556C170.105 649.648 163.522 649.648 158.148 646.556ZM167.687 769.982V662.953C167.687 656.816 171.001 651.126 176.33 648.08L269.522 594.588C268.985 666.537 230.114 733.514 167.687 769.982ZM279.061 825.041C273.732 828.088 267.149 828.088 261.775 825.041L168.582 771.505C231.547 735.978 309.289 735.978 372.254 771.505L279.061 825.041ZM373.149 769.982C310.722 733.514 271.851 666.582 271.314 594.588L364.506 648.08C369.835 651.171 373.149 656.816 373.149 662.953V769.982ZM365.357 646.556L272.164 593.065C335.129 557.538 412.871 557.538 475.836 593.065L382.643 646.556C377.314 649.648 370.731 649.648 365.357 646.556ZM374.896 769.982V662.953C374.896 656.816 378.21 651.126 383.539 648.08L476.731 594.588C476.149 666.537 437.323 733.514 374.896 769.982ZM486.225 825.041C480.896 828.088 474.313 828.088 468.939 825.041L375.747 771.55C438.711 736.023 516.453 736.023 579.418 771.55L486.225 825.041ZM580.358 769.982C517.931 733.514 479.06 666.582 478.523 594.588L571.715 648.08C577.044 651.171 580.358 656.816 580.358 662.953V769.982V769.982ZM572.566 646.556L479.373 593.065C542.338 557.538 620.08 557.538 683.045 593.065L589.852 646.556C584.523 649.648 577.94 649.648 572.566 646.556ZM582.06 769.982V662.953C582.06 656.816 585.374 651.126 590.703 648.08L683.895 594.588C683.358 666.537 644.487 733.514 582.06 769.982ZM693.434 825.041C688.105 828.088 681.522 828.088 676.148 825.041L582.956 771.55C645.92 736.023 723.662 736.023 786.627 771.55L693.434 825.041ZM787.567 769.982C725.14 733.514 686.269 666.582 685.732 594.588L778.924 648.08C784.253 651.171 787.567 656.816 787.567 662.953V769.982ZM779.775 646.556L686.582 593.065C749.547 557.538 827.289 557.538 890.254 593.065L797.061 646.556C791.732 649.648 785.104 649.648 779.775 646.556ZM789.269 769.982V662.953C789.269 656.816 792.583 651.126 797.912 648.08L891.104 594.588C890.567 666.537 851.696 733.514 789.269 769.982Z" fill="#E1A093"/>
</g>
<defs>
<linearGradient id="paint0_linear" x1="-1.41568e-05" y1="90.0001" x2="819.769" y2="299.69" gradientUnits="userSpaceOnUse">
<stop stop-color="#FF8989"/>
<stop offset="1" stop-color="#A9FF68"/>
</linearGradient>
<linearGradient id="paint1_linear" x1="-82.222" y1="-128.453" x2="1037.09" y2="253.166" gradientUnits="userSpaceOnUse">
<stop stop-color="#EFB3B3"/>
<stop offset="1" stop-color="#EFDF8B"/>
</linearGradient>
<linearGradient id="paint2_linear" x1="-1.41568e-05" y1="90.0001" x2="819.769" y2="299.69" gradientUnits="userSpaceOnUse">
<stop stop-color="#FF8989"/>
<stop offset="1" stop-color="#A9FF68"/>
</linearGradient>
<linearGradient id="paint3_linear" x1="-82.222" y1="-128.453" x2="1037.09" y2="253.166" gradientUnits="userSpaceOnUse">
<stop stop-color="#EFB3B3"/>
<stop offset="1" stop-color="#EFDF8B"/>
</linearGradient>
</defs>
</svg>
