<svg width="95" height="64" viewBox="0 0 95 64" fill="none" xmlns="http://www.w3.org/2000/svg">
<path d="M9.30085 18C11.197 18 11.808 19.3695 12.3136 20.7389C12.5243 21.3078 17.4754 34.8758 17.6229 35.2761C17.665 35.3815 17.644 35.5711 17.4544 35.6343C17.2647 35.6975 14.7154 36.7088 14.568 36.7509C14.4205 36.7931 14.273 36.7299 14.2098 36.5824C14.1466 36.4349 13.0932 33.4853 12.9668 33.1693C12.6086 33.1693 5.9931 33.1693 5.63494 33.1693C5.50853 33.5064 4.43404 36.456 4.3919 36.5824C4.34976 36.7088 4.18121 36.8141 4.03374 36.7509C3.88626 36.6877 1.29483 35.6975 1.14735 35.6343C0.999875 35.5711 0.93667 35.4026 0.978807 35.2761C1.16842 34.7705 6.03524 21.4342 6.28806 20.7389C6.77264 19.3905 7.40469 18 9.30085 18ZM0.599574 42.2498C0.452095 42.2498 0.325684 42.3762 0.325684 42.5448V45.705C0.325684 45.8736 0.452095 46 0.599574 46H18.0021C18.1496 46 18.276 45.8736 18.276 45.705V42.5448C18.276 42.3762 18.1496 42.2498 18.0021 42.2498H0.599574ZM9.30085 22.4244L6.81477 29.8616H11.808L9.32192 22.4244H9.30085ZM74.0443 33.3378C74.0443 34.1806 73.5808 34.7284 72.717 34.7284C72.3799 34.7284 72.106 34.7284 71.6635 34.602V32.0527C71.8531 32.0105 72.2745 31.9684 72.717 31.9684C73.6018 32.0316 74.0443 32.4319 74.0443 33.3378ZM75.814 33.2325C75.814 31.6734 74.9081 30.5989 72.9698 30.5989C72.5063 30.5989 72.1692 30.6411 71.6635 30.7675V28.5132C71.9796 28.471 72.5273 28.4289 73.1173 28.4289C73.6861 28.4289 74.4024 28.471 75.0345 28.5342L75.0766 27.228C74.3603 27.0594 73.3279 26.9752 72.5273 26.9752C71.7267 26.9752 70.5048 27.1648 69.9148 27.3333V35.6343C70.8208 35.9714 71.7267 36.1189 72.6327 36.1189C74.7185 36.1189 75.814 35.0023 75.814 33.2325ZM55.82 32.769C55.82 33.9278 55.3565 34.6862 54.5981 34.6862C54.282 34.6862 54.1135 34.6652 53.7553 34.5598V31.0835C54.1556 30.8939 54.3663 30.8939 54.6823 30.8939C55.4408 30.8728 55.82 31.5049 55.82 32.769ZM50.0262 32.8111C50.0262 31.547 50.4054 30.8728 51.1639 30.8728C51.4799 30.8728 51.6906 30.8728 52.0909 31.0625V34.5388C51.7327 34.6652 51.5642 34.6652 51.2482 34.6652C50.3844 34.6862 50.0262 33.9699 50.0262 32.8111ZM53.7553 38.0151V35.7397C53.966 35.8661 54.3874 36.0557 55.0826 36.0557C56.4942 36.0557 57.5266 34.8969 57.5266 32.7479C57.5266 30.4515 56.4942 29.4612 54.8088 29.4612C54.3874 29.4612 54.0924 29.5034 53.7553 29.6719V26.9962H52.112V29.693C51.7749 29.5245 51.4799 29.4823 51.0586 29.4823C49.3731 29.4823 48.3407 30.5147 48.3407 32.7901C48.3407 34.918 49.2677 36.0557 50.7847 36.0557C51.501 36.0557 51.9224 35.8661 52.1331 35.7397V38.0151H53.7553ZM41.2196 35.9503V29.8826C40.3136 29.6087 39.6184 29.5034 38.6914 29.5034C37.7644 29.5034 37.0902 29.6298 36.1842 29.8826V33.0008C36.1842 33.8435 36.1632 34.0963 36.0789 34.3702C35.9946 34.602 35.8682 34.8969 35.5311 35.1287L35.9735 36.0978C37.3009 35.7186 37.8065 35.1497 37.8065 33.2957V30.9992C38.2489 30.936 38.3332 30.915 38.6914 30.915C39.0495 30.915 39.1127 30.936 39.5552 30.9992V35.9503H41.2196ZM61.6139 34.623C61.2557 34.7494 61.0029 34.7705 60.729 34.7705C60.1391 34.7705 59.802 34.5388 59.802 33.9278C59.802 33.2957 60.2233 33.085 61.045 33.085C61.2346 33.085 61.4453 33.1061 61.5296 33.1482V33.6117C61.5296 34.0963 61.5507 34.4123 61.6139 34.623ZM63.7207 35.3604C63.2783 34.6862 63.1729 34.307 63.1729 33.4643V31.7577C63.1729 30.8518 63.0676 30.5147 62.8148 30.1565C62.4777 29.693 61.9299 29.4823 60.8765 29.4823C60.1391 29.4823 59.4227 29.5666 58.7486 29.7351L59.0014 30.9571C59.4649 30.8939 59.9495 30.8307 60.3076 30.8307C61.4032 30.8307 61.5296 30.9992 61.5296 31.8209V32.1369C61.2768 32.0737 61.0029 32.0316 60.6869 32.0316C59.0224 32.0316 58.1586 32.8322 58.1586 34.1806C58.1586 35.4236 59.0856 36.1189 60.2233 36.1189C60.6447 36.1189 61.0872 36.0346 61.4453 35.8871C61.656 35.8029 61.7403 35.7397 62.0142 35.55C62.1827 35.8029 62.5198 36.0346 62.6462 36.0767L63.7207 35.3604ZM79.8802 34.623C79.5221 34.7494 79.2692 34.7705 78.9954 34.7705C78.4054 34.7705 78.0683 34.5388 78.0683 33.9278C78.0683 33.2957 78.4897 33.085 79.3114 33.085C79.5221 33.085 79.7117 33.1061 79.796 33.1482V33.6117C79.796 34.0963 79.8381 34.4123 79.8802 34.623ZM81.9871 35.3604C81.5446 34.6862 81.4393 34.307 81.4393 33.4643V31.7577C81.4393 30.8518 81.334 30.5147 81.1022 30.1565C80.7651 29.693 80.1963 29.4823 79.1639 29.4823C78.4265 29.4823 77.7102 29.5666 77.036 29.7351L77.2888 30.9571C77.7523 30.8939 78.2369 30.8307 78.5951 30.8307C79.6906 30.8307 79.817 30.9992 79.817 31.8209V32.1369C79.5853 32.0737 79.2903 32.0316 78.9743 32.0316C77.3099 32.0316 76.4461 32.8322 76.4461 34.1806C76.4461 35.4236 77.3731 36.1189 78.5108 36.1189C78.9322 36.1189 79.3746 36.0346 79.7327 35.8871C79.9434 35.8029 80.0277 35.7397 80.3016 35.55C80.4702 35.8029 80.8072 36.0346 80.9337 36.0767L81.9871 35.3604ZM45.9179 33.7803C45.9179 34.3913 45.7072 34.8337 44.9066 34.8337C44.6327 34.8337 44.5273 34.8337 44.1902 34.7284V32.9165C44.6327 32.8322 44.6537 32.8111 44.9066 32.8111C45.665 32.8111 45.9179 33.1904 45.9179 33.7803ZM42.5258 29.5877V35.6132C43.3054 35.9503 44.1692 36.0978 44.9487 36.0978C46.7185 36.0978 47.6455 35.1919 47.6455 33.696C47.6455 32.3476 46.8027 31.5049 45.2437 31.5049C44.8434 31.5049 44.6116 31.547 44.1902 31.6524V29.5877H42.5258ZM88.0548 35.9503V29.6509H86.3904V32.0316H84.5153V29.6509H82.8509V35.9503H84.5153V33.38H86.3904V35.9503H88.0548ZM94.8599 35.9503C94.8599 35.9503 93.954 34.012 93.7433 33.5907C93.4905 33.1061 93.2587 32.7479 92.7531 32.6215V32.6005C93.0902 32.5372 93.3641 32.3266 93.659 31.6945C93.9329 31.0835 94.0172 30.936 94.1857 30.8096C94.3543 30.6622 94.565 30.7254 94.565 30.7254L94.6492 29.5877C94.4175 29.5455 94.1436 29.5455 93.8697 29.5666C93.4273 29.5877 93.1955 29.7141 92.9638 29.9458C92.7952 30.1144 92.6688 30.3672 92.5213 30.6622C92.3738 30.9782 92.2474 31.231 92.0789 31.5681C91.9103 31.9052 91.8471 32.0527 91.4047 32.0527H91.1308V29.6509H89.4664V35.9503H91.1308V33.38H91.3625C91.8261 33.38 91.9103 33.5064 92.1631 33.991C92.4581 34.5809 93.0059 35.9503 93.0059 35.9503H94.8599ZM33.1082 35.9503H35.0255L32.1391 27.1437C31.8441 27.0384 31.4649 26.9752 31.0646 26.9752C30.6221 26.9752 30.4747 27.0384 30.1376 27.1437L27.0826 35.9503H28.9156C28.9156 35.9503 29.1684 35.1708 29.4634 34.2227H32.6236C32.8765 35.1919 33.1082 35.9503 33.1082 35.9503ZM29.8847 32.7479C29.8847 32.7479 30.4115 30.9782 30.4957 30.7043C30.7064 29.988 31.0224 28.8503 31.0224 28.8503H31.0646C31.0646 28.8503 31.3595 30.0301 31.5492 30.6832C31.6334 30.936 32.1391 32.7269 32.1391 32.7269H29.8847V32.7479ZM66.5439 31.7366C65.954 31.7366 65.4905 32.2212 65.4905 32.7901C65.4905 33.38 65.954 33.8435 66.5439 33.8435C67.1338 33.8435 67.5973 33.38 67.5973 32.7901C67.5973 32.2212 67.1127 31.7366 66.5439 31.7366Z" fill="#EE3524"/>
</svg>
