<svg width="40" height="64" viewBox="0 0 40 64" fill="none" xmlns="http://www.w3.org/2000/svg">
<path d="M13.1914 35.8271L11.7879 33.6755H10.4188V35.8271H8.59447V28.419H11.8223C13.6467 28.419 14.8742 29.4065 14.8742 31.0297C14.8742 31.9822 14.4189 32.7931 13.6467 33.2521L15.3658 35.8271H13.1914ZM10.3844 32.0523H11.7528C12.4542 32.0523 13.016 31.6647 13.016 31.0647C13.016 30.4648 12.4542 30.0772 11.7528 30.0772H10.3844V32.0523ZM18.0325 31.3822H21.2954V32.9346H18.0325V34.2046H21.7514V35.7921H16.1731V28.3839H21.7514V29.9714H18.0325V31.3822ZM29.9256 32.1231C29.9256 34.3104 28.2766 35.8622 25.9612 35.8622H23.014V28.4547H25.9612C28.2766 28.4547 29.9256 29.9357 29.9256 32.1231ZM28.0662 32.1231C28.0662 30.994 27.1543 30.1123 25.9612 30.1123H24.8383V34.204H25.9612C27.1543 34.204 28.0662 33.2872 28.0662 32.1231ZM32.767 28.4547V35.8628H30.9427V28.4547H32.767ZM39.7839 30.0772H37.679V35.8271H35.8546V30.0772H33.7497V28.419H39.7839V30.0772ZM5.57828 33.1814C5.29771 33.852 4.70087 34.2748 3.89422 34.2748C2.70115 34.2748 1.85943 33.393 1.85943 32.1581C1.85943 30.9238 2.70115 30.0415 3.89422 30.0415C4.70087 30.0415 5.29709 30.4298 5.57828 31.1355H7.50785C7.12206 29.4422 5.75364 28.3131 3.89422 28.3131C1.68407 28.3131 0 29.9357 0 32.1587C0 34.3806 1.68407 36.0037 3.89422 36.0037C5.75364 36.0037 7.12206 34.8747 7.50785 33.1814H5.57828ZM6.84087 42.9178C6.84087 44.1527 5.85886 44.9637 4.20986 44.9637H0.491007V37.5555H3.99943C5.61336 37.5555 6.52523 38.332 6.52523 39.5312C6.52523 40.2019 6.13943 40.9421 5.50814 41.1538C6.42001 41.3654 6.84087 42.1419 6.84087 42.9178ZM2.35044 39.0722V40.6246H3.71886C4.42029 40.6246 4.80609 40.2721 4.80609 39.8137C4.80609 39.3547 4.42029 39.1079 3.71886 39.1079H2.35044V39.0722ZM5.05159 42.6711C5.05159 42.2121 4.6658 41.9654 3.99943 41.9654H2.31536V43.447H3.96436C4.73594 43.447 5.05159 43.1295 5.05159 42.6711ZM12.5244 43.6937H9.40236L8.91073 44.9637H6.94609L10.0687 37.5555H11.8223L14.945 44.9637H12.9809L12.5244 43.6937ZM11.9282 42.177L10.9455 39.6728L9.96351 42.177H11.9282ZM22.3476 37.5555V44.9637H20.9447L17.4006 40.907V44.9637H15.5769V37.5555H16.9797L20.5238 41.7186V37.5549L22.3476 37.5555ZM26.803 42.2127L25.7157 43.4821V45H23.8914V37.5918H25.7157V40.9784L28.663 37.5918H30.8375L28.0311 40.8369L31.083 45H28.8027L26.803 42.2127ZM7.08699 19.3175V26.7257H5.26264V23.9384H2.28029V26.7257H0.455935V19.3175H2.28029V22.2808H5.26264V19.3175H7.08699ZM28.1012 26.7257H26.2769V23.0216L24.6279 25.5615H23.6108L21.9618 22.9865V26.7257H20.1374V19.3175H21.5059L24.1024 23.2683L26.6971 19.3175H28.0655V26.7257H28.1012ZM31.4694 22.2457H34.7317V23.7969H31.4694V25.0668H35.1882V26.6543H29.6099V19.2467H35.1882V20.8342H31.4694V22.2457Z" fill="#C8102E"/>
<path d="M13.6122 19C10.7 19 8.34958 21.2581 8.34958 24.0448C8.34958 25.0324 8.63016 25.9498 9.15685 26.7257H11.6826C11.2881 26.4227 10.9688 26.0327 10.7496 25.586C10.5305 25.1394 10.4175 24.6481 10.4194 24.1507C10.4194 22.3866 11.858 20.94 13.6122 20.94C15.3658 20.94 16.8044 22.3866 16.8044 24.1507C16.8044 25.209 16.3134 26.1258 15.5418 26.7257H18.0676C18.5586 25.9498 18.8742 25.0324 18.8742 24.0448C18.8742 21.2575 16.5238 19 13.6122 19Z" fill="#C8102E"/>
<path d="M11.8931 24.8558C12.1392 25.5966 12.805 26.1258 13.6122 26.1258C14.4189 26.1258 15.0859 25.5966 15.3314 24.8558H11.8931Z" fill="#C8102E"/>
</svg>
