<svg width="40" height="40" viewBox="0 0 40 40" fill="none" xmlns="http://www.w3.org/2000/svg">
<circle cx="20" cy="20" r="20" fill="#29AE1D"/>
<path fill-rule="evenodd" clip-rule="evenodd" d="M17.7741 10.3892C17.6599 10.4425 17.5399 10.4675 17.4216 10.4675C17.1074 10.4675 16.8082 10.29 16.6657 9.98752C16.4707 9.57002 16.6507 9.07419 17.0674 8.87919C17.8207 8.52669 18.8624 8.33252 19.9991 8.33252C21.0799 8.33252 22.0857 8.51169 22.8307 8.83585C23.2532 9.02002 23.4466 9.51085 23.2632 9.93252C23.0791 10.3534 22.5882 10.5484 22.1666 10.3642C21.0816 9.89335 18.7991 9.91002 17.7741 10.3892ZM13.0514 25.7479C13.9764 26.1404 15.9689 26.6663 19.9989 26.6663C24.0289 26.6663 26.0214 26.1404 26.9464 25.7479C26.1072 24.9246 24.9989 23.4913 24.9989 21.6663C24.9989 20.4413 24.9989 18.2413 24.3214 16.4129C23.5547 14.3404 22.1397 13.3329 19.9989 13.3329C17.8581 13.3329 16.4431 14.3404 15.6756 16.4129C14.9989 18.2413 14.9989 20.4413 14.9989 21.6663C14.9989 23.4913 13.8906 24.9246 13.0514 25.7479ZM19.9989 29.9996C20.9181 29.9996 21.6656 29.2521 21.6656 28.3329C21.6656 28.3267 21.6672 28.3211 21.6689 28.3154C21.6706 28.3098 21.6722 28.3042 21.6722 28.2979C21.1481 28.3188 20.5997 28.3329 19.9989 28.3329C19.3981 28.3329 18.8497 28.3188 18.3256 28.2979C18.3256 28.3042 18.3272 28.3098 18.3289 28.3154C18.3306 28.3211 18.3322 28.3267 18.3322 28.3329C18.3322 29.2521 19.0797 29.9996 19.9989 29.9996ZM28.8009 25.1445L28.8022 25.1454C29.1731 25.3996 29.2764 25.9038 29.0339 26.2821C28.7806 26.6779 27.6714 27.8079 23.3047 28.1971C23.3077 28.2138 23.3122 28.2299 23.3167 28.2459C23.3245 28.2741 23.3322 28.3022 23.3322 28.3329C23.3322 30.1713 21.8372 31.6663 19.9989 31.6663C18.1606 31.6663 16.6656 30.1713 16.6656 28.3329C16.6656 28.3022 16.6733 28.2741 16.6811 28.2459C16.6856 28.2299 16.69 28.2138 16.6931 28.1971C12.3264 27.8079 11.2172 26.6779 10.9639 26.2821C10.7214 25.9038 10.8247 25.3996 11.1956 25.1454L11.1969 25.1445C11.2597 25.0999 13.3322 23.6296 13.3322 21.6229C13.3322 20.3363 13.3322 17.9429 14.1131 15.8338C15.1222 13.1071 17.1581 11.6663 19.9989 11.6663C22.8397 11.6663 24.8756 13.1071 25.8847 15.8338C26.6656 17.9429 26.6656 20.3363 26.6656 21.6229C26.6656 23.6295 28.738 25.0999 28.8009 25.1445Z" fill="white"/>
</svg>
