<svg width="56" height="56" viewBox="0 0 56 56" fill="none" xmlns="http://www.w3.org/2000/svg">
<path d="M44.975 16.2751L32.725 4.02509C32.5709 3.85428 32.3815 3.7189 32.1701 3.62827C31.9586 3.53764 31.73 3.49391 31.5 3.50009H14C13.0717 3.50009 12.1815 3.86883 11.5251 4.52521C10.8687 5.18159 10.5 6.07183 10.5 7.00009V49.0001C10.5 49.9283 10.8687 50.8186 11.5251 51.475C12.1815 52.1313 13.0717 52.5001 14 52.5001H42C42.9283 52.5001 43.8185 52.1313 44.4749 51.475C45.1312 50.8186 45.5 49.9283 45.5 49.0001V17.5001C45.5062 17.2701 45.4624 17.0415 45.3718 16.83C45.2812 16.6186 45.1458 16.4292 44.975 16.2751ZM31.5 7.70009L41.3 17.5001H31.5V7.70009ZM42 49.0001H14V7.00009H28V17.5001C28 18.4283 28.3687 19.3186 29.0251 19.975C29.6815 20.6313 30.5717 21.0001 31.5 21.0001H42V49.0001Z" fill="black"/>
<path d="M36.75 38.5H19.25V42H36.75V38.5Z" fill="black"/>
<path d="M36.75 28H19.25V31.5H36.75V28Z" fill="black"/>
</svg>
