<svg width="82" height="64" viewBox="0 0 82 64" fill="none" xmlns="http://www.w3.org/2000/svg">
<path d="M77.5411 27.1914C78.8526 27.1914 79.9455 27.5739 80.7105 28.3936C81.5302 29.1586 81.9127 30.3608 81.9127 31.8909V37.9564H78.8526V32.3827C78.8526 31.563 78.6886 30.9073 78.3061 30.4701C77.9236 30.0329 77.3772 29.869 76.7214 29.869C75.9564 29.869 75.3007 30.0876 74.8635 30.5794C74.4263 31.0712 74.1531 31.7816 74.1531 32.7105V37.9564H71.093V27.3553H74.0438V28.6122C74.4263 28.175 74.9728 27.7925 75.5739 27.5739C76.175 27.3007 76.8307 27.1914 77.5411 27.1914Z" fill="#1D2638"/>
<path d="M63.2239 35.6066C63.989 35.6066 64.6447 35.3334 65.1912 34.787C65.683 34.2405 65.9562 33.5301 65.9562 32.6558C65.9562 31.7815 65.683 31.0711 65.1912 30.5247C64.6994 29.9782 64.0436 29.705 63.2239 29.705C62.4589 29.705 61.8032 29.9782 61.2567 30.5247C60.7649 31.0711 60.4917 31.7815 60.4917 32.6558C60.4917 33.5301 60.7649 34.2405 61.2567 34.787C61.7485 35.3334 62.4043 35.6066 63.2239 35.6066ZM63.2239 38.1203C62.0764 38.1203 61.0928 37.9017 60.2185 37.4099C59.3442 36.9181 58.6338 36.317 58.142 35.4427C57.6502 34.623 57.377 33.6941 57.377 32.6012C57.377 31.5629 57.6502 30.5793 58.142 29.7596C58.6338 28.94 59.3442 28.2842 60.2185 27.7924C61.0928 27.3006 62.1311 27.082 63.2239 27.082C64.3715 27.082 65.3551 27.3006 66.2294 27.7924C67.1037 28.2842 67.8141 28.8853 68.3059 29.7596C68.7977 30.5793 69.0709 31.5083 69.0709 32.6012C69.0709 33.6394 68.7977 34.623 68.3059 35.4427C67.8141 36.2624 67.1037 36.9181 66.2294 37.4099C65.3005 37.9017 64.3168 38.1203 63.2239 38.1203Z" fill="#1D2638"/>
<path d="M55.2459 27.355H52.1858V38.0107H55.2459V27.355Z" fill="#1D2638"/>
<path d="M43.4973 34.951C44.317 34.951 44.9727 34.7324 45.5192 34.2406C46.0656 33.7488 46.2842 33.1477 46.2842 32.3281C46.2842 31.563 46.011 30.9073 45.5192 30.4155C44.9727 29.9237 44.317 29.7051 43.4973 29.7051C42.6776 29.7051 42.0219 29.9237 41.4754 30.4155C40.929 30.9073 40.7104 31.5084 40.7104 32.3281C40.7104 33.0931 40.9836 33.7488 41.4754 34.2406C41.9672 34.6778 42.6776 34.951 43.4973 34.951ZM49.2897 27.3554V36.2078C49.2897 38.1751 48.7979 39.5958 47.7596 40.5794C46.7213 41.5084 45.2459 42.0002 43.3334 42.0002C42.2951 42.0002 41.3115 41.8909 40.3825 41.6177C39.4536 41.3445 38.6886 41.0166 38.0875 40.5248L40 38.7761C40.3279 38.9401 40.6558 39.104 41.0383 39.2133C41.7487 39.4319 42.4044 39.5412 43.1148 39.5412C44.2077 39.5412 44.9727 39.3226 45.4645 38.8308C45.9563 38.339 46.2295 37.6286 46.2295 36.645V36.2078C45.4099 37.0822 44.317 37.5193 42.8416 37.5193C41.858 37.5193 40.9836 37.3007 40.164 36.8636C39.3443 36.4264 38.6886 35.8253 38.2514 35.0603C37.7596 34.2953 37.541 33.3663 37.541 32.3827C37.541 31.3445 37.7596 30.4701 38.2514 29.7051C38.7432 28.9401 39.3443 28.339 40.164 27.9018C40.9836 27.4647 41.858 27.2461 42.8416 27.2461C44.3716 27.2461 45.5738 27.7379 46.3388 28.7761V27.41H49.2897V27.3554Z" fill="#1D2638"/>
<path d="M30.7651 29.541C30.0547 29.541 29.4536 29.7596 29.0165 30.1421C28.5247 30.5247 28.2514 31.0711 28.1421 31.7815H33.388C33.2788 31.1257 33.0055 30.5793 32.5137 30.1968C32.0219 29.705 31.4755 29.541 30.7651 29.541ZM36.2842 32.7104C36.2842 32.7651 36.2842 33.0383 36.2296 33.5301H28.1968C28.3607 34.1859 28.6886 34.7323 29.235 35.1148C29.7815 35.4973 30.4372 35.6613 31.2569 35.6613C31.8033 35.6613 32.2951 35.552 32.7323 35.388C32.8962 35.3334 33.0602 35.2241 33.2241 35.1148L34.9181 36.9727C33.9891 37.7378 32.7323 38.1203 31.1476 38.1203C29.9454 38.1203 28.9072 37.9017 27.9782 37.4099C27.0492 36.9181 26.3389 36.317 25.8471 35.4427C25.3553 34.623 25.082 33.6941 25.082 32.6012C25.082 31.5629 25.3553 30.6339 25.8471 29.7596C26.3389 28.94 26.9946 28.2842 27.8689 27.7924C28.7432 27.3006 29.6722 27.082 30.7651 27.082C31.8033 27.082 32.7323 27.3006 33.6066 27.7378C34.4263 28.1749 35.1367 28.8307 35.5738 29.6503C36.0656 30.6339 36.2842 31.6176 36.2842 32.7104Z" fill="#1D2638"/>
<path d="M5.68306 29.5411C4.97268 29.5411 4.37158 29.7597 3.93443 30.1422C3.44262 30.5247 3.1694 31.0711 3.06011 31.7815H8.30601C8.19672 31.1258 7.9235 30.5793 7.43169 30.1968C6.93989 29.705 6.39344 29.5411 5.68306 29.5411ZM11.2022 32.7105C11.2022 32.7651 11.2022 33.0384 11.1475 33.5302H3.11475C3.27869 34.1859 3.60656 34.7323 4.15301 35.1149C4.69945 35.4974 5.35519 35.6613 6.17486 35.6613C6.72131 35.6613 7.21311 35.552 7.65027 35.3881C7.81421 35.3334 7.97814 35.2241 8.14208 35.1149L9.83607 36.9728C8.9071 37.7378 7.65027 38.1203 6.06557 38.1203C4.86339 38.1203 3.82514 37.9017 2.89617 37.4099C1.96721 36.9181 1.25683 36.317 0.765027 35.4427C0.273224 34.6777 0 33.6941 0 32.6558C0 31.6176 0.273224 30.6886 0.765027 29.8143C1.25683 28.9946 1.91257 28.3389 2.78689 27.8471C3.6612 27.3553 4.59016 27.1367 5.68306 27.1367C6.72131 27.1367 7.65027 27.3553 8.52459 27.7925C9.34426 28.2296 10.0546 28.8854 10.4918 29.705C10.9836 30.634 11.2022 31.6176 11.2022 32.7105Z" fill="#1D2638"/>
<path d="M22.951 23.3115H19.8909V38.011H22.951V23.3115Z" fill="#1D2638"/>
<path d="M13.989 33.7485C14.3715 34.131 14.9726 34.4042 15.5737 34.4042C16.1748 34.4042 16.7212 34.131 17.1584 33.7485C17.5409 33.366 17.8141 32.7649 17.8141 32.1638C17.8141 31.5627 17.5409 30.9616 17.1584 30.5791C16.7759 30.1966 16.1748 29.9233 15.5737 29.9233C14.9726 29.9233 14.4261 30.1966 13.989 30.5791C13.6065 30.9616 13.3333 31.5627 13.3333 32.1638C13.3333 32.7649 13.5518 33.3113 13.989 33.7485Z" fill="#00AEEF"/>
<path d="M52.3497 25.2787C52.6775 25.6066 53.1693 25.8251 53.7158 25.8251C54.2622 25.8251 54.6994 25.6066 55.0819 25.2787C55.4098 24.9508 55.6284 24.459 55.6284 23.9126C55.6284 23.3661 55.4098 22.8743 55.0819 22.5464C54.754 22.2186 54.2622 22 53.7158 22C53.1693 22 52.7322 22.2186 52.3497 22.5464C52.0218 22.8743 51.8032 23.3661 51.8032 23.9126C51.8032 24.459 52.0218 24.9508 52.3497 25.2787Z" fill="#1D2638"/>
</svg>
