<svg width="32" height="32" viewBox="0 0 32 32" fill="none" xmlns="http://www.w3.org/2000/svg">
<path d="M27 7H10C9.20462 7.00087 8.44206 7.31722 7.87964 7.87964C7.31722 8.44206 7.00087 9.20462 7 10V21C7.00087 21.7954 7.31722 22.5579 7.87964 23.1204C8.44206 23.6828 9.20462 23.9991 10 24H16V22H10C9.73486 21.9998 9.48064 21.8943 9.29316 21.7068C9.10567 21.5194 9.00024 21.2651 9 21V10C9.00034 9.73489 9.10581 9.48073 9.29327 9.29327C9.48073 9.10581 9.73489 9.00034 10 9H27C27.2651 9.00024 27.5194 9.10567 27.7068 9.29316C27.8943 9.48064 27.9998 9.73486 28 10V21C27.9998 21.2652 27.8944 21.5194 27.7069 21.7069C27.5194 21.8944 27.2652 21.9998 27 22H21.8L17 28.8535L18.6387 30L22.8408 24H27C27.7954 23.9991 28.5579 23.6828 29.1204 23.1204C29.6828 22.5579 29.9991 21.7954 30 21V10C29.9991 9.20462 29.6828 8.44206 29.1204 7.87964C28.5579 7.31722 27.7954 7.00087 27 7Z" fill="black"/>
<path d="M3 17H1V4C1.00087 3.20462 1.31722 2.44206 1.87964 1.87964C2.44206 1.31722 3.20462 1.00087 4 1H17V3H4C3.73489 3.00034 3.48074 3.10581 3.29327 3.29327C3.10581 3.48074 3.00034 3.73489 3 4V17Z" fill="black"/>
</svg>
