<?xml version="1.0" encoding="UTF-8"?>
<svg width="158px" height="29px" viewBox="0 0 158 29" version="1.1" xmlns="http://www.w3.org/2000/svg" xmlns:xlink="http://www.w3.org/1999/xlink">
    <title>logo-white</title>
    <g id="Page-1" stroke="none" stroke-width="1" fill="none" fill-rule="evenodd">
        <g id="logo-white-2ea37b6f9303ef9d0d84a3d9abb3159a082e64b88530f408f0bf972ae722b473" transform="translate(-1.000000, -1.000000)" fill="#000000">
            <path d="M27.07,21.574 C28.23,22.357 29.06,22.926 29.57,23.28 C30.2998675,23.6863776 30.8016262,24.4065489 30.93,25.232 C30.7951426,26.1848387 30.4046415,27.0833367 29.8,27.832 C29.3498113,28.7372118 28.4814515,29.3615326 27.48,29.5 C26.6720644,29.3590557 25.9161956,29.0056266 25.29,28.476 C25.16,28.4 24.8,28.16 24.22,27.756 C23.64,27.352 23.19,27.049 22.86,26.846 C20.6081131,28.6316018 17.8138461,29.5944244 14.94,29.575 C11.1927816,29.6484882 7.5892786,28.1337092 5.02,25.405 C2.39177514,22.7735825 0.938422636,19.1917718 0.99,15.473 C0.976660215,13.4529305 1.36060803,11.4499462 2.12,9.578 C2.80852703,7.85136862 3.84307916,6.28388601 5.16,4.972 C6.41764495,3.7344656 7.89664256,2.74428348 9.52,2.053 C11.1189252,1.35392188 12.8449298,0.992380087 14.59,0.991 C18.2570046,0.958471411 21.7784809,2.42376673 24.34,5.048 C27.0902535,7.74574036 28.58762,11.4703036 28.47,15.321 C28.4541048,17.4812658 27.9767814,19.613197 27.07,21.574 L27.07,21.574 Z M7.7,15.281 C7.61723158,17.3334757 8.40961448,19.3246104 9.88,20.759 C11.1413358,22.0921829 12.8925555,22.8522217 14.727829,22.8631 C16.5631024,22.8737465 18.3231154,22.1342982 19.6,20.816 C21.072141,19.3750825 21.8581694,17.3736213 21.76,15.316 C21.8499744,13.2455297 21.0577266,11.2340198 19.58,9.781 C18.2995247,8.4645763 16.5463726,7.71399683 14.71,7.696 C12.8757548,7.71078828 11.1258462,8.46848068 9.86,9.796 C8.40150013,11.2397546 7.61757129,13.2304257 7.7,15.281 L7.7,15.281 Z M44.92,0.99 C48.6337503,1.02010045 52.1832245,2.52520957 54.7866299,5.17381821 C57.3900354,7.82242686 58.8338266,11.3972817 58.8,15.111 C58.8786937,18.9090414 57.4598208,22.5855387 54.85,25.346 C52.3821747,28.0943412 48.8431698,29.6365447 45.15,29.573 C41.4409683,29.6296308 37.8810205,28.1148367 35.35,25.403 C32.7189808,22.7726644 31.2620941,19.1910312 31.31,15.471 C31.2950874,13.4498234 31.6826159,11.4458928 32.45,9.576 C33.1387516,7.85188682 34.1694585,6.28507639 35.48,4.97 C36.7411668,3.73679542 38.219304,2.74718941 39.84,2.051 C41.4424978,1.3522097 43.1717706,0.991036776 44.92,0.99 L44.92,0.99 Z M38.02,15.281 C37.9419122,17.3326733 38.7335666,19.3219774 40.2,20.759 C41.4633773,22.0922218 43.2161368,22.8520972 45.0528422,22.8629728 C46.8895476,22.8736167 48.6510895,22.1343287 49.93,20.816 C51.402141,19.3750825 52.1881694,17.3736213 52.09,15.316 C52.1799744,13.2455297 51.3877266,11.2340198 49.91,9.781 C48.6287569,8.46569456 46.8760934,7.71532427 45.04,7.696 C43.2028293,7.71071773 41.449791,8.4682034 40.18,9.796 C38.7215001,11.2397546 37.9375713,13.2304257 38.02,15.281 L38.02,15.281 Z M74.3,0.99 C78.0134342,1.01823057 81.562982,2.52307254 84.1652012,5.172383 C86.7674203,7.82169347 88.2083666,11.3976567 88.17,15.111 C88.2522501,18.9077896 86.8369196,22.5844159 84.23,25.346 C81.7621747,28.0943412 78.2231698,29.6365447 74.53,29.573 C70.8209683,29.6296308 67.2610205,28.1148367 64.73,25.403 C62.0989808,22.7726644 60.6420941,19.1910312 60.69,15.471 C60.6750874,13.4498234 61.0626159,11.4458928 61.83,9.576 C62.5187516,7.85188682 63.5494585,6.28507639 64.86,4.97 C66.1193924,3.73461213 67.5979614,2.74471692 69.22,2.051 C70.8224978,1.3522097 72.5517706,0.991036776 74.3,0.99 L74.3,0.99 Z M67.4,15.281 C67.3219122,17.3326733 68.1135666,19.3219774 69.58,20.759 C70.8413358,22.0921829 72.5925555,22.8522217 74.427829,22.8631 C76.2631024,22.8737465 78.0231154,22.1342982 79.3,20.816 C80.772141,19.3750825 81.5581694,17.3736213 81.46,15.316 C81.5545756,13.244762 80.7616155,11.2314437 79.28,9.781 C78.000683,8.46289102 76.2467927,7.71199549 74.41,7.696 C72.5761654,7.71272773 70.8269796,8.47010712 69.56,9.796 C68.1015001,11.2397546 67.3175713,13.2304257 67.4,15.281 L67.4,15.281 Z M97.35,23.507 L107.66,23.507 C108.280014,23.4700364 108.900724,23.5668945 109.48,23.791 C109.847415,23.9678366 110.123317,24.2912956 110.24,24.682 C110.493288,25.7410664 110.493288,26.8449336 110.24,27.904 C110.151285,28.2615385 109.915045,28.5646518 109.59,28.738 C108.973009,29.0198013 108.297507,29.1497582 107.62,29.117 L93.97,29.117 C92.21,29.117 91.17,28.637 90.87,27.677 C90.6833568,27.0502178 90.605563,26.3960741 90.64,25.743 L90.64,4.667 C90.6326251,4.23017425 90.6526645,3.7933161 90.7,3.359 C90.7530747,3.00523693 90.8754097,2.66541747 91.06,2.359 C91.41,1.677 92.4,1.336 94.01,1.336 C95.78,1.336 96.83,1.80266667 97.16,2.736 C97.3115501,3.38148782 97.3754581,4.04444899 97.35,4.707 L97.35,23.507 L97.35,23.507 Z M119.6,23.507 L129.91,23.507 C130.530014,23.4700364 131.150724,23.5668945 131.73,23.791 C132.097415,23.9678366 132.373317,24.2912956 132.49,24.682 C132.743288,25.7410664 132.743288,26.8449336 132.49,27.904 C132.401285,28.2615385 132.165045,28.5646518 131.84,28.738 C131.223009,29.0198013 130.547507,29.1497582 129.87,29.117 L116.23,29.117 C114.46,29.117 113.42,28.637 113.12,27.677 C112.938375,27.0491905 112.860682,26.3958959 112.89,25.743 L112.89,4.667 C112.882625,4.23017425 112.902665,3.7933161 112.95,3.359 C113.003075,3.00523693 113.12541,2.66541747 113.31,2.359 C113.66,1.677 114.65,1.336 116.26,1.336 C118.03,1.336 119.08,1.80266667 119.41,2.736 C119.56155,3.38148782 119.625458,4.04444899 119.6,4.707 L119.6,23.507 L119.6,23.507 Z M145.06,0.989 C148.775174,1.01458572 152.327291,2.5182638 154.931671,5.16786332 C157.53605,7.81746284 158.978365,11.3949364 158.94,15.11 C159.017293,18.9059221 157.60266,22.5807354 155,25.345 C152.528211,28.0936978 148.986082,29.6356728 145.29,29.572 C141.580968,29.6286308 138.021021,28.1138367 135.49,25.402 C132.858981,22.7716644 131.402094,19.1900312 131.45,15.47 C131.435087,13.4488234 131.822616,11.4448928 132.59,9.575 C133.278752,7.85088682 134.309458,6.28407639 135.62,4.969 C136.881167,3.73579542 138.359304,2.74618941 139.98,2.05 C141.582884,1.35253661 143.311947,0.991747841 145.06,0.99 L145.06,0.989 Z M138.16,15.28 C138.081912,17.3316733 138.873567,19.3209774 140.34,20.758 C141.603377,22.0912218 143.356137,22.8510972 145.192842,22.8619728 C147.029548,22.8726167 148.79109,22.1333287 150.07,20.815 C151.542141,19.3740825 152.328169,17.3726213 152.23,15.315 C152.319687,13.2448724 151.527462,11.2337829 150.05,9.781 C148.768757,8.46569456 147.016093,7.71532427 145.18,7.696 C143.345755,7.71078828 141.595846,8.46848068 140.33,9.796 C138.864648,11.2359214 138.07642,13.2282833 138.16,15.281 L138.16,15.28 Z" id="logo-white"></path>
        </g>
    </g>
</svg>