<svg width="365" height="257" viewBox="0 0 365 257" fill="none" xmlns="http://www.w3.org/2000/svg">
<path fill-rule="evenodd" clip-rule="evenodd" d="M105.964 157.123C93.0403 161.313 80.8432 162.114 68.5531 160.27C10.0073 151.462 -19.2098 84.686 13.8619 35.4136C41.4961 -5.73972 99.7626 -12.0896 135.963 21.969C150.878 35.9909 158.141 53.644 161.698 73.2896C168.047 108.205 164.174 141.928 149.296 174.162C132.462 210.604 96.0011 244.309 69.8194 255.333C66.0951 256.897 56.5795 258.275 53.2835 252.037C50.7882 247.307 51.8124 240.231 59.4845 234.291C96.7646 205.409 104.623 161.555 105.964 157.123Z" fill="#725EF2"/>
<path fill-rule="evenodd" clip-rule="evenodd" d="M306.313 157.123C293.39 161.313 281.193 162.114 268.902 160.27C210.375 151.462 181.14 84.686 214.23 35.4136C241.864 -5.73972 300.131 -12.0896 336.331 21.969C351.228 35.9909 358.509 53.644 362.066 73.2896C368.415 108.205 364.542 141.928 349.664 174.162C332.849 210.604 296.369 244.309 270.187 255.333C266.463 256.897 256.947 258.275 253.651 252.037C251.156 247.307 252.18 240.231 259.852 234.291C297.114 205.409 304.972 161.555 306.313 157.123Z" fill="#725EF2"/>
</svg>
