<svg width="132" height="24" viewBox="0 0 132 24" fill="none" xmlns="http://www.w3.org/2000/svg">
<path d="M61.0096 7.85742C59.511 7.85742 58.2722 8.35695 57.2931 9.35601C56.334 10.3351 55.8145 11.6139 55.8145 13.1125C55.8145 14.671 56.3539 15.9298 57.413 16.9089C58.472 17.888 59.8507 18.3675 61.5491 18.3675C62.8679 18.3675 64.1666 18.0279 65.3255 17.5083V15.4902C64.2066 16.1296 62.8878 16.4693 61.5491 16.4693C59.8906 16.4693 58.3121 15.75 57.9724 13.8318H65.7452C65.8051 13.652 65.8451 13.1325 65.8451 12.6529C65.8451 11.6938 65.6053 10.4949 64.6062 9.39597C63.727 8.39691 62.4283 7.85742 61.0096 7.85742ZM60.9496 9.83556C62.2284 9.83556 63.5872 10.6148 63.787 12.1734H57.9924C58.2921 10.5749 59.5909 9.83556 60.9496 9.83556Z" fill="white"/>
<path d="M95.0498 7.95312C94.0107 7.95312 92.7719 8.39271 92.0126 9.17198V8.15294H89.9346V18.1435H92.0126V13.1282C92.0126 10.7905 93.4712 9.9912 95.1696 9.9912C95.2696 9.9912 95.4094 10.0112 95.5493 10.0312V7.99309C95.3695 7.97311 95.1497 7.95312 95.0498 7.95312Z" fill="white"/>
<path d="M72.152 13.0092L75.8685 8.13379H73.3509L69.6943 13.0492L73.5707 18.1244H76.0284L72.1121 13.0292L72.152 13.0092Z" fill="white"/>
<path d="M69.6171 4.07715H67.5391V18.1239H69.6171V4.07715Z" fill="white"/>
<path d="M42.6281 11.2238V10.6843H36.1142V12.6624H40.4502V15.5797C39.4911 15.9593 38.452 16.1591 37.3731 16.1591C35.8745 16.1591 34.6356 15.6596 33.6566 14.7005C32.7374 13.7614 32.2579 12.6025 32.2579 11.1239C32.2579 9.66526 32.7174 8.50635 33.6566 7.54726C34.5957 6.60814 36.0543 6.08863 37.9125 6.08863C39.3712 6.08863 40.7699 6.42831 41.9687 7.06771V4.78985C40.7099 4.23038 39.3512 3.93066 37.9125 3.93066C35.5548 3.95065 33.3968 4.68995 32.098 6.00871C30.7393 7.36743 30 9.10579 30 11.1239C30 13.142 30.7393 14.8803 32.098 16.259C33.4567 17.6178 35.275 18.3171 37.3531 18.3171C39.2513 18.3171 41.0496 17.7776 42.6081 16.8385V15.9393V11.2238H42.6281Z" fill="white"/>
<path d="M53.0535 9.31605C52.1544 8.37693 50.8956 7.85742 49.5169 7.85742C48.0183 7.85742 46.7795 8.35695 45.8004 9.35601C44.8413 10.3351 44.3218 11.6139 44.3218 13.1125C44.3218 14.671 44.8613 15.9298 45.9203 16.9089C46.24 17.1886 46.5796 17.4484 46.9593 17.6482C47.8385 18.1278 48.8775 18.3675 50.0764 18.3675C51.3951 18.3675 52.6939 18.0279 53.8528 17.5083V15.4902C53.593 15.6301 53.3333 15.77 53.0735 15.8699C52.1544 16.2695 51.1154 16.4493 50.0764 16.4493C48.4179 16.4493 46.8394 15.73 46.4997 13.8118H53.0535H54.2524C54.3124 13.632 54.3523 13.1125 54.3523 12.6329C54.3523 11.6738 54.1125 10.475 53.1135 9.37599C53.0935 9.37599 53.0735 9.35601 53.0535 9.31605ZM52.2743 12.1734H46.4797C46.7994 10.5948 48.0982 9.83556 49.437 9.83556C50.7158 9.83556 52.0745 10.6148 52.2743 12.1734Z" fill="white"/>
<path d="M111.054 8.13379H108.976V18.1244H111.054V8.13379Z" fill="white"/>
<path d="M110.015 3.77734C109.635 3.77734 109.316 3.89721 109.076 4.15693C108.816 4.41664 108.696 4.73629 108.696 5.11587C108.696 5.49545 108.816 5.8151 109.076 6.07481C109.336 6.33452 109.635 6.45439 110.015 6.45439C110.394 6.45439 110.714 6.33452 110.954 6.07481C111.213 5.8151 111.333 5.49545 111.333 5.11587C111.333 4.73629 111.213 4.41664 110.954 4.15693C110.714 3.89721 110.394 3.77734 110.015 3.77734Z" fill="white"/>
<path d="M131.576 15.3465C131.576 14.7271 131.416 14.2476 131.117 13.8479C130.497 12.9688 129.299 12.5292 127.98 12.1895C127.44 12.0496 126.841 11.9098 126.401 11.67C126.042 11.4502 125.862 11.2304 125.862 10.8308H125.822H125.862C125.862 10.1514 126.701 9.83173 127.72 9.83173C128.939 9.83173 130.098 10.1115 131.117 10.6709V8.5929C130.058 8.13333 128.899 7.89355 127.72 7.89355C126.661 7.89355 125.562 8.13333 124.843 8.6928C124.123 9.25228 123.824 9.99158 123.824 10.9307C123.824 12.8689 125.502 13.6082 127.42 14.0877C127.96 14.2276 128.559 14.3675 128.999 14.6072C129.358 14.827 129.538 15.0468 129.538 15.4464C129.538 16.1458 128.799 16.4855 127.58 16.4855C126.281 16.4855 125.063 16.2657 123.964 15.866V17.8042C125.103 18.1839 126.321 18.4037 127.58 18.4037C128.719 18.4037 129.738 18.1239 130.517 17.5844C130.777 17.4046 130.977 17.1848 131.137 16.965C131.436 16.5054 131.576 15.966 131.576 15.3465Z" fill="white"/>
<path d="M86.3028 10.7714C87.2219 10.072 87.6615 9.21284 87.6615 8.03395C87.6615 6.93498 87.2219 5.95591 86.4427 5.2166C85.6634 4.4773 84.4845 4.09766 83.3656 4.09766H77.4512V18.1244H83.8651C85.044 18.1244 86.2029 17.7448 87.0221 16.9855C87.8214 16.2462 88.241 15.2472 88.241 14.1082C88.241 12.7095 87.5416 11.4308 86.3028 10.7714ZM79.5892 6.01585H83.5854C84.7043 6.01585 85.5435 6.89502 85.5435 8.01397C85.5435 9.1529 84.6843 10.0121 83.5854 10.0121H79.5892V6.01585ZM83.965 16.2262H79.5892V11.9103H83.965C85.1239 11.9103 86.0431 12.8494 86.0431 14.0683C86.0431 15.2671 85.1239 16.2262 83.965 16.2262Z" fill="white"/>
<path d="M117.865 9.79124C118.824 9.79124 119.443 10.1309 119.823 10.6504C120.203 11.1699 120.283 11.8293 120.283 12.3688V18.1234H122.361V12.2889C122.361 11.07 122.061 10.031 121.362 9.23177C121.342 9.21179 121.342 9.21179 121.322 9.19181C120.622 8.41254 119.683 7.87305 118.404 7.87305C117.186 7.87305 116.187 8.31263 115.467 8.89209V8.1328H113.389V18.1234H115.467V12.3688C115.467 11.8293 115.607 11.2299 115.987 10.7304C116.167 10.5106 116.346 10.3108 116.586 10.1709C116.926 9.93111 117.345 9.79124 117.865 9.79124Z" fill="white"/>
<path d="M104.563 9.0919C103.684 8.27267 102.445 7.87305 101.206 7.87305C99.7677 7.87305 98.5488 8.37258 97.5298 9.39162C97.2501 9.67135 97.0103 9.95109 96.8105 10.2708C96.7705 10.3307 96.7306 10.4107 96.6906 10.4706C96.231 11.2499 96.0112 12.149 96.0112 13.1281C96.0112 14.5867 96.5108 15.8455 97.5298 16.8646C98.5488 17.8836 99.7677 18.3832 101.206 18.3832C102.465 18.3832 103.704 17.9835 104.563 17.1443V18.1234H106.641V8.1328H104.563V9.0919ZM103.624 15.5059C103.005 16.1253 102.225 16.425 101.306 16.425C100.387 16.425 99.6078 16.1253 98.9884 15.5059C98.369 14.8665 98.0693 14.0872 98.0693 13.1481C98.0693 12.209 98.369 11.4297 98.9884 10.8103C99.6078 10.1709 100.387 9.87117 101.306 9.87117C102.225 9.87117 103.005 10.1709 103.624 10.8103C104.243 11.4297 104.543 12.209 104.543 13.1481C104.543 14.0872 104.243 14.8665 103.624 15.5059Z" fill="white"/>
<path d="M13.4017 3.02165C13.0132 3.55136 12.75 4.40572 12.75 5.625V7.19766C12.75 7.70857 12.9239 8.20427 13.243 8.60322L14.774 10.5169C14.8477 10.5058 14.9232 10.5 15 10.5C15.8284 10.5 16.5 11.1716 16.5 12C16.5 12.8284 15.8284 13.5 15 13.5C14.1716 13.5 13.5 12.8284 13.5 12C13.5 11.8073 13.5363 11.623 13.6026 11.4538L12.0717 9.54026C11.5398 8.87534 11.25 8.04917 11.25 7.19766V5.625C11.25 4.21928 11.5493 3.01114 12.1921 2.1346C12.8567 1.22833 13.8369 0.75 15 0.75C16.8815 0.75 18.4917 1.90415 19.1642 3.54178C20.8756 4.04449 22.125 5.62568 22.125 7.5C22.125 7.87877 22.1172 8.28337 22.006 8.68595C23.192 9.31559 24 10.5628 24 12C24 13.4372 23.192 14.6845 22.0059 15.3141C22.1171 15.7166 22.1249 16.1211 22.1249 16.4999C22.1249 18.3742 20.8754 19.9554 19.1641 20.4581C18.4916 22.0957 16.8813 23.2499 14.9999 23.2499C14.51 23.2499 14.0369 23.1713 13.5935 23.0255L14.062 21.6006C14.3561 21.6972 14.6711 21.7499 14.9999 21.7499C16.3574 21.7499 17.5061 20.8476 17.8754 19.6085L18.0075 19.1652L18.463 19.0843C19.6918 18.866 20.6249 17.7911 20.6249 16.4999C20.6249 15.8478 20.5743 15.6094 20.393 15.389C20.1453 15.088 19.8113 14.9752 19.4487 15.0139C19.0688 15.0544 18.6734 15.2648 18.4038 15.6018L17.5224 16.7036C17.5886 16.8729 17.625 17.0572 17.625 17.25C17.625 18.0784 16.9534 18.75 16.125 18.75C15.2966 18.75 14.625 18.0784 14.625 17.25C14.625 16.4216 15.2966 15.75 16.125 15.75C16.2017 15.75 16.2771 15.7558 16.3508 15.7669L17.2325 14.6648C17.7451 14.024 18.5009 13.6065 19.2896 13.5224C19.9366 13.4533 20.6132 13.6109 21.1673 14.0554C21.9529 13.7042 22.5 12.9153 22.5 12C22.5 11.0847 21.9529 10.2957 21.1672 9.94458C20.6131 10.389 19.9366 10.5466 19.2896 10.4775C18.501 10.3933 17.7452 9.97582 17.2326 9.33505L16.351 8.23309C16.2773 8.24423 16.2018 8.25 16.125 8.25C15.2966 8.25 14.625 7.57843 14.625 6.75C14.625 5.92157 15.2966 5.25 16.125 5.25C16.9534 5.25 17.625 5.92157 17.625 6.75C17.625 6.94272 17.5887 7.12696 17.5224 7.29622L18.4039 8.39801C18.6735 8.73503 19.0689 8.94542 19.4488 8.98597C19.8113 9.02467 20.1453 8.91193 20.3931 8.61091C20.5744 8.39053 20.625 8.15209 20.625 7.5C20.625 6.20874 19.6919 5.13389 18.4631 4.91559L18.0077 4.83468L17.8755 4.39138C17.5062 3.15222 16.3575 2.25 15 2.25C14.2881 2.25 13.7683 2.52167 13.4017 3.02165Z" fill="white"/>
<path d="M6.47756 16.7038C6.41135 16.873 6.375 17.0573 6.375 17.25C6.375 18.0784 7.04657 18.75 7.875 18.75C8.70343 18.75 9.375 18.0784 9.375 17.25C9.375 16.4216 8.70343 15.75 7.875 15.75C7.79818 15.75 7.72271 15.7558 7.649 15.7669L6.76743 14.6649C6.25482 14.0242 5.49903 13.6067 4.71043 13.5225C4.06341 13.4534 3.38688 13.611 2.83278 14.0554C2.0471 13.7043 1.5 12.9153 1.5 12C1.5 11.0847 2.04708 10.2958 2.83274 9.9446C3.38683 10.3891 4.06337 10.5467 4.71042 10.4776C5.49906 10.3935 6.25491 9.976 6.76755 9.33519L7.64921 8.23312C7.72285 8.24424 7.79825 8.25 7.875 8.25C8.70343 8.25 9.375 7.57843 9.375 6.75C9.375 5.92157 8.70343 5.25 7.875 5.25C7.04657 5.25 6.375 5.92157 6.375 6.75C6.375 6.9428 6.41137 7.1271 6.47763 7.29642L5.59624 8.39815C5.32662 8.73518 4.9312 8.94557 4.55127 8.98612C4.18875 9.0248 3.85469 8.91203 3.60698 8.61097C3.42567 8.39061 3.37512 8.15217 3.37512 7.50014C3.37512 6.20889 4.3082 5.13403 5.53701 4.91574L5.99246 4.83483L6.12459 4.39152C6.49391 3.15236 7.64263 2.25014 9.00012 2.25014C9.3289 2.25014 9.64389 2.30276 9.93801 2.39945L10.4065 0.974479C9.96306 0.828702 9.49002 0.750143 9.00012 0.750143C7.11866 0.750143 5.50843 1.90429 4.83591 3.54192C3.12457 4.04463 1.87512 5.62582 1.87512 7.50014C1.87512 7.87885 1.88291 8.28339 1.99407 8.68591C0.808044 9.31554 0 10.5628 0 12C0 13.4372 0.808009 14.6844 1.994 15.3141C1.88279 15.7166 1.875 16.1212 1.875 16.5C1.875 18.3743 3.12444 19.9555 4.83578 20.4582C5.50831 22.0959 7.11854 23.25 9 23.25C10.1631 23.25 11.1433 22.7717 11.8079 21.8654C12.4507 20.9889 12.75 19.7807 12.75 18.375V16.8023C12.75 15.9508 12.4602 15.1247 11.9283 14.4597L10.3974 12.5462C10.4637 12.377 10.5 12.1927 10.5 12C10.5 11.1716 9.82843 10.5 9 10.5C8.17157 10.5 7.5 11.1716 7.5 12C7.5 12.8284 8.17157 13.5 9 13.5C9.07682 13.5 9.15229 13.4942 9.226 13.4831L10.757 15.3968C11.0761 15.7957 11.25 16.2914 11.25 16.8023V18.375C11.25 19.5943 10.9868 20.4486 10.5983 20.9784C10.2317 21.4783 9.71191 21.75 9 21.75C7.64251 21.75 6.49379 20.8478 6.12446 19.6086L5.99234 19.1653L5.53689 19.0844C4.30808 18.8661 3.375 17.7913 3.375 16.5C3.375 15.8479 3.42555 15.6095 3.60692 15.3891C3.85466 15.0881 4.18871 14.9753 4.55121 15.014C4.93112 15.0546 5.32651 15.265 5.59612 15.602L6.47756 16.7038Z" fill="white"/>
</svg>
